<svg xmlns="http://www.w3.org/2000/svg" xmlns:xlink="http://www.w3.org/1999/xlink" width="500" zoomAndPan="magnify" viewBox="0 0 375 374.999991" height="500" preserveAspectRatio="xMidYMid meet" version="1.0"><path fill="#735240" d="M 79.546875 0 C 35.679688 0 0 35.679688 0 79.546875 L 0 295.453125 C 0 339.320312 35.679688 375 79.546875 375 L 295.453125 375 C 339.320312 375 375 339.320312 375 295.453125 L 375 79.546875 C 375 35.679688 339.320312 0 295.453125 0 Z M 79.546875 11.363281 L 295.453125 11.363281 C 333.179688 11.363281 363.636719 41.820312 363.636719 79.546875 L 363.636719 295.453125 C 363.636719 333.179688 333.179688 363.636719 295.453125 363.636719 L 79.546875 363.636719 C 41.820312 363.636719 11.363281 333.179688 11.363281 295.453125 L 11.363281 79.546875 C 11.363281 41.820312 41.820312 11.363281 79.546875 11.363281 Z M 93.75 28.410156 C 57.699219 28.410156 28.410156 57.699219 28.410156 93.75 L 28.410156 281.25 C 28.410156 317.300781 57.699219 346.589844 93.75 346.589844 L 281.25 346.589844 C 317.300781 346.589844 346.589844 317.300781 346.589844 281.25 L 346.589844 184.660156 C 346.597656 184.277344 346.527344 183.910156 346.386719 183.558594 C 346.246094 183.207031 346.039062 182.894531 345.773438 182.625 C 345.507812 182.351562 345.199219 182.144531 344.847656 181.996094 C 344.496094 181.851562 344.128906 181.777344 343.75 181.777344 C 343.371094 181.777344 343.003906 181.851562 342.652344 181.996094 C 342.300781 182.144531 341.992188 182.351562 341.726562 182.625 C 341.460938 182.894531 341.253906 183.207031 341.113281 183.558594 C 340.972656 183.910156 340.902344 184.277344 340.910156 184.660156 L 340.910156 281.25 C 340.910156 314.230469 314.230469 340.910156 281.25 340.910156 L 93.75 340.910156 C 60.769531 340.910156 34.089844 314.230469 34.089844 281.25 L 34.089844 93.75 C 34.089844 60.769531 60.769531 34.089844 93.75 34.089844 L 281.25 34.089844 C 283.054688 34.089844 284.855469 34.203125 286.675781 34.367188 C 287.050781 34.402344 287.417969 34.363281 287.777344 34.25 C 288.136719 34.136719 288.464844 33.960938 288.753906 33.71875 C 289.042969 33.480469 289.273438 33.191406 289.449219 32.855469 C 289.625 32.523438 289.726562 32.167969 289.761719 31.792969 C 289.796875 31.417969 289.757812 31.050781 289.644531 30.691406 C 289.53125 30.332031 289.355469 30.007812 289.113281 29.71875 C 288.871094 29.429688 288.585938 29.195312 288.25 29.023438 C 287.917969 28.847656 287.5625 28.742188 287.1875 28.707031 C 285.261719 28.535156 283.289062 28.410156 281.25 28.410156 Z M 203.082031 107.953125 C 200.09375 107.953125 197.875 109.402344 196.457031 112.292969 L 142.890625 219.792969 C 142.320312 220.804688 142.046875 222.039062 142.046875 223.488281 C 142.046875 227.289062 143.894531 229.179688 147.582031 229.179688 L 201.78125 229.179688 L 201.78125 261.320312 C 201.78125 263.082031 202.453125 264.480469 203.8125 265.503906 C 205.171875 266.527344 206.835938 267.046875 208.828125 267.046875 C 210.675781 267.046875 212.3125 266.527344 213.734375 265.503906 C 215.15625 264.472656 215.875 263.082031 215.875 261.320312 L 215.875 229.179688 L 227.617188 229.179688 C 229.191406 229.179688 230.457031 228.511719 231.457031 227.183594 C 232.449219 225.847656 232.964844 224.269531 232.964844 222.433594 C 232.964844 220.746094 232.492188 219.234375 231.566406 217.90625 C 230.648438 216.570312 229.328125 215.898438 227.617188 215.898438 L 215.875 215.898438 L 215.875 173.507812 C 215.875 171.75 215.164062 170.394531 213.746094 169.445312 C 212.324219 168.488281 210.6875 168.011719 208.839844 168.011719 C 204.148438 168.011719 201.792969 169.847656 201.792969 173.507812 L 201.792969 215.898438 L 159.96875 215.898438 L 209.261719 116.65625 C 209.6875 115.644531 209.90625 114.695312 209.90625 113.824219 C 209.90625 112.234375 209.15625 110.863281 207.664062 109.695312 C 206.175781 108.542969 204.644531 107.953125 203.082031 107.953125 Z M 343.707031 113.59375 C 343.328125 113.597656 342.96875 113.675781 342.621094 113.824219 C 342.277344 113.976562 341.972656 114.183594 341.710938 114.457031 C 341.449219 114.726562 341.246094 115.035156 341.109375 115.386719 C 340.96875 115.738281 340.902344 116.101562 340.910156 116.476562 L 340.910156 127.839844 C 340.902344 128.222656 340.972656 128.585938 341.113281 128.941406 C 341.253906 129.292969 341.460938 129.605469 341.726562 129.875 C 341.992188 130.148438 342.300781 130.355469 342.652344 130.503906 C 343.003906 130.648438 343.371094 130.722656 343.75 130.722656 C 344.128906 130.722656 344.496094 130.648438 344.847656 130.503906 C 345.199219 130.355469 345.507812 130.148438 345.773438 129.875 C 346.039062 129.605469 346.246094 129.292969 346.386719 128.941406 C 346.527344 128.585938 346.597656 128.222656 346.589844 127.839844 L 346.589844 116.476562 C 346.597656 116.09375 346.527344 115.722656 346.382812 115.367188 C 346.238281 115.011719 346.03125 114.695312 345.757812 114.421875 C 345.488281 114.152344 345.171875 113.945312 344.816406 113.800781 C 344.460938 113.65625 344.089844 113.585938 343.707031 113.59375 Z M 343.707031 142 C 343.328125 142.007812 342.96875 142.085938 342.621094 142.234375 C 342.277344 142.382812 341.972656 142.59375 341.710938 142.863281 C 341.449219 143.136719 341.246094 143.445312 341.109375 143.796875 C 340.96875 144.144531 340.902344 144.507812 340.910156 144.886719 L 340.910156 167.613281 C 340.902344 167.992188 340.972656 168.359375 341.113281 168.714844 C 341.253906 169.066406 341.460938 169.378906 341.726562 169.648438 C 341.992188 169.921875 342.300781 170.128906 342.652344 170.277344 C 343.003906 170.421875 343.371094 170.496094 343.75 170.496094 C 344.128906 170.496094 344.496094 170.421875 344.847656 170.277344 C 345.199219 170.128906 345.507812 169.921875 345.773438 169.648438 C 346.039062 169.378906 346.246094 169.066406 346.386719 168.714844 C 346.527344 168.359375 346.597656 167.992188 346.589844 167.613281 L 346.589844 144.886719 C 346.597656 144.5 346.527344 144.132812 346.382812 143.773438 C 346.238281 143.417969 346.03125 143.105469 345.757812 142.832031 C 345.488281 142.5625 345.171875 142.351562 344.816406 142.207031 C 344.460938 142.0625 344.089844 141.996094 343.707031 142 Z M 343.707031 142 " fill-opacity="1" fill-rule="nonzero"/></svg>