<svg xmlns="http://www.w3.org/2000/svg" xmlns:xlink="http://www.w3.org/1999/xlink" width="500" zoomAndPan="magnify" viewBox="0 0 375 374.999991" height="500" preserveAspectRatio="xMidYMid meet" version="1.0"><path fill="#735240" d="M 79.546875 0 C 35.679688 0 0 35.679688 0 79.546875 L 0 295.453125 C 0 339.320312 35.679688 375 79.546875 375 L 295.453125 375 C 339.320312 375 375 339.320312 375 295.453125 L 375 79.546875 C 375 35.679688 339.320312 0 295.453125 0 Z M 79.546875 11.363281 L 295.453125 11.363281 C 333.179688 11.363281 363.636719 41.820312 363.636719 79.546875 L 363.636719 295.453125 C 363.636719 333.179688 333.179688 363.636719 295.453125 363.636719 L 79.546875 363.636719 C 41.820312 363.636719 11.363281 333.179688 11.363281 295.453125 L 11.363281 79.546875 C 11.363281 41.820312 41.820312 11.363281 79.546875 11.363281 Z M 93.75 28.410156 C 57.699219 28.410156 28.410156 57.699219 28.410156 93.75 L 28.410156 281.25 C 28.410156 317.300781 57.699219 346.589844 93.75 346.589844 L 281.25 346.589844 C 317.300781 346.589844 346.589844 317.300781 346.589844 281.25 L 346.589844 184.660156 C 346.597656 184.277344 346.527344 183.910156 346.386719 183.558594 C 346.246094 183.207031 346.039062 182.894531 345.773438 182.625 C 345.507812 182.351562 345.199219 182.144531 344.847656 181.996094 C 344.496094 181.851562 344.128906 181.777344 343.75 181.777344 C 343.371094 181.777344 343.003906 181.851562 342.652344 181.996094 C 342.300781 182.144531 341.992188 182.351562 341.726562 182.625 C 341.460938 182.894531 341.253906 183.207031 341.113281 183.558594 C 340.972656 183.910156 340.902344 184.277344 340.910156 184.660156 L 340.910156 281.25 C 340.910156 314.230469 314.230469 340.910156 281.25 340.910156 L 93.75 340.910156 C 60.769531 340.910156 34.089844 314.230469 34.089844 281.25 L 34.089844 93.75 C 34.089844 60.769531 60.769531 34.089844 93.75 34.089844 L 281.25 34.089844 C 283.054688 34.089844 284.855469 34.203125 286.675781 34.367188 C 287.050781 34.402344 287.417969 34.363281 287.777344 34.25 C 288.136719 34.136719 288.464844 33.960938 288.753906 33.71875 C 289.042969 33.480469 289.273438 33.191406 289.449219 32.855469 C 289.625 32.523438 289.726562 32.167969 289.761719 31.792969 C 289.796875 31.417969 289.757812 31.050781 289.644531 30.691406 C 289.53125 30.332031 289.355469 30.007812 289.113281 29.71875 C 288.871094 29.429688 288.585938 29.195312 288.25 29.023438 C 287.917969 28.847656 287.5625 28.742188 287.1875 28.707031 C 285.261719 28.535156 283.289062 28.410156 281.25 28.410156 Z M 187.15625 107.953125 C 175.296875 107.953125 165.375 111.375 157.371094 118.1875 C 149.363281 125.011719 145.363281 133.632812 145.363281 144.078125 C 145.363281 150.023438 147.589844 153 152.023438 153 C 154.386719 153 156.265625 152.414062 157.671875 151.246094 C 159.074219 150.070312 159.777344 148.691406 159.777344 147.082031 C 159.777344 138.757812 162.265625 132.355469 167.234375 127.90625 C 172.207031 123.457031 178.699219 121.226562 186.710938 121.226562 C 196.210938 121.226562 203.59375 124.125 208.863281 129.9375 C 214.125 135.75 216.753906 142.449219 216.753906 150.003906 C 216.753906 156.980469 214.15625 163.769531 208.960938 170.375 C 203.769531 176.996094 197.460938 182.917969 190.042969 188.144531 L 168.234375 203.625 C 160.960938 208.851562 154.769531 214.585938 149.679688 220.835938 C 144.59375 227.085938 142.046875 233.550781 142.046875 240.234375 L 142.046875 261.375 C 142.046875 262.972656 142.78125 264.324219 144.265625 265.414062 C 145.738281 266.5 147.285156 267.046875 148.902344 267.046875 L 227.648438 267.046875 C 229.117188 267.046875 230.367188 266.363281 231.402344 264.980469 C 232.441406 263.613281 232.953125 262.035156 232.953125 260.296875 C 232.953125 258.554688 232.441406 257.039062 231.390625 255.738281 C 230.355469 254.429688 229.09375 253.773438 227.617188 253.773438 L 156.683594 253.773438 L 156.683594 240.257812 C 156.683594 235.75 158.539062 231.203125 162.242188 226.628906 C 165.945312 222.054688 170.546875 217.949219 176.035156 214.3125 L 194.058594 201.671875 C 200.574219 196.875 206.582031 192.160156 212.058594 187.511719 C 217.535156 182.851562 222.125 177.179688 225.828125 170.5 C 229.535156 163.816406 231.390625 156.835938 231.390625 149.570312 C 231.390625 137.722656 227.195312 127.820312 218.828125 119.871094 C 210.453125 111.925781 199.898438 107.953125 187.15625 107.953125 Z M 343.707031 113.59375 C 343.328125 113.597656 342.96875 113.675781 342.621094 113.824219 C 342.277344 113.976562 341.972656 114.183594 341.710938 114.457031 C 341.449219 114.726562 341.246094 115.035156 341.109375 115.386719 C 340.96875 115.738281 340.902344 116.101562 340.910156 116.476562 L 340.910156 127.839844 C 340.902344 128.222656 340.972656 128.585938 341.113281 128.941406 C 341.253906 129.292969 341.460938 129.605469 341.726562 129.875 C 341.992188 130.148438 342.300781 130.355469 342.652344 130.503906 C 343.003906 130.648438 343.371094 130.722656 343.75 130.722656 C 344.128906 130.722656 344.496094 130.648438 344.847656 130.503906 C 345.199219 130.355469 345.507812 130.148438 345.773438 129.875 C 346.039062 129.605469 346.246094 129.292969 346.386719 128.941406 C 346.527344 128.585938 346.597656 128.222656 346.589844 127.839844 L 346.589844 116.476562 C 346.597656 116.09375 346.527344 115.722656 346.382812 115.367188 C 346.238281 115.011719 346.03125 114.695312 345.757812 114.421875 C 345.488281 114.152344 345.171875 113.945312 344.816406 113.800781 C 344.460938 113.65625 344.089844 113.585938 343.707031 113.59375 Z M 343.707031 142 C 343.328125 142.007812 342.96875 142.085938 342.621094 142.234375 C 342.277344 142.382812 341.972656 142.59375 341.710938 142.863281 C 341.449219 143.136719 341.246094 143.445312 341.109375 143.796875 C 340.96875 144.144531 340.902344 144.507812 340.910156 144.886719 L 340.910156 167.613281 C 340.902344 167.992188 340.972656 168.359375 341.113281 168.714844 C 341.253906 169.066406 341.460938 169.378906 341.726562 169.648438 C 341.992188 169.921875 342.300781 170.128906 342.652344 170.277344 C 343.003906 170.421875 343.371094 170.496094 343.75 170.496094 C 344.128906 170.496094 344.496094 170.421875 344.847656 170.277344 C 345.199219 170.128906 345.507812 169.921875 345.773438 169.648438 C 346.039062 169.378906 346.246094 169.066406 346.386719 168.714844 C 346.527344 168.359375 346.597656 167.992188 346.589844 167.613281 L 346.589844 144.886719 C 346.597656 144.5 346.527344 144.132812 346.382812 143.773438 C 346.238281 143.417969 346.03125 143.105469 345.757812 142.832031 C 345.488281 142.5625 345.171875 142.351562 344.816406 142.207031 C 344.460938 142.0625 344.089844 141.996094 343.707031 142 Z M 343.707031 142 " fill-opacity="1" fill-rule="nonzero"/></svg>