<svg xmlns="http://www.w3.org/2000/svg" xmlns:xlink="http://www.w3.org/1999/xlink" width="500" zoomAndPan="magnify" viewBox="0 0 375 374.999991" height="500" preserveAspectRatio="xMidYMid meet" version="1.0"><path fill="#735240" d="M 79.546875 0 C 35.679688 0 0 35.679688 0 79.546875 L 0 295.453125 C 0 339.320312 35.679688 375 79.546875 375 L 295.453125 375 C 339.320312 375 375 339.320312 375 295.453125 L 375 79.546875 C 375 35.679688 339.320312 0 295.453125 0 Z M 79.546875 11.363281 L 295.453125 11.363281 C 333.179688 11.363281 363.636719 41.820312 363.636719 79.546875 L 363.636719 295.453125 C 363.636719 333.179688 333.179688 363.636719 295.453125 363.636719 L 79.546875 363.636719 C 41.820312 363.636719 11.363281 333.179688 11.363281 295.453125 L 11.363281 79.546875 C 11.363281 41.820312 41.820312 11.363281 79.546875 11.363281 Z M 97.15625 34.089844 C 62.359375 34.089844 34.089844 62.359375 34.089844 97.15625 L 34.089844 277.84375 C 34.089844 312.640625 62.359375 340.910156 97.15625 340.910156 L 277.84375 340.910156 C 312.640625 340.910156 340.910156 312.640625 340.910156 277.84375 L 340.910156 196.023438 C 340.914062 195.640625 340.847656 195.277344 340.703125 194.921875 C 340.5625 194.570312 340.359375 194.257812 340.089844 193.988281 C 339.824219 193.71875 339.515625 193.507812 339.164062 193.363281 C 338.8125 193.214844 338.449219 193.140625 338.066406 193.140625 C 337.6875 193.140625 337.324219 193.214844 336.972656 193.363281 C 336.621094 193.507812 336.3125 193.71875 336.046875 193.988281 C 335.777344 194.257812 335.574219 194.570312 335.433594 194.921875 C 335.289062 195.277344 335.222656 195.640625 335.226562 196.023438 L 335.226562 277.84375 C 335.226562 309.570312 309.570312 335.226562 277.84375 335.226562 L 97.15625 335.226562 C 65.429688 335.226562 39.773438 309.570312 39.773438 277.84375 L 39.773438 97.15625 C 39.773438 65.429688 65.429688 39.773438 97.15625 39.773438 L 247.160156 39.773438 C 247.539062 39.777344 247.90625 39.710938 248.257812 39.566406 C 248.613281 39.425781 248.921875 39.222656 249.195312 38.953125 C 249.464844 38.6875 249.671875 38.378906 249.820312 38.027344 C 249.96875 37.675781 250.039062 37.3125 250.039062 36.933594 C 250.039062 36.550781 249.96875 36.1875 249.820312 35.835938 C 249.671875 35.484375 249.464844 35.175781 249.195312 34.910156 C 248.921875 34.640625 248.613281 34.4375 248.257812 34.296875 C 247.90625 34.152344 247.539062 34.085938 247.160156 34.089844 Z M 154.285156 107.953125 C 152.679688 107.953125 151.183594 108.542969 149.800781 109.695312 C 148.417969 110.855469 147.726562 112.078125 147.726562 113.382812 L 147.726562 146.152344 C 147.726562 147.59375 148.410156 148.867188 149.792969 149.945312 C 151.175781 151.027344 152.890625 151.578125 154.929688 151.578125 C 156.820312 151.578125 158.5 151.03125 159.957031 149.945312 C 161.410156 148.863281 162.144531 147.59375 162.144531 146.152344 L 162.144531 121.195312 L 224.210938 121.195312 L 224.210938 132.914062 L 158.867188 257.058594 C 158.285156 258.511719 157.992188 259.519531 157.992188 260.097656 C 157.992188 262.125 158.871094 263.792969 160.621094 265.09375 C 162.371094 266.394531 164.402344 267.046875 166.738281 267.046875 C 169.066406 267.046875 170.667969 266.113281 171.542969 264.226562 L 236.449219 138.339844 C 237.90625 136.167969 238.636719 134.074219 238.636719 132.046875 L 238.636719 113.382812 C 238.636719 112.078125 237.898438 110.855469 236.449219 109.695312 C 234.996094 108.542969 233.46875 107.953125 231.867188 107.953125 Z M 338.023438 124.957031 C 337.648438 124.960938 337.285156 125.039062 336.941406 125.1875 C 336.59375 125.339844 336.289062 125.546875 336.027344 125.820312 C 335.765625 126.089844 335.566406 126.398438 335.425781 126.75 C 335.289062 127.101562 335.222656 127.464844 335.226562 127.839844 L 335.226562 139.203125 C 335.222656 139.585938 335.289062 139.953125 335.433594 140.304688 C 335.574219 140.65625 335.777344 140.96875 336.046875 141.238281 C 336.3125 141.511719 336.621094 141.71875 336.972656 141.867188 C 337.324219 142.011719 337.6875 142.085938 338.066406 142.085938 C 338.449219 142.085938 338.8125 142.011719 339.164062 141.867188 C 339.515625 141.71875 339.824219 141.511719 340.089844 141.238281 C 340.359375 140.96875 340.5625 140.65625 340.703125 140.304688 C 340.847656 139.953125 340.914062 139.585938 340.910156 139.203125 L 340.910156 127.839844 C 340.914062 127.457031 340.847656 127.085938 340.703125 126.730469 C 340.558594 126.375 340.347656 126.058594 340.078125 125.789062 C 339.804688 125.515625 339.492188 125.308594 339.136719 125.164062 C 338.777344 125.019531 338.40625 124.949219 338.023438 124.957031 Z M 338.023438 153.363281 C 337.648438 153.371094 337.285156 153.449219 336.941406 153.597656 C 336.59375 153.746094 336.289062 153.957031 336.027344 154.226562 C 335.765625 154.5 335.566406 154.808594 335.425781 155.160156 C 335.289062 155.507812 335.222656 155.875 335.226562 156.25 L 335.226562 178.976562 C 335.222656 179.359375 335.289062 179.722656 335.433594 180.078125 C 335.574219 180.429688 335.777344 180.742188 336.046875 181.011719 C 336.3125 181.28125 336.621094 181.492188 336.972656 181.636719 C 337.324219 181.785156 337.6875 181.859375 338.066406 181.859375 C 338.449219 181.859375 338.8125 181.785156 339.164062 181.636719 C 339.515625 181.492188 339.824219 181.28125 340.089844 181.011719 C 340.359375 180.742188 340.5625 180.429688 340.703125 180.078125 C 340.847656 179.722656 340.914062 179.359375 340.910156 178.976562 L 340.910156 156.25 C 340.914062 155.867188 340.847656 155.496094 340.703125 155.140625 C 340.558594 154.78125 340.347656 154.46875 340.078125 154.195312 C 339.804688 153.925781 339.492188 153.714844 339.136719 153.570312 C 338.777344 153.429688 338.40625 153.359375 338.023438 153.363281 Z M 338.023438 153.363281 " fill-opacity="1" fill-rule="nonzero"/></svg>