<svg xmlns="http://www.w3.org/2000/svg" xmlns:xlink="http://www.w3.org/1999/xlink" width="500" zoomAndPan="magnify" viewBox="0 0 375 374.999991" height="500" preserveAspectRatio="xMidYMid meet" version="1.0"><defs><g/></defs><g fill="#735240" fill-opacity="1"><g transform="translate(0.0323154, 206.726012)"><g><path d="M 12.4375 -65.484375 C 18.28125 -66.992188 28.046875 -67.75 41.734375 -67.75 C 49.960938 -67.75 56.53125 -66.710938 61.4375 -64.640625 C 66.332031 -62.816406 68.8125 -59.015625 68.875 -53.234375 C 68.875 -49.335938 67.144531 -45.441406 63.6875 -41.546875 C 60.550781 -38.222656 58.828125 -36.117188 58.515625 -35.234375 C 58.515625 -34.734375 60.492188 -32.597656 64.453125 -28.828125 C 68.410156 -25.691406 70.421875 -20.664062 70.484375 -13.75 C 70.484375 -8.351562 67.78125 -3.332031 62.375 1.3125 C 57.351562 5.332031 50.820312 7.46875 42.78125 7.71875 C 40.207031 7.71875 37.566406 7.375 34.859375 6.6875 C 32.660156 6 29.867188 4.835938 26.484375 3.203125 C 25.035156 2.140625 24 0.851562 23.375 -0.65625 C 23.238281 -2.164062 23.519531 -3.707031 24.21875 -5.28125 C 25.15625 -6.78125 26.410156 -7.5625 27.984375 -7.625 C 29.492188 -7.625 30.90625 -7.1875 32.21875 -6.3125 C 34.613281 -5.5 36.5625 -4.835938 38.0625 -4.328125 C 39.570312 -4.328125 41.113281 -4.203125 42.6875 -3.953125 C 47.707031 -3.953125 51.695312 -4.957031 54.65625 -6.96875 C 57.664062 -8.976562 59.171875 -11.238281 59.171875 -13.75 C 59.171875 -17.832031 57.222656 -21.570312 53.328125 -24.96875 C 49.679688 -28.363281 47.734375 -31.753906 47.484375 -35.140625 C 47.484375 -38.160156 49.148438 -41.425781 52.484375 -44.9375 C 55.804688 -48.332031 57.46875 -51.066406 57.46875 -53.140625 C 57.46875 -54.773438 55.710938 -55.84375 52.203125 -56.34375 C 49.054688 -56.71875 45.566406 -56.9375 41.734375 -57 C 34.078125 -57.125 27.421875 -56.84375 21.765625 -56.15625 C 21.765625 -51.320312 21.421875 -43.40625 20.734375 -32.40625 C 20.285156 -20.03125 19.21875 -8.882812 17.53125 1.03125 C 17.46875 2.664062 16.742188 4.050781 15.359375 5.1875 C 14.484375 5.6875 13.101562 6.03125 11.21875 6.21875 C 9.832031 6.03125 8.507812 5.367188 7.25 4.234375 C 6.5625 3.171875 6.21875 1.664062 6.21875 -0.28125 C 7.726562 -10.019531 8.890625 -21.296875 9.703125 -34.109375 C 10.078125 -43.335938 10.359375 -50.25 10.546875 -54.84375 C 9.859375 -55.03125 9.140625 -55.28125 8.390625 -55.59375 C 7.503906 -56.34375 6.8125 -57.628906 6.3125 -59.453125 C 6.3125 -61.273438 6.65625 -62.65625 7.34375 -63.59375 C 8.226562 -64.539062 9.925781 -65.171875 12.4375 -65.484375 Z M 13.5625 -19.03125 C 13.5625 -19.914062 13.375 -20.484375 13 -20.734375 C 12.875 -21.046875 12.4375 -21.109375 11.6875 -20.921875 C 11.4375 -20.921875 11.148438 -20.351562 10.828125 -19.21875 C 10.328125 -13.5 9.546875 -7.21875 8.484375 -0.375 C 8.484375 -0.0625 8.703125 0.34375 9.140625 0.84375 C 9.515625 0.90625 9.953125 0.9375 10.453125 0.9375 C 10.835938 0.75 11.125 0.34375 11.3125 -0.28125 C 12.0625 -6.625 12.8125 -12.875 13.5625 -19.03125 Z M 41.078125 -65.296875 C 40.453125 -65.296875 39.921875 -65.015625 39.484375 -64.453125 C 39.484375 -64.140625 39.578125 -63.695312 39.765625 -63.125 C 40.078125 -63 40.863281 -62.84375 42.125 -62.65625 C 45.820312 -62.65625 49.835938 -62.3125 54.171875 -61.625 C 55.054688 -61.625 55.6875 -61.71875 56.0625 -61.90625 C 56.375 -62.21875 56.46875 -62.65625 56.34375 -63.21875 C 56.34375 -63.789062 55.96875 -64.140625 55.21875 -64.265625 C 50.757812 -65.015625 46.046875 -65.359375 41.078125 -65.296875 Z M 59.734375 -30.0625 C 59.296875 -30.625 58.734375 -30.78125 58.046875 -30.53125 C 57.796875 -30.46875 57.539062 -30.054688 57.28125 -29.296875 C 57.28125 -29.046875 57.785156 -28.421875 58.796875 -27.421875 C 59.734375 -26.921875 60.769531 -25.914062 61.90625 -24.40625 C 62.40625 -23.96875 62.90625 -23.625 63.40625 -23.375 C 63.914062 -23.375 64.296875 -23.625 64.546875 -24.125 C 64.859375 -24.625 64.828125 -25.125 64.453125 -25.625 C 63.253906 -27.257812 61.679688 -28.738281 59.734375 -30.0625 Z M 62.75 -61.15625 C 62.25 -61.65625 61.625 -61.78125 60.875 -61.53125 C 60.613281 -61.46875 60.390625 -61.054688 60.203125 -60.296875 C 60.203125 -60.171875 60.675781 -59.609375 61.625 -58.609375 C 61.8125 -58.609375 62.0625 -58.453125 62.375 -58.140625 C 62.5625 -57.628906 62.9375 -57.21875 63.5 -56.90625 C 63.882812 -56.90625 64.296875 -57.09375 64.734375 -57.46875 C 65.046875 -57.789062 65.109375 -58.328125 64.921875 -59.078125 C 64.609375 -60.015625 63.882812 -60.707031 62.75 -61.15625 Z M 62.75 -61.15625 "/></g></g></g><g fill="#735240" fill-opacity="1"><g transform="translate(76.443928, 206.726012)"><g><path d="M 20.828125 -4.609375 C 21.703125 -13.410156 22.140625 -23.367188 22.140625 -34.484375 C 22.140625 -45.035156 22.046875 -52.289062 21.859375 -56.25 C 19.472656 -56.25 17.679688 -56.21875 16.484375 -56.15625 C 14.859375 -56.15625 13.351562 -56.691406 11.96875 -57.765625 C 11.082031 -58.828125 10.515625 -60.175781 10.265625 -61.8125 C 10.265625 -63.507812 10.832031 -64.921875 11.96875 -66.046875 C 13.03125 -67.117188 14.566406 -67.65625 16.578125 -67.65625 C 18.273438 -67.65625 21.351562 -67.6875 25.8125 -67.75 C 30.269531 -67.75 34.226562 -67.59375 37.6875 -67.28125 C 39.570312 -67.28125 41.019531 -66.585938 42.03125 -65.203125 C 42.96875 -64.328125 43.375 -62.914062 43.25 -60.96875 C 43.25 -59.519531 42.617188 -58.132812 41.359375 -56.8125 C 40.484375 -56 38.914062 -55.59375 36.65625 -55.59375 C 35.832031 -55.71875 34.734375 -55.84375 33.359375 -55.96875 C 33.484375 -51.507812 33.578125 -44.003906 33.640625 -33.453125 C 33.640625 -22.960938 33.289062 -13.347656 32.59375 -4.609375 C 34.101562 -4.609375 35.644531 -4.515625 37.21875 -4.328125 C 39.101562 -4.328125 40.546875 -3.640625 41.546875 -2.265625 C 42.492188 -1.378906 42.9375 0.0351562 42.875 1.984375 C 42.875 3.421875 42.273438 4.800781 41.078125 6.125 C 40.203125 6.9375 38.632812 7.375 36.375 7.4375 C 33.039062 7.0625 28.800781 6.875 23.65625 6.875 C 19.1875 6.875 16.078125 6.9375 14.328125 7.0625 C 12.691406 7.0625 11.179688 6.5625 9.796875 5.5625 C 8.921875 4.613281 8.359375 3.257812 8.109375 1.5 C 8.109375 -0.125 8.609375 -1.503906 9.609375 -2.640625 C 10.679688 -3.765625 12.222656 -4.359375 14.234375 -4.421875 C 15.546875 -4.421875 17.742188 -4.484375 20.828125 -4.609375 Z M 27.328125 -26.671875 C 27.328125 -27.546875 27.109375 -28.109375 26.671875 -28.359375 C 26.546875 -28.546875 26.070312 -28.546875 25.25 -28.359375 C 25.125 -28.359375 24.90625 -27.796875 24.59375 -26.671875 C 24.59375 -21.078125 24.3125 -14.953125 23.75 -8.296875 C 23.75 -7.984375 24 -7.570312 24.5 -7.0625 C 24.875 -7.0625 25.3125 -7.03125 25.8125 -6.96875 C 26.1875 -7.15625 26.410156 -7.597656 26.484375 -8.296875 C 26.671875 -14.515625 26.953125 -20.640625 27.328125 -26.671875 Z M 34.390625 -65.109375 C 33.890625 -65.109375 33.359375 -64.921875 32.796875 -64.546875 C 32.734375 -64.421875 32.703125 -63.945312 32.703125 -63.125 C 32.890625 -63 33.453125 -62.75 34.390625 -62.375 C 35.523438 -62.375 36.75 -62.34375 38.0625 -62.28125 C 38.632812 -62.28125 39.046875 -62.53125 39.296875 -63.03125 C 39.484375 -63.40625 39.515625 -63.847656 39.390625 -64.359375 C 39.390625 -64.734375 38.976562 -64.953125 38.15625 -65.015625 C 37.15625 -65.015625 35.898438 -65.046875 34.390625 -65.109375 Z M 34.390625 -65.109375 "/></g></g></g><g fill="#735240" fill-opacity="1"><g transform="translate(127.981724, 206.726012)"><g><path d="M 25.4375 -59.078125 C 31.59375 -45.191406 37.6875 -32.972656 43.71875 -22.421875 C 49.75 -12.492188 53.425781 -6.9375 54.75 -5.75 C 56 -5.0625 57.128906 -4.585938 58.140625 -4.328125 C 59.265625 -4.328125 60.769531 -5.867188 62.65625 -8.953125 C 64.476562 -11.960938 66.113281 -20.097656 67.5625 -33.359375 C 69 -46.484375 69.46875 -55.6875 68.96875 -60.96875 C 68.96875 -63.039062 69.628906 -64.859375 70.953125 -66.421875 C 72.460938 -67.929688 74.347656 -68.25 76.609375 -67.375 C 78.867188 -66.675781 80.09375 -65.039062 80.28125 -62.46875 C 80.84375 -54.800781 80.429688 -45.003906 79.046875 -33.078125 C 77.984375 -21.640625 76.414062 -13.03125 74.34375 -7.25 C 72.894531 -2.039062 70.601562 1.878906 67.46875 4.515625 C 64.882812 6.648438 61.835938 7.847656 58.328125 8.109375 C 54.992188 8.109375 51.757812 6.941406 48.625 4.609375 C 46.101562 2.222656 41.832031 -3.738281 35.8125 -13.28125 C 32.289062 -19.4375 28.015625 -27.445312 22.984375 -37.3125 C 22.984375 -35.675781 22.796875 -33.632812 22.421875 -31.1875 C 21.421875 -18.8125 19.820312 -7.628906 17.625 2.359375 C 17.5 3.992188 16.648438 5.375 15.078125 6.5 C 14.191406 7 12.742188 7.28125 10.734375 7.34375 C 9.359375 7.15625 8.039062 6.4375 6.78125 5.1875 C 6.09375 4.050781 5.8125 2.476562 5.9375 0.46875 C 8.007812 -9.332031 9.769531 -20.640625 11.21875 -33.453125 C 12.53125 -46.265625 13.28125 -54.679688 13.46875 -58.703125 C 13.59375 -60.585938 14.253906 -62.03125 15.453125 -63.03125 C 16.585938 -63.976562 17.96875 -64.421875 19.59375 -64.359375 C 21.289062 -64.359375 22.644531 -63.695312 23.65625 -62.375 C 23.84375 -62.375 24.09375 -61.96875 24.40625 -61.15625 C 24.78125 -60.832031 25.125 -60.140625 25.4375 -59.078125 Z M 78.296875 -61.34375 C 78.296875 -62.21875 77.984375 -62.71875 77.359375 -62.84375 C 77.046875 -62.96875 76.601562 -62.875 76.03125 -62.5625 C 75.90625 -62.4375 75.78125 -61.617188 75.65625 -60.109375 C 76.03125 -56.023438 75.90625 -51.253906 75.28125 -45.796875 C 75.28125 -45.285156 75.40625 -44.6875 75.65625 -44 C 75.96875 -43.9375 76.410156 -43.84375 76.984375 -43.71875 C 77.546875 -43.84375 77.890625 -44.25 78.015625 -44.9375 C 78.578125 -50.40625 78.671875 -55.875 78.296875 -61.34375 Z M 47.484375 0.65625 C 48.054688 1.09375 48.59375 1.34375 49.09375 1.40625 C 49.59375 1.21875 49.90625 0.90625 50.03125 0.46875 C 50.03125 -0.03125 49.6875 -0.753906 49 -1.703125 C 47.425781 -3.960938 45.695312 -6.628906 43.8125 -9.703125 C 43.6875 -10.453125 43.25 -10.863281 42.5 -10.9375 C 42.25 -11.0625 41.804688 -10.898438 41.171875 -10.453125 C 41.046875 -10.328125 41.015625 -9.828125 41.078125 -8.953125 C 42.898438 -5.804688 45.035156 -2.601562 47.484375 0.65625 Z M 15.171875 -25.34375 C 15.296875 -26.226562 15.140625 -26.828125 14.703125 -27.140625 C 14.578125 -27.453125 14.101562 -27.515625 13.28125 -27.328125 C 13.15625 -27.328125 12.875 -26.757812 12.4375 -25.625 C 11.5625 -19.09375 10.429688 -11.835938 9.046875 -3.859375 C 9.046875 -3.546875 9.234375 -3.109375 9.609375 -2.546875 C 9.984375 -2.484375 10.425781 -2.421875 10.9375 -2.359375 C 11.3125 -2.546875 11.59375 -2.953125 11.78125 -3.578125 C 12.90625 -10.929688 14.035156 -18.1875 15.171875 -25.34375 Z M 15.171875 -25.34375 "/></g></g></g><g fill="#735240" fill-opacity="1"><g transform="translate(214.56899, 206.726012)"><g><path d="M 29.59375 7.53125 C 20.851562 7.53125 14.222656 5.207031 9.703125 0.5625 C 5.679688 -4.144531 3.546875 -10.269531 3.296875 -17.8125 C 3.296875 -23.394531 4.488281 -29.234375 6.875 -35.328125 C 9.257812 -41.359375 12.398438 -47.015625 16.296875 -52.296875 C 20.253906 -57.503906 24.429688 -61.398438 28.828125 -63.984375 C 33.160156 -66.429688 37.335938 -67.6875 41.359375 -67.75 C 45.691406 -67.75 49.710938 -67.054688 53.421875 -65.671875 C 57.128906 -64.484375 60.519531 -62.035156 63.59375 -58.328125 C 64.664062 -56.753906 65.078125 -55.148438 64.828125 -53.515625 C 64.828125 -52.453125 63.976562 -51.351562 62.28125 -50.21875 C 61.082031 -49.71875 59.578125 -49.46875 57.765625 -49.46875 C 56.503906 -49.78125 55.335938 -50.535156 54.265625 -51.734375 C 52.640625 -53.804688 50.597656 -55.15625 48.140625 -55.78125 C 46.328125 -56.34375 44.066406 -56.65625 41.359375 -56.71875 C 39.160156 -56.71875 36.367188 -55.710938 32.984375 -53.703125 C 30.085938 -52.066406 27.164062 -49.113281 24.21875 -44.84375 C 21.707031 -41.144531 19.476562 -36.6875 17.53125 -31.46875 C 16.082031 -26.820312 15.203125 -22.207031 14.890625 -17.625 C 14.890625 -13.414062 16.050781 -9.988281 18.375 -7.34375 C 20.632812 -5.207031 24.46875 -4.015625 29.875 -3.765625 C 34.769531 -3.765625 39.195312 -4.800781 43.15625 -6.875 C 47.113281 -8.882812 51.382812 -12.242188 55.96875 -16.953125 C 55.96875 -16.953125 56.03125 -17.019531 56.15625 -17.15625 C 54.957031 -17.84375 52.976562 -18 50.21875 -17.625 C 48.644531 -17.625 46.726562 -17.242188 44.46875 -16.484375 C 41.207031 -15.421875 38.945312 -16.519531 37.6875 -19.78125 C 36.875 -23.363281 37.785156 -25.753906 40.421875 -26.953125 C 42.679688 -28.015625 45.757812 -28.609375 49.65625 -28.734375 C 56.0625 -29.304688 60.929688 -28.363281 64.265625 -25.90625 C 67.585938 -23.707031 69.597656 -18.875 70.296875 -11.40625 C 70.484375 -9.394531 70.546875 -7.507812 70.484375 -5.75 C 70.484375 -4.488281 70.320312 -3.007812 70 -1.3125 C 68.9375 3.519531 66.363281 5.625 62.28125 5 C 58.757812 4.050781 57.535156 1.441406 58.609375 -2.828125 C 58.609375 -3.203125 58.734375 -3.734375 58.984375 -4.421875 C 54.335938 -0.398438 50.003906 2.546875 45.984375 4.421875 C 41.523438 6.242188 36.0625 7.28125 29.59375 7.53125 Z M 8.765625 -4.8125 C 9.140625 -4.300781 9.640625 -3.890625 10.265625 -3.578125 C 10.773438 -3.578125 11.15625 -3.796875 11.40625 -4.234375 C 11.59375 -4.742188 11.46875 -5.5 11.03125 -6.5 C 8.894531 -11.019531 8.109375 -16.265625 8.671875 -22.234375 C 8.671875 -22.992188 8.515625 -23.53125 8.203125 -23.84375 C 8.078125 -24.03125 7.632812 -24.09375 6.875 -24.03125 C 6.75 -24.03125 6.4375 -23.585938 5.9375 -22.703125 C 5.4375 -16.421875 6.378906 -10.457031 8.765625 -4.8125 Z M 56.625 -61.8125 C 56.1875 -62.3125 55.59375 -62.40625 54.84375 -62.09375 C 54.71875 -62.09375 54.492188 -61.71875 54.171875 -60.96875 C 54.171875 -60.707031 54.675781 -60.078125 55.6875 -59.078125 C 56.9375 -58.390625 58.191406 -57.226562 59.453125 -55.59375 C 60.015625 -55.15625 60.550781 -54.84375 61.0625 -54.65625 C 61.5625 -54.65625 61.9375 -54.90625 62.1875 -55.40625 C 62.5 -55.90625 62.4375 -56.4375 62 -57 C 60.550781 -58.695312 58.757812 -60.300781 56.625 -61.8125 Z M 61.8125 -24.6875 C 61.3125 -25.0625 60.679688 -25.125 59.921875 -24.875 C 59.796875 -24.8125 59.609375 -24.40625 59.359375 -23.65625 C 59.359375 -23.53125 59.863281 -23.023438 60.875 -22.140625 C 61.25 -22.140625 61.5625 -21.890625 61.8125 -21.390625 C 62.125 -20.953125 62.53125 -20.609375 63.03125 -20.359375 C 63.40625 -20.359375 63.785156 -20.546875 64.171875 -20.921875 C 64.546875 -21.296875 64.578125 -21.828125 64.265625 -22.515625 C 63.941406 -23.460938 63.125 -24.1875 61.8125 -24.6875 Z M 67.1875 -15.828125 C 67.1875 -16.710938 66.835938 -17.21875 66.140625 -17.34375 C 65.828125 -17.34375 65.390625 -17.179688 64.828125 -16.859375 C 64.765625 -16.734375 64.703125 -15.921875 64.640625 -14.421875 C 65.015625 -12.597656 65.203125 -10.238281 65.203125 -7.34375 C 65.203125 -6.71875 65.359375 -6.125 65.671875 -5.5625 C 65.984375 -5.5 66.425781 -5.4375 67 -5.375 C 67.5625 -5.5625 67.875 -5.96875 67.9375 -6.59375 C 67.9375 -9.738281 67.6875 -12.816406 67.1875 -15.828125 Z M 67.1875 -15.828125 "/></g></g></g><g fill="#735240" fill-opacity="1"><g transform="translate(291.357478, 206.726012)"><g><path d="M 6.40625 -24.59375 C 6.40625 -31.75 8.007812 -38.878906 11.21875 -45.984375 C 14.414062 -52.953125 19 -58.445312 24.96875 -62.46875 C 30.75 -66.238281 37 -68.1875 43.71875 -68.3125 C 43.84375 -68.3125 44.03125 -68.3125 44.28125 -68.3125 C 44.46875 -68.3125 44.65625 -68.3125 44.84375 -68.3125 C 50.6875 -68.3125 56.125 -66.835938 61.15625 -63.890625 C 66.238281 -61.179688 70.191406 -57.097656 73.015625 -51.640625 C 75.785156 -46.671875 77.171875 -41.078125 77.171875 -34.859375 C 77.171875 -29.078125 76.132812 -23.832031 74.0625 -19.125 C 72.238281 -14.914062 69.816406 -11.429688 66.796875 -8.671875 C 64.410156 -6.472656 59.421875 -3.238281 51.828125 1.03125 C 51.703125 1.03125 51.289062 1.222656 50.59375 1.609375 C 50.78125 2.484375 50.46875 3.738281 49.65625 5.375 C 48.644531 6.9375 47.203125 7.785156 45.328125 7.921875 C 37.660156 7.347656 30.96875 5.804688 25.25 3.296875 C 20.101562 0.847656 15.613281 -2.726562 11.78125 -7.4375 C 8.445312 -12.15625 6.65625 -17.875 6.40625 -24.59375 Z M 21.296875 -41.359375 C 18.972656 -36.148438 17.6875 -30.34375 17.4375 -23.9375 C 17.4375 -20.789062 18.28125 -17.710938 19.96875 -14.703125 C 21.664062 -12.191406 24.492188 -9.800781 28.453125 -7.53125 C 32.035156 -5.90625 37.09375 -4.617188 43.625 -3.671875 C 43.625 -3.859375 43.625 -4.015625 43.625 -4.140625 C 43.75 -6.398438 44.816406 -8.160156 46.828125 -9.421875 C 54.929688 -13.191406 60.207031 -16.929688 62.65625 -20.640625 C 65.101562 -24.210938 66.328125 -28.390625 66.328125 -33.171875 C 66.328125 -38.066406 65.414062 -42.367188 63.59375 -46.078125 C 62.03125 -49.785156 59.519531 -52.644531 56.0625 -54.65625 C 53.175781 -56.664062 49.28125 -57.671875 44.375 -57.671875 C 40.101562 -57.671875 35.800781 -56.347656 31.46875 -53.703125 C 27.570312 -51.316406 24.179688 -47.203125 21.296875 -41.359375 Z M 52.390625 -64.921875 C 51.691406 -65.109375 51.03125 -65.015625 50.40625 -64.640625 C 50.34375 -64.515625 50.28125 -64.070312 50.21875 -63.3125 C 50.40625 -63.1875 51.035156 -62.8125 52.109375 -62.1875 C 57.191406 -61.113281 61.804688 -58.035156 65.953125 -52.953125 C 66.453125 -52.640625 66.925781 -52.390625 67.375 -52.203125 C 67.75 -52.328125 68.09375 -52.609375 68.40625 -53.046875 C 68.59375 -53.421875 68.5 -53.957031 68.125 -54.65625 C 63.851562 -59.863281 58.609375 -63.285156 52.390625 -64.921875 Z M 28.265625 2.171875 C 29.210938 2.171875 29.875 2.109375 30.25 1.984375 C 30.625 1.597656 30.71875 1.1875 30.53125 0.75 C 30.53125 0.25 29.929688 -0.1875 28.734375 -0.5625 C 23.773438 -2.257812 19.222656 -5.78125 15.078125 -11.125 C 14.953125 -11.6875 14.507812 -11.96875 13.75 -11.96875 C 13.625 -11.96875 13.25 -11.71875 12.625 -11.21875 C 12.625 -11.09375 12.71875 -10.523438 12.90625 -9.515625 C 17.050781 -4.109375 22.171875 -0.210938 28.265625 2.171875 Z M 72.546875 -46.734375 C 72.484375 -47.484375 72.078125 -47.859375 71.328125 -47.859375 C 71.015625 -47.859375 70.609375 -47.640625 70.109375 -47.203125 C 70.109375 -47.078125 70.234375 -46.289062 70.484375 -44.84375 C 70.671875 -44.78125 70.828125 -44.375 70.953125 -43.625 C 71.140625 -43.125 71.421875 -42.59375 71.796875 -42.03125 C 72.171875 -42.03125 72.644531 -42.0625 73.21875 -42.125 C 73.71875 -42.4375 73.90625 -42.90625 73.78125 -43.53125 C 73.71875 -44.664062 73.304688 -45.734375 72.546875 -46.734375 Z M 72.546875 -46.734375 "/></g></g></g></svg>