<svg xmlns="http://www.w3.org/2000/svg" xmlns:xlink="http://www.w3.org/1999/xlink" width="500" zoomAndPan="magnify" viewBox="0 0 375 374.999991" height="500" preserveAspectRatio="xMidYMid meet" version="1.0"><path fill="#735240" d="M 79.546875 0 C 35.679688 0 0 35.679688 0 79.546875 L 0 295.453125 C 0 339.320312 35.679688 375 79.546875 375 L 295.453125 375 C 339.320312 375 375 339.320312 375 295.453125 L 375 79.546875 C 375 35.679688 339.320312 0 295.453125 0 Z M 79.546875 11.363281 L 295.453125 11.363281 C 333.179688 11.363281 363.636719 41.820312 363.636719 79.546875 L 363.636719 295.453125 C 363.636719 333.179688 333.179688 363.636719 295.453125 363.636719 L 79.546875 363.636719 C 41.820312 363.636719 11.363281 333.179688 11.363281 295.453125 L 11.363281 79.546875 C 11.363281 41.820312 41.820312 11.363281 79.546875 11.363281 Z M 97.15625 34.089844 C 62.359375 34.089844 34.089844 62.359375 34.089844 97.15625 L 34.089844 277.84375 C 34.089844 312.640625 62.359375 340.910156 97.15625 340.910156 L 277.84375 340.910156 C 312.640625 340.910156 340.910156 312.640625 340.910156 277.84375 L 340.910156 196.023438 C 340.914062 195.640625 340.847656 195.277344 340.703125 194.921875 C 340.5625 194.570312 340.359375 194.257812 340.089844 193.988281 C 339.824219 193.71875 339.515625 193.507812 339.164062 193.363281 C 338.8125 193.214844 338.449219 193.140625 338.066406 193.140625 C 337.6875 193.140625 337.324219 193.214844 336.972656 193.363281 C 336.621094 193.507812 336.3125 193.71875 336.046875 193.988281 C 335.777344 194.257812 335.574219 194.570312 335.433594 194.921875 C 335.289062 195.277344 335.222656 195.640625 335.226562 196.023438 L 335.226562 277.84375 C 335.226562 309.570312 309.570312 335.226562 277.84375 335.226562 L 97.15625 335.226562 C 65.429688 335.226562 39.773438 309.570312 39.773438 277.84375 L 39.773438 97.15625 C 39.773438 65.429688 65.429688 39.773438 97.15625 39.773438 L 247.160156 39.773438 C 247.539062 39.777344 247.90625 39.710938 248.257812 39.566406 C 248.613281 39.425781 248.921875 39.222656 249.195312 38.953125 C 249.464844 38.6875 249.671875 38.378906 249.820312 38.027344 C 249.96875 37.675781 250.039062 37.3125 250.039062 36.933594 C 250.039062 36.550781 249.96875 36.1875 249.820312 35.835938 C 249.671875 35.484375 249.464844 35.175781 249.195312 34.910156 C 248.921875 34.640625 248.613281 34.4375 248.257812 34.296875 C 247.90625 34.152344 247.539062 34.085938 247.160156 34.089844 Z M 187.5 107.953125 C 160.109375 107.953125 146.417969 120.449219 146.417969 145.417969 C 146.417969 162.738281 152.894531 174.0625 165.859375 179.398438 C 149.984375 185.746094 142.046875 199.238281 142.046875 219.871094 L 142.046875 222.46875 C 142.046875 237.757812 146.195312 249.015625 154.496094 256.226562 C 162.804688 263.441406 173.800781 267.046875 187.5 267.046875 C 201.191406 267.046875 212.195312 263.4375 220.503906 256.226562 C 228.804688 249.007812 232.953125 237.757812 232.953125 222.46875 L 232.953125 219.871094 C 232.953125 199.09375 225.082031 185.597656 209.351562 179.398438 C 222.167969 174.058594 228.582031 162.730469 228.582031 145.417969 C 228.582031 120.449219 214.886719 107.953125 187.5 107.953125 Z M 187.5 120.261719 C 205.5625 120.261719 214.597656 129 214.597656 146.484375 C 214.597656 164.257812 205.5625 173.152344 187.5 173.152344 C 169.578125 173.152344 160.621094 164.257812 160.621094 146.484375 C 160.621094 128.996094 169.578125 120.261719 187.5 120.261719 Z M 338.023438 124.957031 C 337.648438 124.960938 337.285156 125.039062 336.941406 125.1875 C 336.59375 125.339844 336.289062 125.546875 336.027344 125.820312 C 335.765625 126.089844 335.566406 126.398438 335.425781 126.75 C 335.289062 127.101562 335.222656 127.464844 335.226562 127.839844 L 335.226562 139.203125 C 335.222656 139.585938 335.289062 139.953125 335.433594 140.304688 C 335.574219 140.65625 335.777344 140.96875 336.046875 141.238281 C 336.3125 141.511719 336.621094 141.71875 336.972656 141.867188 C 337.324219 142.011719 337.6875 142.085938 338.066406 142.085938 C 338.449219 142.085938 338.8125 142.011719 339.164062 141.867188 C 339.515625 141.71875 339.824219 141.511719 340.089844 141.238281 C 340.359375 140.96875 340.5625 140.65625 340.703125 140.304688 C 340.847656 139.953125 340.914062 139.585938 340.910156 139.203125 L 340.910156 127.839844 C 340.914062 127.457031 340.847656 127.085938 340.703125 126.730469 C 340.558594 126.375 340.347656 126.058594 340.078125 125.789062 C 339.804688 125.515625 339.492188 125.308594 339.136719 125.164062 C 338.777344 125.019531 338.40625 124.949219 338.023438 124.957031 Z M 338.023438 153.363281 C 337.648438 153.371094 337.285156 153.449219 336.941406 153.597656 C 336.59375 153.746094 336.289062 153.957031 336.027344 154.226562 C 335.765625 154.5 335.566406 154.808594 335.425781 155.160156 C 335.289062 155.507812 335.222656 155.875 335.226562 156.25 L 335.226562 178.976562 C 335.222656 179.359375 335.289062 179.722656 335.433594 180.078125 C 335.574219 180.429688 335.777344 180.742188 336.046875 181.011719 C 336.3125 181.28125 336.621094 181.492188 336.972656 181.636719 C 337.324219 181.785156 337.6875 181.859375 338.066406 181.859375 C 338.449219 181.859375 338.8125 181.785156 339.164062 181.636719 C 339.515625 181.492188 339.824219 181.28125 340.089844 181.011719 C 340.359375 180.742188 340.5625 180.429688 340.703125 180.078125 C 340.847656 179.722656 340.914062 179.359375 340.910156 178.976562 L 340.910156 156.25 C 340.914062 155.867188 340.847656 155.496094 340.703125 155.140625 C 340.558594 154.78125 340.347656 154.46875 340.078125 154.195312 C 339.804688 153.925781 339.492188 153.714844 339.136719 153.570312 C 338.777344 153.429688 338.40625 153.359375 338.023438 153.363281 Z M 187.488281 186.300781 C 208.175781 186.300781 218.527344 197.066406 218.527344 218.574219 L 218.527344 221.613281 C 218.527344 232.589844 215.867188 240.84375 210.550781 246.40625 C 205.230469 251.96875 197.613281 254.75 187.710938 254.75 C 177.800781 254.75 170.128906 251.96875 164.660156 246.40625 C 159.203125 240.84375 156.460938 232.589844 156.460938 221.613281 L 156.460938 218.574219 C 156.460938 197.066406 166.796875 186.300781 187.488281 186.300781 Z M 187.488281 186.300781 " fill-opacity="1" fill-rule="nonzero"/></svg>