<svg xmlns="http://www.w3.org/2000/svg" xmlns:xlink="http://www.w3.org/1999/xlink" width="500" zoomAndPan="magnify" viewBox="0 0 375 374.999991" height="500" preserveAspectRatio="xMidYMid meet" version="1.0"><path fill="#735240" d="M 375.023438 187.519531 C 375.023438 291.074219 291.074219 375.023438 187.519531 375.023438 C 83.964844 375.023438 0.0195312 291.074219 0.0195312 187.519531 C 0.0195312 83.964844 83.964844 0.0195312 187.519531 0.0195312 C 291.074219 0.0195312 375.023438 83.964844 375.023438 187.519531 " fill-opacity="1" fill-rule="nonzero"/><path fill="#faf1e4" d="M 280.019531 95.019531 C 270.957031 85.953125 256.261719 85.953125 247.199219 95.019531 L 187.519531 154.695312 L 127.839844 95.019531 C 118.777344 85.953125 104.082031 85.953125 95.019531 95.019531 C 85.953125 104.082031 85.953125 118.777344 95.019531 127.839844 L 154.695312 187.519531 L 95.019531 247.199219 C 85.953125 256.261719 85.953125 270.957031 95.019531 280.019531 C 104.082031 289.085938 118.777344 289.085938 127.839844 280.019531 L 187.519531 220.34375 L 247.199219 280.019531 C 256.261719 289.085938 270.957031 289.085938 280.019531 280.019531 C 289.085938 270.957031 289.085938 256.261719 280.019531 247.199219 L 220.34375 187.519531 L 280.019531 127.839844 C 289.085938 118.777344 289.085938 104.082031 280.019531 95.019531 " fill-opacity="1" fill-rule="nonzero"/></svg>