<svg version="1.1" id="Layer_1" xmlns="http://www.w3.org/2000/svg" xmlns:xlink="http://www.w3.org/1999/xlink" x="0px" y="0px"
	 width="100%" viewBox="0 0 1500 1500" enable-background="new 0 0 1500 1500" xml:space="preserve">
<path fill="#4C9F38" opacity="1.000000" stroke="none" 
	d="
M1.000000,554.000000 
	C1.000000,370.833374 1.013391,188.166718 0.906307,5.500153 
	C0.904109,1.751056 1.750624,0.906395 5.499918,0.907133 
	C502.499817,1.004945 999.499695,1.004939 1496.499634,0.907217 
	C1500.247803,0.906480 1501.093628,1.749691 1501.092896,5.499650 
	C1500.995117,502.499542 1500.995117,999.499451 1501.092773,1496.499390 
	C1501.093506,1500.246948 1500.251099,1501.093628 1496.500610,1501.092896 
	C999.500732,1500.994995 502.500793,1500.994995 5.500921,1501.092651 
	C1.754016,1501.093384 0.905486,1500.252197 0.906694,1496.500854 
	C1.007821,1182.500610 1.000000,868.500305 1.000000,554.000000 
z"/>
<path fill="#FEFEFE" opacity="1.000000" stroke="none" 
	d="
M559.516846,913.606934 
	C547.908630,939.615601 536.490234,965.295227 525.063904,990.971375 
	C521.816223,998.269409 516.166443,1001.989685 508.193787,1001.991455 
	C426.528198,1002.009460 344.862640,1002.018066 263.197052,1001.982849 
	C252.819885,1001.978394 245.214249,994.524719 245.160828,984.619080 
	C245.105927,974.440308 252.739395,967.009155 263.407471,967.006653 
	C339.573120,966.988831 415.738831,966.958618 491.904236,967.101379 
	C496.048065,967.109192 497.918182,965.778870 499.559753,962.073425 
	C526.232117,901.868164 553.050781,841.727661 579.859802,781.583008 
	C583.757141,772.839294 590.281860,768.768127 598.552185,769.736572 
	C606.687927,770.689148 612.775879,776.314453 613.947571,784.438721 
	C619.697021,824.305420 625.338318,864.187683 631.047302,904.060181 
	C636.544006,942.449585 642.078186,980.833679 647.591858,1019.220642 
	C648.180054,1023.315735 648.741455,1027.414551 649.366089,1031.874268 
	C651.683533,1030.980957 652.084961,1028.868774 652.936157,1027.293579 
	C678.323303,980.313904 703.679932,933.317627 728.972839,886.287109 
	C732.107666,880.458008 736.473083,876.510681 743.214966,875.905701 
	C753.538330,874.979309 760.935120,880.864624 762.802307,891.609131 
	C767.588928,919.153931 772.233704,946.723206 776.968750,974.276978 
	C786.550537,1030.034302 796.161255,1085.786621 805.743591,1141.543945 
	C807.798645,1153.501953 809.784119,1165.472046 811.857300,1177.766602 
	C813.702454,1176.495483 813.709167,1174.858765 814.137329,1173.437256 
	C863.722534,1008.807800 913.309753,844.178955 962.886230,679.546875 
	C973.002869,645.952026 983.037903,612.332581 993.193848,578.749634 
	C997.248230,565.342773 1011.094543,560.458496 1021.518066,568.570740 
	C1023.965454,570.475464 1025.561401,572.976685 1026.868164,575.686401 
	C1058.440674,641.147522 1090.026855,706.602051 1121.525146,772.098938 
	C1126.411377,782.259216 1122.109009,793.169128 1112.145996,796.851624 
	C1103.317627,800.114807 1094.328979,796.265198 1089.808228,787.019653 
	C1081.480713,769.989014 1073.277588,752.897644 1065.046631,735.820007 
	C1048.656128,701.813110 1032.283203,667.797852 1015.895752,633.789490 
	C1015.541931,633.054993 1015.102539,632.361877 1014.283752,630.901428 
	C1012.388916,637.061584 1010.679871,642.516907 1009.031738,647.990479 
	C947.716003,851.632812 886.340576,1055.257202 825.251465,1258.967407 
	C821.458069,1271.616943 809.438049,1277.064575 799.449402,1271.900269 
	C794.030518,1269.098877 791.101135,1264.447388 790.084778,1258.508545 
	C777.004272,1182.073486 763.935791,1105.636353 750.833618,1029.205078 
	C746.195007,1002.146118 741.473389,975.101257 736.743164,947.781250 
	C734.689392,948.445801 734.406372,950.407593 733.636108,951.832886 
	C707.695435,999.835449 681.815002,1047.870483 655.874084,1095.873047 
	C649.816345,1107.082642 636.512634,1109.697266 627.747437,1101.564941 
	C624.402649,1098.461670 622.794983,1094.511841 622.169312,1090.123291 
	C615.403442,1042.667603 608.665405,995.207886 601.913391,947.750183 
	C597.529175,916.934692 593.138794,886.120056 588.728760,855.308228 
	C588.548096,854.046265 588.138977,852.816956 587.588867,850.554932 
	C578.040039,872.033020 568.871826,892.654785 559.516846,913.606934 
z"/>
<path fill="#FFFFFF" opacity="1.000000" stroke="none" 
	d="
M1158.936523,874.910522 
	C1194.515503,847.599487 1240.010254,870.444153 1252.906616,907.381592 
	C1264.754883,941.316895 1259.548340,971.889221 1233.511108,997.908081 
	C1200.511353,1030.884277 1167.553711,1063.903076 1134.707520,1097.031982 
	C1131.857788,1099.906128 1130.427856,1100.204712 1127.401123,1097.156250 
	C1093.826416,1063.339233 1060.207764,1029.563965 1026.352417,996.028442 
	C990.562012,960.576050 998.888245,902.952637 1030.582275,877.694946 
	C1049.166382,862.884827 1078.019409,854.178772 1104.462891,875.361938 
	C1109.924927,879.737366 1115.419556,884.057556 1120.487427,888.890076 
	C1123.259277,891.533203 1126.204956,894.038696 1128.663818,896.950989 
	C1130.536499,899.169189 1131.602661,898.676880 1133.296631,896.909729 
	C1141.038940,888.833069 1149.463257,881.531189 1158.936523,874.910522 
z"/>
<path fill="#FEFEFE" opacity="1.000000" stroke="none" 
	d="
M117.865112,337.993713 
	C117.795166,324.828735 117.795166,324.828674 130.376083,324.828766 
	C143.041977,324.828857 155.709641,324.944244 168.372604,324.751801 
	C171.720413,324.700928 172.526321,325.788239 172.591675,328.987183 
	C172.805573,339.456146 172.654938,349.987640 175.818390,360.169128 
	C179.831787,373.086029 192.205200,378.914856 204.778992,373.785583 
	C210.379456,371.500946 213.474472,366.997498 214.757690,361.454712 
	C218.874252,343.673523 219.226242,325.800201 214.506882,308.077515 
	C211.373688,296.311279 203.397919,289.903137 191.222000,288.823578 
	C188.238251,288.558990 185.204422,287.831604 182.281082,288.141693 
	C177.230774,288.677368 175.793045,286.977173 176.027893,281.888947 
	C176.480743,272.077118 176.356216,262.223694 176.063019,252.399719 
	C175.946884,248.507889 177.227661,247.468185 180.877930,247.768539 
	C185.360901,248.137421 189.856155,247.761734 194.315521,247.023575 
	C204.425903,245.350037 211.559341,240.009491 214.436951,230.007584 
	C218.805893,214.822067 219.236465,199.445480 214.989792,184.175858 
	C212.106720,173.809341 205.717987,169.511414 194.593353,169.513519 
	C184.305450,169.515488 179.014053,173.553177 175.735367,183.905670 
	C172.515228,194.073303 172.586349,204.600388 172.606857,215.074432 
	C172.614288,218.863098 171.784561,220.177063 167.704086,220.107437 
	C152.376144,219.845871 137.041061,220.002213 121.708664,220.002686 
	C119.742844,220.002731 117.753197,220.492203 117.776497,217.205841 
	C117.866280,204.547806 117.465408,191.869171 120.375710,179.410690 
	C127.689743,148.100662 150.877121,128.437805 183.342178,126.049965 
	C196.701904,125.067345 209.990234,125.438904 222.966507,129.132309 
	C245.419617,135.523056 260.866150,149.527420 267.826172,171.997955 
	C273.569885,190.541824 274.045288,209.479141 268.794861,228.166901 
	C264.048340,245.061203 254.675323,258.604034 236.664780,265.399872 
	C255.980225,273.359924 265.544403,288.340759 269.700775,307.303589 
	C272.612488,320.587799 272.688446,334.084381 271.525085,347.576691 
	C270.505066,359.406738 268.002808,370.885193 263.281982,381.873901 
	C254.301880,402.776978 238.697205,415.453888 216.419006,419.637756 
	C200.367889,422.652191 184.261673,422.383240 168.327240,418.590729 
	C142.690186,412.488983 128.740845,394.988983 122.079208,370.591492 
	C119.214363,360.099365 118.017738,349.355804 117.865112,337.993713 
z"/>
<path fill="#FBFDFB" opacity="1.000000" stroke="none" 
	d="
M649.075317,373.034882 
	C646.218323,352.821228 643.521301,333.030792 640.533813,313.284271 
	C639.989990,309.689758 640.161438,307.996582 644.377563,308.409851 
	C648.337097,308.797913 653.236572,307.276398 656.095947,309.119049 
	C659.153442,311.089355 657.923401,316.468231 658.444641,320.356964 
	C660.807983,337.991272 663.002625,355.648224 665.255676,373.279236 
	C667.403381,373.365356 666.872925,371.765106 667.033203,370.816284 
	C670.303406,351.458588 673.625977,332.108459 676.661865,312.713593 
	C677.189575,309.342712 678.339661,308.369354 681.669373,308.392639 
	C691.231079,308.459534 691.179382,308.319611 692.861877,318.465942 
	C695.959961,337.148438 699.126587,355.819550 703.271790,374.572449 
	C704.170471,367.906860 705.113098,361.246857 705.958679,354.574524 
	C707.737366,340.538116 709.522217,326.501984 711.168945,312.449829 
	C711.532166,309.350952 712.803162,308.402985 715.948914,308.391144 
	C728.432556,308.344116 728.580017,308.246643 726.889648,320.345490 
	C722.583679,351.165314 718.064026,381.955444 713.819763,412.783569 
	C713.238708,417.004028 711.804077,418.451996 707.370117,418.303619 
	C696.539856,417.941254 696.627686,418.178284 694.857239,407.562164 
	C691.737366,388.855133 688.489014,370.169586 685.285461,351.476562 
	C685.125732,350.544373 684.881226,349.626740 684.035156,348.681061 
	C682.053284,360.296051 680.050415,371.907501 678.095886,383.527100 
	C676.356873,393.865417 674.602295,404.202087 673.011169,414.563538 
	C672.614746,417.144836 671.735840,418.170532 668.924438,418.256592 
	C655.646667,418.663116 655.682007,418.754333 653.820007,405.588440 
	C652.305176,394.876770 650.700500,384.177795 649.075317,373.034882 
z"/>
<path fill="#FCFEFC" opacity="1.000000" stroke="none" 
	d="
M1019.006470,384.161133 
	C1018.920410,387.627289 1019.138550,390.667938 1018.696655,393.609436 
	C1016.271057,409.757935 1006.473999,418.092590 989.992981,418.168640 
	C980.161743,418.214020 970.328979,418.092560 960.499390,418.229645 
	C957.753723,418.267944 956.757996,417.556000 956.765869,414.633240 
	C956.857788,380.473328 956.852539,346.313049 956.771973,312.153076 
	C956.765381,309.338013 957.601990,308.349457 960.452271,308.436432 
	C970.771362,308.751343 981.105774,308.045074 991.421387,308.932404 
	C1012.446045,310.741028 1023.652588,333.686371 1012.329773,351.743835 
	C1010.003784,355.453278 1006.476440,357.525452 1001.750732,359.380585 
	C1014.194397,363.306061 1018.553772,372.190338 1019.006470,384.161133 
z"/>
<path fill="#FAFCF9" opacity="1.000000" stroke="none" 
	d="
M504.800751,363.805725 
	C504.809692,346.492523 504.906128,329.660187 504.734558,312.830566 
	C504.698975,309.339447 505.685059,308.363647 509.182892,308.375977 
	C521.536438,308.419525 521.536926,308.282013 521.536926,320.523895 
	C521.536804,351.520294 521.474365,382.517029 521.619568,413.512726 
	C521.636658,417.167999 520.815613,418.381592 516.975708,418.288330 
	C508.221344,418.075684 508.222870,418.290680 504.923004,410.337677 
	C498.232513,394.212921 491.553223,378.083435 484.808167,361.981506 
	C484.145752,360.400116 483.884949,358.517334 482.237640,357.273621 
	C481.022522,359.059875 481.571594,360.907440 481.566650,362.626068 
	C481.517578,379.623962 481.407928,396.623749 481.634552,413.618774 
	C481.685944,417.473907 480.515930,418.631409 476.863403,418.228882 
	C472.755249,417.776154 467.273285,419.948059 464.868225,417.309540 
	C462.834595,415.078583 464.161560,409.700989 464.158142,405.715851 
	C464.131775,375.052734 464.216400,344.389282 464.055695,313.726990 
	C464.034576,309.701111 464.911011,308.166626 469.220398,308.376160 
	C480.406403,308.920074 477.274963,306.562988 481.737915,316.590485 
	C488.633240,332.083099 495.220398,347.712738 501.980042,363.266113 
	C502.458710,364.367462 502.436554,366.056152 504.231262,366.026550 
	C504.428040,366.023346 504.606293,364.894348 504.800751,363.805725 
z"/>
<path fill="#FDFEFC" opacity="1.000000" stroke="none" 
	d="
M536.993652,406.980713 
	C536.993652,375.511810 537.081543,344.540161 536.890442,313.570251 
	C536.864502,309.355713 537.993469,308.186523 542.138245,308.396027 
	C553.419373,308.966156 564.809509,307.430176 575.998352,309.705200 
	C588.943909,312.337402 595.980652,319.709473 596.864197,332.885651 
	C598.200806,352.818146 598.253784,372.831635 596.841187,392.757538 
	C595.755615,408.071472 586.279175,417.031738 570.922363,417.908142 
	C560.630920,418.495514 550.283386,418.053162 539.963257,418.217987 
	C537.440735,418.258240 536.835510,417.222229 536.963013,414.969757 
	C537.103943,412.480072 536.994202,409.976196 536.993652,406.980713 
z"/>
<path fill="#FDFEFD" opacity="1.000000" stroke="none" 
	d="
M619.995117,189.000000 
	C619.995178,170.166855 620.088684,151.832840 619.913879,133.501358 
	C619.880188,129.967575 620.889648,128.952728 624.381775,129.085968 
	C634.859253,129.485764 645.360901,128.688629 655.832092,129.943253 
	C670.475281,131.697723 679.028320,139.901962 679.926697,154.551468 
	C681.109985,173.845581 681.123413,193.196991 679.925537,212.490265 
	C678.921875,228.655243 669.592407,237.874115 653.484192,238.832001 
	C643.351318,239.434570 633.159302,238.977020 622.999695,239.230759 
	C619.406494,239.320511 619.997314,237.102051 619.996887,234.999512 
	C619.993958,219.833008 619.995178,204.666504 619.995117,189.000000 
z"/>
<path fill="#FBFDFB" opacity="1.000000" stroke="none" 
	d="
M527.173462,142.925629 
	C529.899170,148.989243 530.931763,155.051987 530.973572,161.243164 
	C531.077148,176.570175 531.089294,191.899094 530.948364,207.225510 
	C530.914917,210.860748 530.432190,214.554642 529.646851,218.109055 
	C526.591797,231.935913 518.619202,238.758362 504.408417,240.253357 
	C499.552155,240.764221 494.727295,240.614838 489.980957,239.749405 
	C477.209930,237.420761 469.225128,228.381729 468.168396,213.549988 
	C466.759674,193.777374 466.585236,173.900482 468.211761,154.149124 
	C469.808228,134.762680 484.298767,125.281128 505.636902,128.346649 
	C515.080688,129.703384 522.832336,133.416992 527.173462,142.925629 
z"/>
<path fill="#FEFEFE" opacity="1.000000" stroke="none" 
	d="
M1041.829346,148.000610 
	C1041.830444,142.501846 1041.943848,137.499405 1041.787109,132.505447 
	C1041.703857,129.855865 1042.694702,129.018707 1045.269897,129.117294 
	C1049.595947,129.282898 1053.946655,129.372025 1058.260986,129.092682 
	C1061.541748,128.880264 1062.089355,130.259796 1062.058716,133.148788 
	C1061.926514,145.644699 1062.173706,158.146545 1061.900635,170.637878 
	C1061.815918,174.515839 1063.015137,175.490204 1066.660767,175.234909 
	C1071.137817,174.921356 1075.663574,174.977448 1080.149170,175.222656 
	C1083.214355,175.390213 1084.115723,174.442352 1084.071289,171.330597 
	C1083.892700,158.835846 1084.137329,146.334503 1083.911133,133.841309 
	C1083.844971,130.187439 1084.665405,128.704193 1088.549194,129.096863 
	C1093.487427,129.596146 1099.992554,127.094406 1103.042847,129.975266 
	C1106.377563,133.124832 1104.099121,139.728836 1104.117554,144.809845 
	C1104.225830,174.636337 1104.098267,204.463837 1104.258789,234.289856 
	C1104.279663,238.175262 1103.333008,239.619995 1099.328247,239.246826 
	C1095.528687,238.892807 1091.657837,238.978989 1087.841919,239.230331 
	C1084.766846,239.432892 1083.886108,238.437881 1083.924561,235.335175 
	C1084.093994,221.673569 1083.835205,208.005524 1084.097900,194.346863 
	C1084.175171,190.325348 1082.932617,189.169815 1079.089478,189.442215 
	C1074.778687,189.747726 1070.417358,189.714111 1066.101318,189.448853 
	C1062.785278,189.245026 1061.891357,190.403625 1061.931519,193.654419 
	C1062.099976,207.316040 1061.843750,220.983978 1062.103271,234.642761 
	C1062.176758,238.509811 1061.003784,239.554153 1057.348022,239.239319 
	C1053.709106,238.925964 1049.994507,238.889435 1046.363892,239.246811 
	C1042.454834,239.631546 1041.731812,238.084900 1041.749756,234.481445 
	C1041.892700,205.821701 1041.829346,177.160934 1041.829346,148.000610 
z"/>
<path fill="#FEFEFE" opacity="1.000000" stroke="none" 
	d="
M726.829224,165.999908 
	C726.829346,154.835526 726.971313,144.168228 726.749939,133.508469 
	C726.676025,129.950043 727.809326,128.845306 731.269592,129.097351 
	C735.081848,129.375046 738.950867,129.409653 742.756470,129.089722 
	C746.453064,128.778961 747.120972,130.321564 747.073181,133.646103 
	C746.895630,145.974213 747.174927,158.310242 746.901062,170.634827 
	C746.815002,174.507553 748.006775,175.491928 751.657776,175.235153 
	C756.134705,174.920303 760.660461,174.978394 765.146179,175.222443 
	C768.206360,175.388947 769.116150,174.450058 769.071411,171.333588 
	C768.892090,158.838867 769.136536,146.337555 768.911194,133.844315 
	C768.845398,130.195312 769.657166,128.703217 773.546204,129.096573 
	C778.484497,129.596085 784.988525,127.095490 788.040833,129.973648 
	C791.379333,133.121567 789.098877,139.726288 789.117371,144.806839 
	C789.226013,174.633331 789.098816,204.460800 789.258484,234.286835 
	C789.279236,238.166199 788.342407,239.622467 784.331238,239.247101 
	C780.531982,238.891571 776.660889,238.979782 772.844849,239.230103 
	C769.774780,239.431488 768.885925,238.445389 768.924622,235.338226 
	C769.094604,221.676636 768.836243,208.008606 769.097595,194.349899 
	C769.174438,190.334381 767.941589,189.167664 764.092529,189.441895 
	C759.781982,189.749008 755.420471,189.713470 751.104309,189.448959 
	C747.792786,189.246017 746.890808,190.395737 746.931152,193.651276 
	C747.100464,207.312897 746.844543,220.980820 747.102966,234.639633 
	C747.175964,238.500671 746.012695,239.545242 742.351196,239.241135 
	C738.544922,238.924988 734.675171,238.947586 730.864563,239.236450 
	C727.452698,239.495071 726.750854,238.129379 726.766907,234.984589 
	C726.883667,212.156845 726.829407,189.328247 726.829224,165.999908 
z"/>
<path fill="#FCFEFC" opacity="1.000000" stroke="none" 
	d="
M597.978516,136.008148 
	C604.044373,142.895737 606.015625,150.924026 606.114197,159.403061 
	C606.306030,175.895859 606.209473,192.392654 606.145569,208.887451 
	C606.124817,214.253845 605.079285,219.469193 603.005127,224.443848 
	C599.696838,232.378799 593.895752,237.387863 585.479553,239.316574 
	C577.535400,241.137100 569.579468,241.072845 561.766907,238.859268 
	C554.048889,236.672485 548.880737,231.482239 546.061951,224.006332 
	C544.109863,218.829224 543.009277,213.458038 543.001465,207.907974 
	C542.978882,191.912781 542.999512,175.917542 542.989441,159.922318 
	C542.987000,156.063721 543.628235,152.289429 544.582214,148.581436 
	C547.489990,137.279022 554.503784,130.408157 566.272217,128.771729 
	C577.629211,127.192497 588.574829,127.465546 597.978516,136.008148 
z"/>
<path fill="#FDFEFC" opacity="1.000000" stroke="none" 
	d="
M1161.552734,361.361542 
	C1162.255127,362.915985 1162.750854,364.151367 1163.290527,365.367249 
	C1163.553223,365.959259 1163.898071,366.514862 1164.449219,367.539856 
	C1165.554443,365.996338 1165.127563,364.511017 1165.130371,363.202759 
	C1165.167358,346.537262 1165.269531,329.870270 1165.066650,313.207153 
	C1165.021484,309.497620 1165.979736,308.372284 1169.759399,308.388489 
	C1182.005615,308.441101 1182.006226,308.286377 1182.006226,320.469604 
	C1182.006226,351.300934 1181.933350,382.132660 1182.096069,412.963104 
	C1182.116943,416.923889 1181.434692,418.480469 1177.038696,418.292267 
	C1168.649170,417.933136 1168.620972,418.223602 1165.378296,410.422943 
	C1157.916626,392.472595 1150.472046,374.515076 1142.831543,356.104767 
	C1141.321411,357.635651 1141.881348,359.173218 1141.877808,360.456635 
	C1141.829590,378.122040 1141.746704,395.788574 1141.926392,413.452271 
	C1141.963257,417.078827 1141.152954,418.313599 1137.281494,418.278015 
	C1124.825562,418.163513 1124.823975,418.335388 1124.823975,405.916382 
	C1124.823975,375.085052 1124.892090,344.253387 1124.738037,313.422821 
	C1124.718628,309.543060 1125.778687,308.634430 1129.666626,308.298706 
	C1136.460205,307.712067 1139.849731,309.932831 1142.376953,316.539062 
	C1148.134644,331.589447 1154.968018,346.228363 1161.552734,361.361542 
z"/>
<path fill="#FCFEFC" opacity="1.000000" stroke="none" 
	d="
M1195.998901,338.197601 
	C1196.375488,335.086517 1196.588745,332.416901 1197.139282,329.818665 
	C1200.036377,316.142548 1207.207520,309.588806 1221.105225,307.558716 
	C1226.803101,306.726440 1232.440430,307.094330 1237.980835,308.317108 
	C1249.393188,310.835815 1255.675171,318.623505 1257.086670,331.546753 
	C1258.556763,345.007965 1258.556641,345.007935 1245.277100,345.007141 
	C1238.175781,345.006714 1238.189575,345.006653 1238.145020,337.907013 
	C1238.132446,335.909760 1238.132690,333.900391 1237.921021,331.918610 
	C1237.236206,325.509125 1234.139648,322.503693 1228.055786,322.190918 
	C1221.886475,321.873779 1218.095825,324.958282 1216.908936,331.199768 
	C1215.872559,336.649872 1216.084839,342.159424 1216.207153,347.644897 
	C1216.555542,363.286285 1215.097534,378.974609 1217.044189,394.564484 
	C1218.043457,402.566895 1223.123047,405.834290 1230.776611,404.279510 
	C1235.319336,403.356659 1237.459473,400.190247 1238.653442,396.167175 
	C1240.436768,390.157806 1239.920410,383.953613 1240.003052,377.800354 
	C1240.033081,375.559357 1238.617065,375.635681 1237.045410,375.511383 
	C1227.464600,374.753815 1227.530151,374.736420 1228.107666,365.585327 
	C1228.233521,363.591614 1228.621826,362.461243 1230.871338,362.475189 
	C1239.034912,362.525818 1247.199463,362.535522 1255.362793,362.464264 
	C1257.566162,362.445068 1258.207520,363.379639 1258.200806,365.466736 
	C1258.147339,382.127869 1258.156494,398.789246 1258.189941,415.450470 
	C1258.193604,417.251495 1257.724609,418.365173 1255.686890,418.166809 
	C1255.522095,418.150757 1255.353394,418.161194 1255.187500,418.173737 
	C1245.628906,418.898285 1245.628906,418.898468 1243.407593,409.732513 
	C1231.791260,422.595581 1213.227051,423.287872 1203.351807,411.064850 
	C1198.115967,404.584351 1196.242310,396.703827 1196.089722,388.643524 
	C1195.774170,371.991699 1195.992310,355.329742 1195.998901,338.197601 
z"/>
<path fill="#FDFEFC" opacity="1.000000" stroke="none" 
	d="
M424.993591,188.104187 
	C424.476654,184.312592 425.558990,182.928329 429.240082,183.069626 
	C436.726257,183.357010 444.232697,183.242371 451.727570,183.110153 
	C454.288666,183.064987 455.233215,183.839386 455.218567,186.491653 
	C455.127441,202.984985 455.141785,219.479202 455.208527,235.972763 
	C455.217682,238.237045 454.658569,239.496521 452.162781,239.180862 
	C451.671021,239.118652 451.164307,239.170914 450.664520,239.176468 
	C442.166565,239.270844 442.166565,239.271072 440.612976,231.016510 
	C440.311005,230.990433 439.810150,230.848541 439.734406,230.970520 
	C433.814545,240.507126 424.906097,241.783112 414.864838,240.071625 
	C405.007996,238.391617 398.852905,232.543961 395.680328,223.258057 
	C393.669250,217.371796 392.813293,211.310669 392.819702,205.104538 
	C392.833984,191.276382 392.790344,177.448059 392.837891,163.620056 
	C392.863251,156.246857 393.791046,149.049515 396.976166,142.246216 
	C401.465424,132.657120 409.649445,129.119049 419.474792,128.172867 
	C424.649719,127.674530 429.800323,128.022110 434.872925,129.125778 
	C444.398621,131.198318 450.374268,137.044327 452.928375,146.422882 
	C453.234436,147.546753 453.605896,148.672134 453.737610,149.820847 
	C454.322845,154.924484 456.793793,161.808517 453.613007,164.707352 
	C449.874420,168.114594 442.862701,165.588577 437.276672,165.781601 
	C434.652618,165.872284 435.233368,163.709229 435.166565,162.151337 
	C434.988861,158.008621 435.346649,153.862900 434.288269,149.742050 
	C433.073944,145.013962 429.650787,143.406921 425.424530,143.114426 
	C421.066162,142.812744 417.070923,143.806458 415.024719,148.320068 
	C413.479065,151.729614 413.212982,155.406693 413.200836,159.065063 
	C413.146118,175.558731 413.136780,192.052887 413.218750,208.546341 
	C413.231873,211.190689 413.616028,213.867386 414.134583,216.468140 
	C415.299408,222.310455 418.397675,225.063065 423.870148,225.431732 
	C429.598694,225.817657 433.337555,223.350327 435.276917,217.825470 
	C437.481720,211.544571 436.923004,205.010071 436.978851,198.532761 
	C436.992096,196.995148 436.135010,196.526932 434.776337,196.549652 
	C434.110474,196.560791 433.443878,196.534500 432.777710,196.521072 
	C424.993835,196.364136 424.993835,196.363922 424.993591,188.104187 
z"/>
<path fill="#FCFEFC" opacity="1.000000" stroke="none" 
	d="
M876.184875,141.120941 
	C878.907104,129.153931 878.907104,129.153931 890.923889,129.153961 
	C899.598267,129.153976 899.642151,129.145081 901.381042,137.704376 
	C907.971436,170.145859 914.477600,202.604660 921.183044,235.022247 
	C921.863342,238.310944 921.511108,239.482635 917.940674,239.231079 
	C913.146179,238.893311 907.242126,240.588318 903.826965,238.345734 
	C900.575928,236.210892 901.599243,229.789200 900.737244,225.254974 
	C898.568787,213.848740 898.578491,214.152878 886.802490,213.707382 
	C881.448975,213.504822 879.081604,214.826920 878.717773,220.437881 
	C878.375488,225.715652 876.830200,230.905487 876.061829,236.170151 
	C875.723389,238.488602 874.740356,239.272232 872.489319,239.206345 
	C868.493713,239.089401 864.471802,238.926270 860.498840,239.249115 
	C856.758484,239.553085 856.464600,237.921188 857.086548,234.922592 
	C860.904602,216.515900 864.653076,198.094727 868.403015,179.673965 
	C870.989990,166.966034 873.541992,154.250992 876.184875,141.120941 
z"/>
<path fill="#FCFEFC" opacity="1.000000" stroke="none" 
	d="
M449.165039,392.644684 
	C450.724579,400.234833 452.098694,407.432434 453.756927,414.563995 
	C454.470428,417.632629 453.427399,418.417267 450.585724,418.210236 
	C448.264740,418.041168 445.921631,418.177185 443.588318,418.177185 
	C435.370728,418.177277 435.386078,418.174622 434.086761,410.334595 
	C433.488495,406.724823 432.327637,403.132355 432.289612,399.522919 
	C432.228180,393.690887 429.421936,392.709595 424.222778,392.883453 
	C412.473175,393.276367 412.498627,393.013245 410.283600,404.404938 
	C409.406067,408.918243 410.477081,415.086182 407.063293,417.459564 
	C403.995911,419.592163 398.373840,417.843201 393.918091,418.244232 
	C389.490173,418.642792 388.835266,417.405182 389.748688,413.033508 
	C396.724823,379.645020 403.405731,346.194641 410.094879,312.746765 
	C410.697418,309.733948 411.664703,308.120850 415.195343,308.396332 
	C420.648590,308.821808 427.417114,306.784729 431.270081,309.342987 
	C435.253082,311.987518 434.311981,319.395233 435.421783,324.723419 
	C440.102905,347.198364 444.557373,369.720490 449.165039,392.644684 
z"/>
<path fill="#F9FCF9" opacity="1.000000" stroke="none" 
	d="
M762.999146,418.189240 
	C756.173157,418.187683 749.845398,418.102234 743.521790,418.226135 
	C741.013245,418.275269 740.078491,417.587860 740.085571,414.874084 
	C740.174683,380.580383 740.164551,346.286285 740.101624,311.992462 
	C740.097046,309.481293 740.773621,308.411133 743.443359,308.428680 
	C756.594360,308.515167 769.746826,308.531006 782.897278,308.410583 
	C785.606445,308.385803 786.157532,309.411285 786.246277,311.897858 
	C786.637451,322.860382 786.716675,322.857269 775.971008,322.857727 
	C771.975586,322.857880 767.975281,322.979919 763.986511,322.817657 
	C761.427917,322.713562 760.458862,323.551208 760.500183,326.196930 
	C760.627380,334.352234 760.628723,342.512054 760.498291,350.667267 
	C760.456055,353.305267 761.392029,354.123383 763.962402,354.030548 
	C768.617615,353.862335 773.286926,354.094727 777.943054,353.940643 
	C780.332520,353.861511 780.967163,354.680176 781.079712,357.047272 
	C781.626404,368.542419 781.706421,368.538605 770.281982,368.538727 
	C760.538879,368.538849 760.538879,368.538818 760.538757,378.153107 
	C760.538635,384.479156 760.496216,390.805603 760.549377,397.131195 
	C760.618103,405.315796 759.696655,404.028198 767.304382,404.129395 
	C772.464233,404.198059 777.629578,404.263153 782.784912,404.095856 
	C785.626343,404.003662 786.891052,404.620972 786.943481,407.884796 
	C787.109009,418.191681 787.258179,418.189270 776.983643,418.189270 
	C772.488770,418.189240 767.993958,418.189240 762.999146,418.189240 
z"/>
<path fill="#FBFDFA" opacity="1.000000" stroke="none" 
	d="
M1051.185425,400.069885 
	C1050.736572,403.476807 1052.093262,404.265167 1054.843994,404.195740 
	C1061.172241,404.036072 1067.510864,404.272064 1073.838135,404.092072 
	C1076.684692,404.011078 1077.498535,404.996918 1077.594360,407.787292 
	C1077.951294,418.187653 1078.050903,418.184387 1067.693848,418.184204 
	C1056.862183,418.184021 1046.028442,418.062988 1035.200317,418.255615 
	C1031.891479,418.314423 1031.068359,417.257599 1031.078857,414.039825 
	C1031.190308,380.212158 1031.202881,346.383728 1031.065186,312.556244 
	C1031.050903,309.064789 1032.317871,308.391815 1035.395142,308.420624 
	C1048.058716,308.539154 1060.725708,308.577667 1073.387695,308.395447 
	C1076.586182,308.349457 1077.224487,309.460876 1077.253418,312.404663 
	C1077.355957,322.853607 1077.466187,322.852478 1066.938721,322.852570 
	C1063.105957,322.852631 1059.255127,323.085480 1055.445801,322.786469 
	C1051.810791,322.501129 1051.005371,323.958954 1051.111328,327.327209 
	C1051.347046,334.818634 1051.313721,342.325806 1051.123291,349.819824 
	C1051.044556,352.918274 1051.718872,354.301147 1055.171631,354.062927 
	C1059.649536,353.753967 1064.167725,354.081543 1068.663208,353.952179 
	C1070.968750,353.885834 1071.773804,354.583008 1071.917480,357.024963 
	C1072.594971,368.536041 1072.680664,368.531006 1061.023926,368.531189 
	C1051.184204,368.531342 1051.184082,368.531342 1051.184204,378.565369 
	C1051.184204,385.564331 1051.184448,392.563263 1051.185425,400.069885 
z"/>
<path fill="#FDFEFD" opacity="1.000000" stroke="none" 
	d="
M826.364746,144.019669 
	C824.272400,153.696075 825.590698,163.322540 825.200806,172.907043 
	C825.106140,175.233688 826.828735,174.983704 828.310791,174.987915 
	C832.974426,175.001205 837.640442,175.082611 842.300781,174.959290 
	C844.682739,174.896255 845.797974,175.358734 845.921204,178.172623 
	C846.403625,189.179504 846.521301,189.174347 835.570435,189.174347 
	C825.174438,189.174347 825.174316,189.174347 825.174377,199.582870 
	C825.174377,206.744904 825.341736,213.912552 825.101562,221.066513 
	C824.988647,224.430054 826.140625,225.343506 829.367371,225.223038 
	C835.521423,224.993271 841.694275,225.288330 847.851135,225.100189 
	C850.727112,225.012299 851.485901,226.055664 851.578247,228.815582 
	C851.924866,239.177567 852.021179,239.174500 841.585999,239.174301 
	C830.593079,239.174103 819.599182,239.091690 808.608032,239.230011 
	C805.820679,239.265076 804.930664,238.473251 804.938171,235.612671 
	C805.027710,201.301727 805.029724,166.990387 804.936279,132.679474 
	C804.928223,129.726059 805.981445,129.082016 808.696716,129.106201 
	C821.687256,129.221878 834.679810,129.208725 847.670715,129.115402 
	C850.162964,129.097519 851.112671,129.732147 851.242859,132.430923 
	C851.793762,143.847870 851.892456,143.838242 840.312195,143.845566 
	C835.815430,143.848419 831.318726,143.878830 826.364746,144.019669 
z"/>
<path fill="#FDFEFD" opacity="1.000000" stroke="none" 
	d="
M980.459656,129.162064 
	C997.067932,129.157974 1013.218811,129.245224 1029.367188,129.086380 
	C1032.766357,129.052948 1033.954346,129.890137 1033.933228,133.490875 
	C1033.870483,144.172623 1034.032959,144.173569 1023.264099,144.174362 
	C1022.265137,144.174438 1021.245850,144.304291 1020.270813,144.151642 
	C1016.631775,143.581940 1015.920654,145.277771 1015.935120,148.631439 
	C1016.057617,177.101517 1015.916382,205.572922 1016.103943,234.042297 
	C1016.130859,238.133850 1015.218689,239.750717 1010.961365,239.229919 
	C1006.072083,238.631805 999.483032,241.301361 996.673523,238.099915 
	C994.241577,235.328812 995.849548,228.925659 995.842468,224.127655 
	C995.806396,199.652985 995.847229,175.178177 995.812561,150.703491 
	C995.802063,143.259369 996.665100,144.269669 989.050232,144.175446 
	C988.384338,144.167206 987.708679,144.247498 987.053955,144.161850 
	C983.997559,143.762039 979.497131,145.765976 978.161438,143.225052 
	C976.239929,139.569656 977.419434,134.783722 977.700623,130.483749 
	C977.785767,129.182816 978.998962,129.206329 980.459656,129.162064 
z"/>
<path fill="#F7FBF6" opacity="1.000000" stroke="none" 
	d="
M854.879028,418.099548 
	C852.727173,416.816650 853.488647,414.991760 853.486389,413.451965 
	C853.436829,380.171051 853.523254,346.889618 853.355347,313.609436 
	C853.334045,309.395416 854.584229,307.991821 858.698059,308.384888 
	C861.996033,308.699951 865.376221,308.720398 868.669128,308.379974 
	C872.787292,307.954254 873.646484,309.668365 873.627563,313.478271 
	C873.487061,341.766479 873.687927,370.056915 873.423828,398.343323 
	C873.377258,403.326080 874.848511,404.589996 879.546631,404.231262 
	C885.006165,403.814362 890.524170,404.227295 896.012329,404.094543 
	C898.608826,404.031769 899.841736,404.549103 899.945984,407.595398 
	C900.309021,418.202362 900.440125,418.203674 889.754761,418.196320 
	C878.273010,418.188385 866.791321,418.168091 854.879028,418.099548 
z"/>
<path fill="#F9FCF9" opacity="1.000000" stroke="none" 
	d="
M797.142395,347.999939 
	C797.142395,336.180786 797.337341,324.856598 797.042480,313.545105 
	C796.931274,309.278900 798.325989,308.009521 802.394348,308.393890 
	C805.859009,308.721252 809.400269,308.701477 812.869202,308.397308 
	C816.684143,308.062836 817.643921,309.521332 817.616577,313.205658 
	C817.456970,334.677551 817.538452,356.151245 817.538696,377.624329 
	C817.538818,384.948486 817.764587,392.282379 817.448792,399.592865 
	C817.280701,403.484070 818.667786,404.391754 822.277588,404.217529 
	C828.090027,403.937012 833.933594,404.321289 839.749146,404.074738 
	C843.103760,403.932526 843.932800,405.136475 843.933838,408.350433 
	C843.937012,418.189270 844.071838,418.189270 834.020813,418.189270 
	C823.367493,418.189270 812.711121,418.043396 802.062500,418.267822 
	C798.315430,418.346832 796.997131,417.495880 797.038757,413.417419 
	C797.259644,391.780151 797.142456,370.139465 797.142395,347.999939 
z"/>
<path fill="#FEFEFE" opacity="1.000000" stroke="none" 
	d="
M931.829224,193.999908 
	C931.829346,173.512833 931.909790,153.525162 931.753906,133.539322 
	C931.726562,130.037567 932.730347,128.834381 936.234436,129.096146 
	C940.044067,129.380753 943.911194,129.403381 947.716431,129.090897 
	C951.351135,128.792419 952.088501,130.222183 952.073853,133.601608 
	C951.949036,162.415741 952.091675,191.231247 951.901794,220.044662 
	C951.874695,224.163239 952.828674,225.541306 957.062988,225.257599 
	C962.866394,224.868759 968.720032,225.296616 974.543213,225.104584 
	C977.417969,225.009766 978.172241,226.017517 978.238770,228.812103 
	C978.485291,239.173370 978.590393,239.170914 968.324036,239.170868 
	C957.664246,239.170807 946.999268,238.979492 936.347473,239.270706 
	C932.439758,239.377548 931.692749,238.063583 931.747864,234.472748 
	C931.952271,221.151199 931.829285,207.824600 931.829224,193.999908 
z"/>
<path fill="#FCFEFC" opacity="1.000000" stroke="none" 
	d="
M1088.822876,320.025269 
	C1088.822876,308.478394 1088.822876,308.478394 1100.058594,308.478638 
	C1108.846191,308.478821 1108.846191,308.478821 1108.846191,317.510101 
	C1108.846069,349.319946 1108.773560,381.130127 1108.936890,412.939148 
	C1108.957520,416.965454 1108.121948,418.714905 1103.796875,418.239105 
	C1099.037720,417.715576 1092.829590,420.167572 1089.807251,417.350464 
	C1086.726196,414.478638 1088.888916,408.219604 1088.871826,403.458466 
	C1088.771973,375.812592 1088.822876,348.166199 1088.822876,320.025269 
z"/>
<path fill="#F7FBF6" opacity="1.000000" stroke="none" 
	d="
M909.003540,370.414612 
	C909.412598,368.026855 910.996399,368.483887 912.215515,368.477570 
	C920.870544,368.432983 929.526978,368.528290 938.180603,368.407654 
	C940.931396,368.369324 941.993774,369.201202 941.916870,372.097687 
	C941.609680,383.674164 943.333496,381.310425 933.002563,381.527039 
	C926.680298,381.659637 920.335999,381.269318 914.033936,381.649414 
	C909.750061,381.907806 908.371033,380.422699 908.936096,376.357025 
	C909.185852,374.560547 908.982178,372.700989 909.003540,370.414612 
z"/>
<path fill="#4D9F39" opacity="1.000000" stroke="none" 
	d="
M977.276611,368.197144 
	C993.662292,366.186615 1001.300903,371.136749 999.441956,390.526215 
	C998.390442,401.493103 989.273193,406.978851 978.479736,404.005737 
	C976.191101,403.375366 976.882690,401.777435 976.880615,400.483521 
	C976.863647,389.853516 976.937012,379.223419 977.276611,368.197144 
z"/>
<path fill="#4D9F39" opacity="1.000000" stroke="none" 
	d="
M976.843689,328.090973 
	C976.307739,324.124817 977.279175,322.162109 981.300903,322.806366 
	C983.260559,323.120270 985.302124,322.896515 987.276550,323.150146 
	C994.575256,324.087769 997.769531,327.617279 998.109314,335.016205 
	C998.177917,336.510956 998.160583,338.015778 998.079773,339.510345 
	C997.502441,350.192627 988.762085,356.194092 978.456055,353.147186 
	C976.209473,352.483002 976.894104,350.880066 976.880127,349.569305 
	C976.805847,342.574066 976.844238,335.577637 976.843689,328.090973 
z"/>
<path fill="#4FA13B" opacity="1.000000" stroke="none" 
	d="
M557.166504,327.244568 
	C556.835083,324.162781 557.541687,322.668121 560.615173,322.954712 
	C563.416992,323.215973 566.250854,322.899994 569.038391,323.663574 
	C572.939453,324.732117 575.811829,326.985687 576.106018,331.089783 
	C577.641296,352.507263 577.756165,373.960693 576.030334,395.354187 
	C575.492859,402.016663 565.113647,406.534119 558.514465,403.913391 
	C556.231934,403.006989 557.220459,401.074066 557.216003,399.627106 
	C557.145264,376.822693 557.166199,354.018036 557.166077,331.213409 
	C557.166077,330.048218 557.166138,328.883026 557.166504,327.244568 
z"/>
<path fill="#4FA13B" opacity="1.000000" stroke="none" 
	d="
M640.164062,211.985168 
	C640.164124,190.676773 640.273010,169.865097 640.070312,149.056427 
	C640.030884,145.010147 640.939575,143.558929 645.218994,143.749771 
	C656.555237,144.255310 659.820435,147.107254 659.943787,158.469574 
	C660.124573,175.116058 660.003479,191.765961 659.976501,208.414352 
	C659.973816,210.071701 659.815979,211.740189 659.588440,213.383881 
	C658.339233,222.405716 650.580444,227.401108 641.838684,225.022461 
	C639.896729,224.494049 640.200806,223.227615 640.182617,221.972397 
	C640.136658,218.809814 640.165344,215.646149 640.164062,211.985168 
z"/>
<path fill="#4D9F39" opacity="1.000000" stroke="none" 
	d="
M493.573242,144.245544 
	C504.119720,141.043610 509.670715,144.497498 510.083832,155.055344 
	C510.858765,174.858704 510.915100,194.689667 510.024902,214.493134 
	C509.657623,222.663284 504.728455,226.364929 497.140076,225.248260 
	C492.869598,224.619843 490.179474,222.328384 489.087372,218.168457 
	C488.278992,215.089218 488.003448,211.946548 488.005066,208.768799 
	C488.013367,192.272903 487.914734,175.776169 488.062683,159.281586 
	C488.111420,153.850861 487.862183,148.101959 493.573242,144.245544 
z"/>
<path fill="#4FA13B" opacity="1.000000" stroke="none" 
	d="
M577.495544,225.099976 
	C568.335938,225.929047 564.249146,223.086700 563.896057,214.359360 
	C563.081482,194.222244 563.136536,174.053741 563.879272,153.913010 
	C564.161377,146.261841 567.614380,143.212479 574.222900,143.017822 
	C580.840393,142.822891 584.155090,145.804703 585.409363,153.142136 
	C585.632874,154.449631 585.811523,155.784592 585.813416,157.107162 
	C585.839783,175.103439 585.976562,193.101624 585.747681,211.095032 
	C585.673767,216.901337 585.292297,223.079056 577.495544,225.099976 
z"/>
<path fill="#55A442" opacity="1.000000" stroke="none" 
	d="
M886.830933,171.732788 
	C887.753357,167.136047 887.705139,162.771439 889.542664,158.220810 
	C891.696594,171.120087 893.677002,183.429871 895.848633,195.705811 
	C896.484070,199.298126 895.816467,200.708893 891.727905,200.638031 
	C882.016052,200.469696 882.036011,200.691467 883.713440,190.869553 
	C884.777039,184.641724 885.756897,178.399597 886.830933,171.732788 
z"/>
<path fill="#55A442" opacity="1.000000" stroke="none" 
	d="
M419.457153,349.382812 
	C420.142242,345.377533 420.718384,341.793518 421.294495,338.209473 
	C421.554810,338.183807 421.815125,338.158112 422.075439,338.132446 
	C423.709564,347.925476 425.345581,357.718201 426.973724,367.512238 
	C427.082855,368.168579 427.104279,368.839508 427.213898,369.495758 
	C429.046814,380.468445 429.054077,380.287354 418.111969,379.950745 
	C414.204254,379.830505 414.775085,377.771545 415.156158,375.415833 
	C416.537659,366.876007 417.948425,358.340942 419.457153,349.382812 
z"/>
</svg>