<svg version="1.1" id="Layer_1" xmlns="http://www.w3.org/2000/svg" xmlns:xlink="http://www.w3.org/1999/xlink" x="0px" y="0px"
	 width="100%" viewBox="0 0 1500 1500" enable-background="new 0 0 1500 1500" xml:space="preserve">
<path fill="#A21942" opacity="1.000000" stroke="none" 
	d="
M1.000000,548.000000 
	C1.000000,366.833374 1.013539,186.166718 0.906292,5.500153 
	C0.904067,1.751047 1.750628,0.906395 5.499919,0.907133 
	C502.499817,1.004945 999.499695,1.004939 1496.499634,0.907217 
	C1500.247803,0.906480 1501.093628,1.749693 1501.092896,5.499651 
	C1500.995117,502.499542 1500.995117,999.499451 1501.092773,1496.499390 
	C1501.093506,1500.246948 1500.251099,1501.093628 1496.500610,1501.092896 
	C999.500732,1500.994995 502.500793,1500.994995 5.500920,1501.092651 
	C1.754014,1501.093384 0.905497,1500.252197 0.906697,1496.500854 
	C1.007790,1180.500610 1.000000,864.500305 1.000000,548.000000 
z"/>
<path fill="#FFFEFE" opacity="1.000000" stroke="none" 
	d="
M875.162903,1127.000000 
	C875.162903,1054.003418 875.243530,981.506531 875.076050,909.010254 
	C875.050903,898.132690 878.608643,889.760254 886.699219,882.195068 
	C919.907837,851.142700 952.663086,819.605469 985.590942,788.252808 
	C1003.079895,771.600342 1020.570740,754.949646 1038.096436,738.335876 
	C1039.411621,737.089233 1040.904541,735.933960 1042.505737,735.104492 
	C1046.315918,733.130737 1049.276978,734.346558 1050.880127,738.371399 
	C1051.691284,740.407776 1051.857910,742.545349 1051.857666,744.741333 
	C1051.835571,934.565857 1051.839111,1124.390381 1051.829956,1314.214966 
	C1051.829590,1322.217529 1048.674805,1325.478516 1040.630615,1325.485107 
	C989.299683,1325.527222 937.968750,1325.524536 886.637817,1325.489746 
	C878.096252,1325.483887 875.166016,1322.325317 875.165344,1313.491089 
	C875.160828,1251.494019 875.162903,1189.497070 875.162903,1127.000000 
z"/>
<path fill="#FFFFFF" opacity="1.000000" stroke="none" 
	d="
M832.167419,1082.000000 
	C832.167419,1159.318481 832.168518,1236.137085 832.166077,1312.955566 
	C832.165771,1322.879028 829.629761,1325.496216 819.856384,1325.499023 
	C769.199463,1325.513550 718.542603,1325.515991 667.885681,1325.496460 
	C658.458130,1325.492920 655.834778,1322.774536 655.834534,1313.210938 
	C655.831543,1197.733154 655.825439,1082.255371 655.860962,966.777588 
	C655.862244,962.563599 654.723755,957.263306 659.805908,955.414978 
	C664.524475,953.698914 667.869812,957.760986 670.842346,960.771729 
	C692.376770,982.582336 713.781982,1004.520447 735.252075,1026.394653 
	C740.629211,1031.873169 740.774902,1031.851685 746.237915,1026.357056 
	C769.615173,1002.844604 792.965881,979.305664 816.367981,955.817993 
	C819.612427,952.561768 822.881226,948.061279 828.150024,950.156128 
	C833.372314,952.232422 832.136719,957.643921 832.141602,962.022278 
	C832.185730,1001.848206 832.167419,1041.674072 832.167419,1082.000000 
z"/>
<path fill="#FEFEFE" opacity="1.000000" stroke="none" 
	d="
M797.701538,906.701538 
	C780.248108,924.156067 763.050537,941.366516 745.836914,958.560852 
	C741.431519,962.961365 740.551392,962.952637 736.155151,958.557129 
	C697.268616,919.677063 658.343872,880.834900 619.586182,841.826782 
	C616.354248,838.573853 614.846069,838.106384 611.316589,841.651062 
	C548.997131,904.236877 486.507721,966.653381 424.054291,1029.105713 
	C418.129272,1035.030762 417.867004,1035.026123 411.802216,1028.962769 
	C402.492126,1019.654907 393.170288,1010.358704 383.880219,1001.030823 
	C379.772552,996.906372 379.783264,995.834351 383.981415,991.635437 
	C459.507568,916.096558 535.039978,840.564026 610.578064,765.037109 
	C614.882141,760.733704 615.587524,760.742249 619.869568,765.023438 
	C658.994385,804.141357 698.146667,843.232056 737.161316,882.459595 
	C740.035706,885.349609 741.439636,885.548340 744.434143,882.547546 
	C830.953613,795.848816 917.570618,709.247498 1004.245239,622.703918 
	C1006.631104,620.321655 1006.976379,619.107117 1004.345215,616.605286 
	C996.256470,608.914307 988.505066,600.869568 980.566223,593.019348 
	C978.816406,591.289001 977.356873,589.517822 978.150574,586.919678 
	C978.905701,584.447998 981.115234,584.162415 983.290283,583.674561 
	C1021.911865,575.011902 1060.521240,566.295105 1099.134644,557.595886 
	C1106.250732,555.992676 1108.634644,558.209961 1107.137085,565.223022 
	C1098.766479,604.419434 1090.359985,643.608215 1081.944458,682.794983 
	C1080.756226,688.328430 1077.156128,689.450256 1073.066162,685.436096 
	C1065.098022,677.615906 1057.113403,669.802185 1049.440308,661.697266 
	C1046.667358,658.768311 1045.206299,659.077393 1042.511963,661.777710 
	C976.009216,728.429077 909.415100,794.989258 842.837341,861.565735 
	C827.875244,876.527466 812.913452,891.489624 797.701538,906.701538 
z"/>
<path fill="#FFFFFF" opacity="1.000000" stroke="none" 
	d="
M609.167542,1007.000122 
	C609.167542,1108.961792 609.167847,1210.423462 609.167114,1311.885132 
	C609.167053,1323.320557 606.964233,1325.503418 595.379395,1325.504272 
	C545.398254,1325.508179 495.417145,1325.507935 445.436035,1325.501343 
	C442.278778,1325.500854 439.068909,1325.658691 436.305542,1323.689209 
	C433.243042,1321.506470 432.792542,1318.362183 432.798096,1314.859741 
	C432.854401,1279.373169 432.832397,1243.886475 432.832367,1208.399902 
	C432.832367,1171.247314 432.959351,1134.093872 432.743439,1096.942505 
	C432.689240,1087.611328 435.914307,1080.391602 442.658508,1074.009766 
	C484.498993,1034.417114 526.172852,994.648682 567.904175,954.940674 
	C576.949524,946.333984 586.002258,937.735229 595.056213,929.137573 
	C595.659302,928.564819 596.284180,928.012329 596.926575,927.484131 
	C599.299377,925.533386 601.862122,923.679932 605.055420,925.067322 
	C608.414307,926.526611 609.051697,929.775818 609.105103,933.028931 
	C609.209045,939.358154 609.164307,945.690002 609.165955,952.020752 
	C609.170593,970.180542 609.167542,988.340271 609.167542,1007.000122 
z"/>
<path fill="#FFFEFE" opacity="1.000000" stroke="none" 
	d="
M138.069580,147.084778 
	C150.828171,133.022827 167.073837,127.546326 185.037796,126.207970 
	C196.551544,125.350174 208.046616,125.925529 219.215118,129.120239 
	C242.640518,135.820953 256.790924,151.609512 262.568604,174.905884 
	C266.802063,191.975739 266.534668,209.262070 262.474060,226.347153 
	C258.702698,242.215317 250.469330,255.442627 237.177353,265.528687 
	C257.670563,277.151825 266.123016,295.969666 268.996429,317.825287 
	C271.737762,338.676544 270.914368,359.362762 263.154694,379.282928 
	C254.372849,401.827148 237.940994,415.005463 214.138687,419.091461 
	C198.701523,421.741425 183.310318,421.719238 168.051392,417.988403 
	C146.622498,412.749023 131.545822,399.935730 123.857681,379.209015 
	C115.057274,355.483765 114.027405,331.058167 119.680382,306.511230 
	C123.726036,288.943817 132.946304,274.670837 149.619873,265.622650 
	C130.691467,250.283173 121.676323,230.477783 120.849503,206.773270 
	C120.095032,185.142838 123.028023,164.540161 138.069580,147.084778 
z"/>
<path fill="#FDFAFB" opacity="1.000000" stroke="none" 
	d="
M748.560974,336.309082 
	C751.812439,352.012207 754.947327,367.306549 758.082153,382.600891 
	C758.373413,382.614624 758.664612,382.628357 758.955811,382.642090 
	C761.275940,371.822266 763.609619,361.005310 765.912537,350.181793 
	C768.612183,337.493835 771.359131,324.815033 773.907227,312.096527 
	C774.419373,309.540314 775.229858,308.296661 778.045837,308.420868 
	C782.536438,308.618927 787.050903,308.645569 791.538391,308.414886 
	C794.556946,308.259644 795.037354,309.551483 795.072815,312.210876 
	C795.363647,334.023590 795.791748,355.834442 796.182739,377.645813 
	C796.400635,389.798248 796.520508,401.954041 796.920410,414.100586 
	C797.028625,417.386078 796.077454,418.276398 792.798767,418.265930 
	C782.072388,418.231781 781.716370,418.383881 781.365967,407.750427 
	C780.795776,390.443176 780.756470,373.118622 780.454407,355.802063 
	C780.418701,353.751678 780.912476,351.602570 779.297668,348.887573 
	C776.448853,362.365845 773.733521,375.142120 771.051880,387.925476 
	C769.207825,396.715942 767.299011,405.495422 765.654175,414.323669 
	C765.095337,417.322845 763.888062,418.310974 760.782593,418.266846 
	C752.576904,418.150238 752.640686,418.302490 751.007080,410.478760 
	C746.662476,389.670959 742.255188,368.876251 737.872803,348.076355 
	C737.424561,348.085938 736.976257,348.095520 736.528015,348.105103 
	C736.528015,355.389435 736.597534,362.674591 736.513367,369.957947 
	C736.344055,384.611725 736.019165,399.264099 735.931030,413.918091 
	C735.912781,416.956696 735.358704,418.266174 731.863708,418.277954 
	C720.420837,418.316437 720.327393,418.475647 720.489746,407.164093 
	C720.943909,375.529694 721.535767,343.897125 721.908630,312.261902 
	C721.946228,309.073853 722.946411,308.274109 725.909851,308.421661 
	C731.389893,308.694550 738.224060,306.708740 742.000000,309.299286 
	C745.826660,311.924561 744.877563,319.358093 746.081421,324.670837 
	C746.926758,328.400970 747.660706,332.156281 748.560974,336.309082 
z"/>
<path fill="#FDFAFB" opacity="1.000000" stroke="none" 
	d="
M1164.370850,340.664856 
	C1163.009644,331.170898 1161.863159,322.089722 1160.366455,313.066650 
	C1159.811890,309.722687 1160.106812,308.060669 1164.060791,308.416107 
	C1168.186768,308.786957 1173.325439,307.261993 1176.221558,309.223419 
	C1178.940796,311.064941 1177.902100,316.614502 1178.415649,320.541138 
	C1180.760132,338.465576 1183.021118,356.400940 1186.309692,374.457764 
	C1187.530273,367.368744 1188.776611,360.284058 1189.966187,353.189850 
	C1192.276489,339.413910 1194.635742,325.645203 1196.771362,311.842010 
	C1197.152954,309.375397 1197.882812,308.524933 1200.426514,308.412079 
	C1211.119751,307.937836 1211.050415,307.859436 1212.921143,319.212616 
	C1215.948364,337.584259 1219.071167,355.940186 1223.069702,374.445160 
	C1223.635376,370.906830 1224.300537,367.381073 1224.750000,363.828033 
	C1226.901001,346.824585 1229.116943,329.827515 1231.012695,312.795105 
	C1231.441162,308.945129 1233.106934,308.373108 1236.472168,308.400940 
	C1248.359131,308.499359 1248.514160,308.406891 1246.893921,319.880768 
	C1242.450317,351.346344 1237.810303,382.784241 1233.419434,414.257019 
	C1232.978638,417.416870 1231.924805,418.257721 1228.825684,418.258636 
	C1216.785034,418.262299 1216.691406,418.391907 1214.637207,406.593262 
	C1211.277588,387.296570 1208.053589,367.976318 1203.996216,348.604187 
	C1202.341919,358.227600 1200.657471,367.845917 1199.040894,377.475616 
	C1196.948242,389.940155 1194.870972,402.407654 1192.882446,414.889038 
	C1192.504028,417.264008 1191.577515,418.150604 1189.029663,418.252136 
	C1175.739746,418.781647 1175.720825,418.867493 1173.817505,405.798615 
	C1170.677002,384.235077 1167.568604,362.666931 1164.370850,340.664856 
z"/>
<path fill="#FDFAFB" opacity="1.000000" stroke="none" 
	d="
M835.969849,178.889191 
	C837.356201,184.914093 837.376526,190.792969 839.612793,197.116776 
	C842.448730,175.066498 845.219788,153.948410 847.813721,132.808594 
	C848.137451,130.170563 848.756775,128.856979 851.656799,129.116806 
	C855.939880,129.500519 861.612305,127.345703 864.153625,129.981171 
	C866.423218,132.334808 863.756042,137.774231 863.178955,141.842163 
	C858.761963,172.976807 854.315430,204.107330 849.982056,235.253601 
	C849.597229,238.020081 848.823425,239.208603 845.725830,239.263367 
	C832.899353,239.490173 833.033508,239.585724 831.015747,227.024475 
	C828.087097,208.793045 824.944824,190.595917 821.893921,172.384125 
	C821.758179,171.573776 821.717896,170.703552 820.319214,170.371979 
	C817.539917,186.882187 814.772034,203.360306 811.989014,219.835846 
	C811.102478,225.084030 810.173523,230.325058 809.270142,235.570419 
	C809.157104,236.226730 809.330444,237.177856 808.950928,237.505234 
	C804.675171,241.193207 799.565186,238.275223 794.912598,239.171310 
	C792.402222,239.654816 791.933716,238.133194 791.640869,236.056580 
	C789.503174,220.899689 787.258240,205.757965 785.077759,190.607040 
	C782.470703,172.492203 779.925293,154.368439 777.288452,136.257965 
	C776.252380,129.141434 776.172729,129.153030 783.125793,129.152328 
	C793.745911,129.151245 793.605103,129.168274 794.955383,140.338379 
	C797.112061,158.179825 799.475525,175.996277 801.760437,193.822174 
	C801.863281,194.624359 802.052673,195.415451 802.792480,196.234985 
	C805.522156,179.729706 808.254211,163.224823 810.979919,146.718872 
	C811.738831,142.123322 812.548950,137.534546 813.201172,132.923645 
	C813.579102,130.251572 814.522034,129.048187 817.619568,129.053940 
	C827.600159,129.072495 827.519836,128.919327 829.123840,138.619202 
	C831.321655,151.909775 833.656738,165.177643 835.969849,178.889191 
z"/>
<path fill="#FDF9FA" opacity="1.000000" stroke="none" 
	d="
M994.863892,193.066559 
	C998.820801,207.207230 1002.532166,221.001511 1006.627319,234.680878 
	C1007.826416,238.686340 1006.845642,239.545090 1003.005188,239.247375 
	C999.199158,238.952332 995.324524,238.897446 991.531616,239.266998 
	C988.091370,239.602173 986.970215,238.035553 986.220032,235.077545 
	C982.667908,221.070816 978.712891,207.160629 975.457214,193.087479 
	C974.358704,188.338928 971.461609,189.193680 968.439209,189.195999 
	C964.250305,189.199203 965.947021,192.456909 965.927368,194.318268 
	C965.784973,207.801315 965.738953,221.288132 965.927979,234.770035 
	C965.976318,238.218613 965.077881,239.525986 961.513489,239.249176 
	C957.707520,238.953583 953.834106,238.901276 950.039246,239.260651 
	C946.126282,239.631256 945.376770,238.083206 945.394897,234.480652 
	C945.533813,206.846344 945.470764,179.211029 945.471008,151.576019 
	C945.471069,145.249939 945.459717,138.923798 945.484009,132.597794 
	C945.490234,130.967163 945.198303,129.100342 947.816101,129.154282 
	C960.107178,129.407578 972.493835,128.092667 984.654175,130.577362 
	C998.893555,133.486862 1005.377258,141.331558 1005.739258,156.617233 
	C1005.994507,167.399307 1005.089966,177.952240 994.241821,184.599884 
	C990.944702,186.620331 994.761719,189.920776 994.863892,193.066559 
z"/>
<path fill="#FDFAFB" opacity="1.000000" stroke="none" 
	d="
M1152.009277,343.053894 
	C1152.009277,357.033875 1152.088989,370.523315 1151.960083,384.010803 
	C1151.922119,387.984772 1151.574585,392.002350 1150.887329,395.915344 
	C1148.125244,411.642944 1138.088745,419.546906 1120.818970,419.845825 
	C1101.241577,420.184692 1090.090820,410.275970 1088.953369,390.686768 
	C1087.911255,372.737579 1087.961060,354.732147 1088.897461,336.779602 
	C1090.141357,312.925507 1104.170044,305.783966 1124.578491,307.409943 
	C1141.961792,308.794952 1149.955444,317.806305 1151.784546,336.577454 
	C1151.977905,338.560974 1151.939941,340.567017 1152.009277,343.053894 
z"/>
<path fill="#FDFBFC" opacity="1.000000" stroke="none" 
	d="
M645.474854,338.423065 
	C645.762268,335.482178 645.870728,332.969269 646.349182,330.528931 
	C649.709229,313.390198 662.027954,305.219513 681.245972,307.299622 
	C699.022278,309.223724 707.114014,317.105804 708.399536,336.932129 
	C709.592834,355.337219 709.831604,373.901611 708.137878,392.320557 
	C706.230957,413.058624 693.578796,420.997162 673.806335,419.552765 
	C655.975891,418.250183 647.463013,409.539642 645.908203,391.790497 
	C644.366028,374.184540 645.113708,356.525085 645.474854,338.423065 
z"/>
<path fill="#FDFBFC" opacity="1.000000" stroke="none" 
	d="
M563.323364,329.781067 
	C564.722168,336.417664 564.966492,342.731415 564.837219,349.063599 
	C564.544983,363.375610 565.666748,377.719086 564.109375,392.000000 
	C561.673828,414.333801 548.408936,420.571106 530.454651,419.646271 
	C512.095459,418.700592 503.614258,410.661560 501.887451,392.073975 
	C500.131500,373.172119 500.409210,354.109558 501.723480,335.185974 
	C503.203217,313.879364 515.759827,305.660675 537.396606,307.461487 
	C552.800354,308.743591 559.905884,315.222260 563.323364,329.781067 
z"/>
<path fill="#FDFBFC" opacity="1.000000" stroke="none" 
	d="
M887.324646,237.861328 
	C877.319763,233.226105 873.096680,224.844269 872.092346,215.003723 
	C870.127197,195.749802 870.565552,176.372452 871.630066,157.106247 
	C872.928101,133.613342 886.928955,126.199181 908.807373,128.390640 
	C924.093628,129.921814 932.432068,138.174026 933.849121,153.528946 
	C935.748047,174.106400 935.821899,194.811493 933.776733,215.384476 
	C932.277161,230.468613 923.017151,238.727768 907.843201,240.232056 
	C900.966797,240.913788 894.213196,240.481445 887.324646,237.861328 
z"/>
<path fill="#FDF9FA" opacity="1.000000" stroke="none" 
	d="
M633.851013,383.000061 
	C633.850647,393.828064 633.769104,404.157104 633.904236,414.483337 
	C633.940186,417.234802 633.212891,418.192657 630.303284,418.259155 
	C620.469604,418.483978 620.454041,418.617279 616.720215,409.636749 
	C610.087585,393.683746 603.485291,377.718109 596.852600,361.765106 
	C596.188538,360.167816 595.402710,358.621155 593.529175,357.212006 
	C593.529175,358.927612 593.529236,360.643250 593.529175,362.358856 
	C593.528992,379.516663 593.434143,396.675385 593.606323,413.831451 
	C593.641724,417.363007 592.565674,418.275482 589.111206,418.266083 
	C576.149536,418.230804 576.149048,418.355499 576.148987,405.405243 
	C576.148926,374.920990 576.237061,344.436218 576.048340,313.953125 
	C576.021790,309.674133 576.892700,308.164703 581.465881,308.352509 
	C590.325378,308.716370 590.337646,308.429382 593.902710,316.685272 
	C601.277588,333.763733 608.651855,350.842377 616.557312,369.150513 
	C616.773987,366.818024 616.972900,365.665894 616.974304,364.513519 
	C616.994385,347.355743 617.120422,330.196167 616.886902,313.041534 
	C616.834412,309.187073 617.980042,308.349609 621.625977,308.383148 
	C633.849487,308.495575 633.850952,308.351898 633.851013,320.532166 
	C633.851135,341.188141 633.851013,361.844086 633.851013,383.000061 
z"/>
<path fill="#FEFEFE" opacity="1.000000" stroke="none" 
	d="
M1312.829712,386.999939 
	C1312.829712,362.502533 1313.022705,338.502411 1312.680054,314.509918 
	C1312.604126,309.192230 1314.251709,307.864594 1319.081177,308.421844 
	C1322.205933,308.782349 1325.439453,308.779144 1328.564087,308.417877 
	C1332.609497,307.950165 1333.133057,309.781555 1333.078125,313.261993 
	C1332.884033,325.590912 1333.091553,337.925873 1332.937866,350.255951 
	C1332.901123,353.204407 1333.494141,354.430969 1336.738892,354.235870 
	C1341.554199,353.946381 1346.411743,353.957031 1351.228638,354.233063 
	C1354.411621,354.415497 1355.106201,353.297485 1355.066528,350.288666 
	C1354.901855,337.792206 1355.134888,325.289825 1354.910767,312.795227 
	C1354.846436,309.209351 1355.967163,308.175934 1359.399414,308.426331 
	C1363.212036,308.704437 1367.079956,308.729095 1370.888062,308.421600 
	C1374.549438,308.125946 1375.250366,309.618134 1375.239136,312.975342 
	C1375.125854,346.637939 1375.108887,380.301361 1375.257080,413.963684 
	C1375.273438,417.653290 1374.026367,418.465302 1370.697266,418.232208 
	C1366.883179,417.965149 1363.011963,417.904297 1359.209839,418.245911 
	C1355.502075,418.579010 1354.875854,417.083557 1354.920776,413.737823 
	C1355.104858,400.075104 1354.915894,386.407623 1355.061890,372.744019 
	C1355.093384,369.796265 1354.506104,368.569031 1351.261230,368.764099 
	C1346.445923,369.053619 1341.588379,369.042969 1336.771484,368.766968 
	C1333.588745,368.584595 1332.898315,369.702728 1332.933594,372.711151 
	C1333.092041,386.207825 1332.796265,399.712341 1333.121216,413.203033 
	C1333.226440,417.569580 1331.837769,418.612122 1327.823364,418.245087 
	C1324.022217,417.897552 1320.152588,417.985809 1316.335205,418.228119 
	C1313.358276,418.417114 1312.732056,417.216095 1312.775757,414.496124 
	C1312.920166,405.499420 1312.829956,396.498962 1312.829712,386.999939 
z"/>
<path fill="#FEFEFE" opacity="1.000000" stroke="none" 
	d="
M1285.278076,129.753494 
	C1302.868286,131.439072 1311.422607,139.909134 1311.898071,157.165695 
	C1312.388794,174.974319 1312.424316,192.821274 1311.858521,210.626022 
	C1311.280396,228.816833 1301.420654,238.224777 1283.130615,238.955276 
	C1273.816162,239.327286 1264.476685,239.031235 1255.152344,239.222458 
	C1252.501343,239.276825 1251.775513,238.417130 1251.781128,235.818512 
	C1251.856323,201.499100 1251.855835,167.179413 1251.782227,132.860001 
	C1251.776367,130.136856 1252.405640,128.999115 1255.378662,129.106094 
	C1265.192505,129.459213 1275.031616,128.666382 1285.278076,129.753494 
z"/>
<path fill="#FEFDFD" opacity="1.000000" stroke="none" 
	d="
M1017.995361,413.874023 
	C1017.995361,380.255951 1018.106628,347.123749 1017.871033,313.993988 
	C1017.837158,309.233612 1019.299500,308.193726 1023.684753,308.399200 
	C1033.153442,308.842896 1042.648315,308.175232 1052.128174,308.942535 
	C1069.328003,310.334747 1077.925171,319.576691 1078.031372,336.827209 
	C1078.064453,342.189056 1077.761963,347.457031 1075.962036,352.564941 
	C1074.655640,356.271912 1072.816040,359.913025 1069.353638,361.642212 
	C1064.967285,363.832764 1065.486694,366.498627 1066.609497,370.316498 
	C1071.154541,385.771790 1075.399048,401.315582 1079.734985,416.832123 
	C1079.812256,417.108582 1079.649536,417.452148 1079.533081,418.168121 
	C1073.793579,418.168121 1067.988281,418.083832 1062.187622,418.206818 
	C1059.622437,418.261169 1059.363525,416.672241 1058.877686,414.780151 
	C1055.242065,400.621979 1051.518188,386.486481 1047.814453,372.345825 
	C1046.855347,368.684174 1042.338501,366.587830 1039.067627,368.291351 
	C1037.281860,369.221375 1038.047119,370.934784 1038.041260,372.290588 
	C1037.981445,386.108978 1037.898193,399.929138 1038.081055,413.745361 
	C1038.125366,417.090088 1037.496460,418.569214 1033.794434,418.250122 
	C1029.828125,417.908234 1025.796753,417.976288 1021.817993,418.236237 
	C1018.737976,418.437469 1017.449280,417.453339 1017.995361,413.874023 
z"/>
<path fill="#FEFEFE" opacity="1.000000" stroke="none" 
	d="
M437.210388,150.982178 
	C438.250305,155.331955 438.173889,159.338028 438.164764,163.333725 
	C438.129364,178.829285 438.442932,194.337189 437.927155,209.817184 
	C437.293823,228.825150 427.777527,238.190659 408.951965,238.965134 
	C400.301453,239.321014 391.618500,238.897308 382.969086,239.267365 
	C378.858734,239.443222 377.694550,238.367996 377.723602,234.130447 
	C377.924561,204.802643 377.829285,175.472794 377.829681,146.143600 
	C377.829742,141.477600 377.840271,136.811584 377.829651,132.145615 
	C377.826050,130.559219 377.863373,129.111008 380.093231,129.163483 
	C392.397217,129.453079 404.761749,128.240997 416.983673,130.548965 
	C428.188110,132.664780 434.981476,139.292328 437.210388,150.982178 
z"/>
<path fill="#FEFCFD" opacity="1.000000" stroke="none" 
	d="
M626.994507,181.000000 
	C626.994507,164.835434 627.100769,149.169601 626.912842,133.507294 
	C626.870789,130.007004 627.821045,129.012527 631.339111,129.068130 
	C640.815491,129.217865 640.843872,129.034378 644.562134,137.621323 
	C651.101074,152.722366 657.600037,167.840790 664.131897,182.944946 
	C664.825439,184.548553 665.626831,186.105469 667.483459,187.575104 
	C667.483459,185.871613 667.483459,184.168137 667.483459,182.464661 
	C667.483521,166.300171 667.565552,150.134918 667.418091,133.971771 
	C667.386658,130.526230 667.917603,128.992371 671.963867,129.045761 
	C684.171814,129.206863 684.174438,129.008911 684.174438,141.191406 
	C684.174438,172.020584 684.056091,202.850708 684.298950,233.677979 
	C684.336426,238.432236 682.804688,239.080872 678.510010,239.370697 
	C672.495728,239.776550 669.962585,237.529968 667.822327,232.031006 
	C660.657227,213.621582 652.810608,195.477417 644.450867,177.249832 
	C644.358765,178.409943 644.187378,179.569992 644.186279,180.730194 
	C644.169250,198.727753 644.092712,216.726044 644.247620,234.722290 
	C644.276306,238.061234 643.634094,239.591721 639.943542,239.237579 
	C635.836792,238.843460 630.445374,240.472153 627.886292,238.405502 
	C625.144226,236.191071 627.072937,230.598434 627.040771,226.493423 
	C626.923584,211.496414 626.994507,196.497925 626.994507,181.000000 
z"/>
<path fill="#FEFDFD" opacity="1.000000" stroke="none" 
	d="
M1239.172119,233.925262 
	C1239.698730,237.860870 1238.805176,239.897659 1234.747192,239.211700 
	C1233.289185,238.965210 1231.725464,238.984619 1230.260498,239.210190 
	C1226.899292,239.727707 1225.292358,238.332870 1224.015137,235.185760 
	C1216.516113,216.708176 1208.779053,198.327133 1201.125488,179.912170 
	C1200.704346,178.899139 1200.580444,177.712448 1199.003906,176.786667 
	C1199.003906,185.698593 1199.003784,194.271820 1199.003784,202.845047 
	C1199.003662,213.676590 1198.887573,224.510178 1199.077515,235.338379 
	C1199.131592,238.415802 1198.285400,239.225693 1195.200073,239.254608 
	C1181.826904,239.379822 1181.827881,239.490082 1181.827881,226.371674 
	C1181.827881,195.710083 1181.902344,165.048096 1181.737549,134.387390 
	C1181.716064,130.382370 1182.522217,128.892654 1186.849731,129.051315 
	C1195.680786,129.375061 1195.668457,129.131012 1199.220093,137.342545 
	C1206.524414,154.230667 1213.854248,171.107803 1221.906372,187.958359 
	C1221.990723,186.597595 1222.147095,185.236893 1222.148438,183.876038 
	C1222.165283,167.045502 1222.232666,150.214371 1222.094971,133.384949 
	C1222.069092,130.215500 1222.821655,129.097672 1226.215454,129.072418 
	C1239.173096,128.975983 1239.172119,128.846558 1239.172119,141.947540 
	C1239.172119,172.442520 1239.172119,202.937515 1239.172119,233.925262 
z"/>
<path fill="#FDF9FA" opacity="1.000000" stroke="none" 
	d="
M943.149048,373.995422 
	C943.431519,361.179626 942.659607,348.855927 943.756104,336.539307 
	C945.720825,314.471924 957.385559,304.924347 980.777588,307.644440 
	C998.560974,309.712372 1009.149231,325.603516 1005.197876,343.187317 
	C1004.939209,344.338318 1004.609924,345.010498 1003.374084,344.996429 
	C1002.541260,344.986938 1001.708130,345.012634 1000.875122,345.010590 
	C996.376709,344.999573 991.144409,346.423096 987.569885,344.599060 
	C983.313721,342.427246 986.488220,336.609924 985.644958,332.442719 
	C984.159546,325.102386 981.126282,321.939697 974.625244,322.187439 
	C968.126770,322.435089 964.297424,326.057068 964.177124,333.686676 
	C963.872559,353.005737 964.046692,372.332611 964.083618,391.656250 
	C964.086121,392.961731 964.492371,394.278229 964.796692,395.569397 
	C966.323853,402.049469 968.881165,404.316895 974.899963,404.581299 
	C980.733521,404.837555 984.322510,402.179504 986.158630,396.112579 
	C987.978027,390.101105 987.401428,383.903992 987.429993,377.759216 
	C987.442078,375.147919 985.446960,375.699036 983.868103,375.519897 
	C981.291626,375.227570 977.363098,376.809509 976.425598,374.635010 
	C975.144958,371.664642 975.896667,367.797150 975.873718,364.313599 
	C975.860657,362.331573 977.434265,362.489868 978.744873,362.486938 
	C986.742798,362.469025 994.741211,362.529663 1002.738220,362.444916 
	C1005.099792,362.419891 1005.903748,363.264221 1005.891785,365.656647 
	C1005.809326,382.151978 1005.804749,398.648102 1005.894592,415.143341 
	C1005.908264,417.653381 1004.909546,418.322449 1002.638611,418.206329 
	C999.649536,418.053528 996.406189,418.798401 993.717590,417.869019 
	C990.292908,416.685181 993.143127,412.247498 990.581116,409.677887 
	C985.423401,418.668823 977.227356,420.936523 967.634827,419.574188 
	C953.363037,417.547302 945.991516,409.146240 944.008850,392.944092 
	C943.258606,386.812195 943.011475,380.664032 943.149048,373.995422 
z"/>
<path fill="#FEFDFD" opacity="1.000000" stroke="none" 
	d="
M1037.172119,216.000305 
	C1037.171875,222.832214 1037.056519,229.167252 1037.225220,235.494736 
	C1037.297729,238.213608 1036.649170,239.397263 1033.669678,239.232285 
	C1029.350586,238.993134 1024.991455,238.937439 1020.681335,239.247253 
	C1017.345154,239.487061 1016.934265,238.067627 1016.941406,235.214859 
	C1017.026428,201.222336 1017.043152,167.229340 1016.922180,133.237030 
	C1016.910400,129.920013 1017.861389,128.883163 1021.115784,129.097458 
	C1025.097656,129.359619 1029.125610,129.378571 1033.104370,129.093170 
	C1036.501099,128.849533 1037.278809,130.143570 1037.240356,133.344391 
	C1037.078613,146.837311 1037.171875,160.333298 1037.171875,173.838135 
	C1039.080444,174.238861 1038.938354,172.621979 1039.345703,171.732162 
	C1045.225830,158.886902 1051.190308,146.077240 1056.816895,133.121063 
	C1058.182739,129.975723 1059.827637,128.883545 1063.153687,129.087784 
	C1067.797363,129.372925 1072.471680,129.159653 1077.161133,129.159653 
	C1077.916260,131.292740 1076.518921,132.786148 1075.865601,134.342728 
	C1070.207153,147.823425 1064.537964,161.302231 1058.604126,174.662704 
	C1057.326904,177.538635 1057.477905,179.837967 1058.561157,182.625015 
	C1065.363647,200.128296 1071.947021,217.716980 1078.787720,235.205139 
	C1080.109619,238.584595 1079.440186,239.422531 1075.944580,239.227570 
	C1070.799072,238.940598 1064.711792,240.692047 1060.732300,238.490463 
	C1056.691772,236.255188 1056.524414,229.539230 1054.727905,224.764740 
	C1050.281982,212.948929 1045.957031,201.087601 1041.418701,188.798294 
	C1038.705444,191.544571 1037.103760,194.318542 1037.152100,198.004272 
	C1037.228638,203.835388 1037.172241,209.668243 1037.172119,216.000305 
z"/>
<path fill="#FDFAFB" opacity="1.000000" stroke="none" 
	d="
M543.220947,199.321350 
	C549.204285,196.673157 555.333557,198.255646 561.363892,197.941772 
	C562.643616,197.875153 562.830200,199.035721 562.833618,200.089966 
	C562.862976,209.079056 563.004883,218.058182 559.220520,226.556686 
	C556.548462,232.557175 552.175598,236.665070 545.998718,238.588409 
	C537.197998,241.328705 528.276978,241.423004 519.503052,238.415024 
	C508.524078,234.651077 503.521637,225.857208 502.531067,215.218674 
	C500.615936,194.651138 500.345947,173.930634 502.577454,153.401550 
	C504.620209,134.608704 516.165771,126.055931 539.006958,128.420425 
	C553.475281,129.918182 560.338562,137.580673 562.203674,152.090820 
	C562.801392,156.741089 562.742188,161.386871 562.894470,166.042786 
	C562.977966,168.595566 562.191406,169.653946 559.533447,169.560608 
	C555.208435,169.408707 550.870728,169.417114 546.544983,169.559021 
	C543.976013,169.643265 543.021545,168.763199 543.099182,166.121002 
	C543.231079,161.631683 543.190186,157.122284 542.918823,152.639694 
	C542.536682,146.326996 539.482178,143.293823 533.674255,143.023712 
	C527.627808,142.742508 523.900818,145.575287 522.888367,151.704987 
	C522.295471,155.294907 522.070312,158.979340 522.046997,162.623611 
	C521.955322,176.946655 522.011414,191.270645 522.008118,205.594284 
	C522.007263,209.428406 522.166992,213.245346 522.977722,217.012268 
	C524.251587,222.930679 527.672974,225.674301 533.513733,225.424316 
	C538.870300,225.195053 542.341614,222.085526 542.817505,216.268173 
	C543.264587,210.803848 543.078430,205.287750 543.220947,199.321350 
z"/>
<path fill="#FDFAFB" opacity="1.000000" stroke="none" 
	d="
M471.395508,398.889923 
	C472.830383,392.623871 472.932404,386.627686 472.762024,380.643158 
	C472.684265,377.912720 473.337067,376.761871 476.305481,376.928162 
	C480.624298,377.170135 484.966766,376.990845 489.299133,376.991333 
	C490.641876,376.991486 492.031006,376.820251 492.011627,378.885895 
	C491.930603,387.517700 492.703857,396.222198 489.174896,404.490021 
	C484.541809,415.344666 474.537659,420.733276 460.487915,419.815674 
	C442.902435,418.667084 433.652588,410.769836 431.881561,393.206207 
	C429.909302,373.647186 430.117432,353.908875 431.755157,334.328461 
	C433.451263,314.049805 445.247528,305.746674 466.666534,307.426575 
	C483.327423,308.733368 491.615112,318.201050 491.979584,334.959473 
	C492.073456,339.276459 493.434204,344.892334 491.289459,347.569214 
	C489.014160,350.409058 483.117615,347.970337 478.883636,348.590607 
	C473.642914,349.358337 472.249298,347.248993 472.714081,342.309235 
	C473.053101,338.705994 472.560120,334.998535 472.199219,331.361237 
	C471.586548,325.186218 468.815857,322.481140 463.132080,322.188873 
	C457.307587,321.889343 453.229950,325.062988 452.157715,330.814606 
	C451.914764,332.117828 451.838776,333.464539 451.811707,334.793793 
	C451.414825,354.277771 451.017639,373.770447 452.017731,393.239441 
	C452.479309,402.225006 457.570862,405.980530 465.426300,404.214722 
	C468.341278,403.559479 470.077454,401.845215 471.395508,398.889923 
z"/>
<path fill="#FDFBFC" opacity="1.000000" stroke="none" 
	d="
M887.365112,376.994507 
	C891.497559,376.992432 895.212158,377.368774 898.816223,376.898651 
	C903.529480,376.283783 904.309631,378.280426 904.093323,382.420990 
	C903.711060,389.737000 903.902649,397.090698 901.114929,404.056061 
	C896.606262,415.321228 886.040588,420.965485 871.729919,419.779388 
	C854.287292,418.333710 845.412292,410.914764 843.632141,393.204498 
	C841.651367,373.499390 841.784546,353.546234 843.569092,333.825165 
	C845.226196,315.513458 854.803955,305.891632 877.941895,307.371796 
	C894.559021,308.434845 901.968262,316.448029 903.766235,333.484680 
	C905.355591,348.544250 905.350647,348.321228 890.358398,348.648254 
	C885.453918,348.755219 883.909912,347.385254 884.380798,342.570343 
	C884.733887,338.960632 884.277100,335.257782 884.030334,331.606537 
	C883.623169,325.581940 880.756042,322.608643 875.143127,322.190430 
	C869.272949,321.753052 865.038147,324.839478 864.040100,330.566345 
	C863.527893,333.505035 863.229797,336.518463 863.214722,339.500061 
	C863.135498,355.161072 863.122986,370.822998 863.221558,386.483795 
	C863.242432,389.795349 863.563293,393.154755 864.203674,396.401825 
	C865.356384,402.246460 869.109680,404.956970 874.899231,404.574402 
	C880.317871,404.216309 883.537292,401.072510 883.963867,395.246155 
	C884.328064,390.271423 884.335938,385.270081 884.475281,380.279785 
	C884.522339,378.596649 884.284607,376.760651 887.365112,376.994507 
z"/>
<path fill="#FDFBFC" opacity="1.000000" stroke="none" 
	d="
M1132.119385,217.202255 
	C1131.021484,223.698563 1129.891357,229.745789 1128.971436,235.824814 
	C1128.613892,238.187866 1127.792725,239.336349 1125.180542,239.225281 
	C1120.195068,239.013290 1113.570068,241.013382 1110.638794,238.533508 
	C1107.369751,235.767990 1111.191284,229.482269 1112.117554,224.817062 
	C1118.201538,194.172333 1124.576660,163.585434 1130.704102,132.949158 
	C1131.267090,130.134369 1132.119385,128.895126 1135.124268,129.106583 
	C1140.745361,129.502167 1147.713989,126.976898 1151.659546,130.007111 
	C1155.618042,133.047241 1154.765503,140.404343 1155.896851,145.885696 
	C1161.911011,175.020126 1167.789307,204.182617 1173.730103,233.332214 
	C1174.921509,239.177994 1174.950562,239.273712 1168.996460,239.143295 
	C1164.712402,239.049408 1159.226807,240.961914 1156.490112,238.313736 
	C1154.045898,235.948685 1154.513672,230.538071 1153.770508,226.457840 
	C1151.471069,213.832962 1151.484253,213.779327 1138.332275,213.893021 
	C1135.982178,213.913330 1132.658203,212.487656 1132.119385,217.202255 
z"/>
<path fill="#FDF9FA" opacity="1.000000" stroke="none" 
	d="
M469.529053,216.984726 
	C469.532196,225.148743 469.532196,225.148483 477.097412,225.149170 
	C482.262695,225.149643 487.429535,225.224564 492.592590,225.117767 
	C494.850067,225.071075 495.748779,225.705933 495.915375,228.171646 
	C496.659729,239.188919 496.748779,239.182983 485.611389,239.182877 
	C474.780914,239.182770 463.949310,239.095566 453.120758,239.239670 
	C450.194916,239.278610 449.068329,238.622253 449.079102,235.402222 
	C449.193115,201.244965 449.172668,167.087173 449.105194,132.929688 
	C449.099945,130.267502 449.643005,129.056686 452.654755,129.089691 
	C465.649750,129.232162 478.647522,129.196732 491.643494,129.109222 
	C494.072357,129.092865 495.127350,129.579498 495.257660,132.357071 
	C495.797089,143.855957 495.904846,143.850479 484.426422,143.851151 
	C480.427490,143.851395 476.426361,143.934113 472.430511,143.823853 
	C470.301117,143.765076 469.487061,144.521683 469.506927,146.688721 
	C469.584869,155.185730 469.587372,163.684357 469.504700,172.181274 
	C469.483551,174.353424 470.282867,175.071152 472.415009,175.021133 
	C477.244385,174.907837 482.081451,175.092468 486.908936,174.944183 
	C489.243530,174.872467 489.970581,175.556366 490.081787,177.990250 
	C490.593170,189.187057 490.683655,189.182922 479.564911,189.182907 
	C469.529175,189.182892 469.529144,189.182892 469.529144,198.991974 
	C469.529114,204.823776 469.529114,210.655563 469.529053,216.984726 
z"/>
<path fill="#FDFBFC" opacity="1.000000" stroke="none" 
	d="
M418.490662,366.344330 
	C417.956177,369.293610 415.920380,368.447754 414.436005,368.483521 
	C410.106537,368.587891 405.769409,368.629517 401.442474,368.483246 
	C398.968597,368.399628 397.906097,369.024536 397.949707,371.777679 
	C398.102722,381.438782 398.135742,391.106476 397.935486,400.765869 
	C397.871002,403.876312 399.165375,404.262238 401.758759,404.202026 
	C408.086609,404.055054 414.422577,404.256409 420.750336,404.106873 
	C423.320251,404.046173 424.136505,404.840149 424.244690,407.473999 
	C424.684265,418.181549 424.781921,418.177612 414.206879,418.177551 
	C403.377045,418.177460 392.545654,418.077179 381.718323,418.242157 
	C378.730347,418.287659 377.739044,417.569946 377.750000,414.395386 
	C377.867310,380.406708 377.858459,346.417419 377.761536,312.428619 
	C377.752991,309.425812 378.482697,308.371948 381.640137,308.411926 
	C394.633881,308.576324 407.631287,308.534180 420.626373,308.436554 
	C423.170441,308.417419 423.994812,309.141449 424.081512,311.799438 
	C424.441986,322.848877 424.544281,322.845245 413.363251,322.845734 
	C409.197906,322.845917 405.030182,322.932434 400.868256,322.813507 
	C398.756989,322.753204 397.940887,323.399872 397.968018,325.623962 
	C398.071838,334.119934 398.106964,342.619751 397.951782,351.114166 
	C397.903534,353.755554 399.065582,354.083862 401.236359,354.026886 
	C405.731812,353.908813 410.245605,354.201752 414.726654,353.921814 
	C417.942230,353.720917 418.807709,354.942505 418.565125,357.909882 
	C418.348602,360.558258 418.514191,363.237854 418.490662,366.344330 
z"/>
<path fill="#FEFDFD" opacity="1.000000" stroke="none" 
	d="
M597.160278,174.995880 
	C601.975769,174.996796 606.311646,175.088181 610.641113,174.960312 
	C612.813232,174.896179 613.394958,175.715912 613.563721,177.823410 
	C614.473083,189.177414 614.535828,189.172394 603.094421,189.172394 
	C593.003906,189.172394 593.003845,189.172394 593.003906,199.275360 
	C593.003906,206.608521 593.143799,213.945648 592.936401,221.272934 
	C592.851746,224.265472 593.558105,225.368057 596.759949,225.236145 
	C603.082397,224.975647 609.425598,225.263199 615.755127,225.111404 
	C618.337952,225.049454 619.132874,225.866104 619.238892,228.488937 
	C619.670898,239.176285 619.767456,239.172440 609.177917,239.172348 
	C598.344849,239.172256 587.509888,239.061859 576.679810,239.242081 
	C573.614746,239.293121 572.748596,238.450562 572.758728,235.346420 
	C572.869446,201.347549 572.867676,167.348068 572.763367,133.349152 
	C572.753601,130.160095 573.497620,129.030182 576.888123,129.081680 
	C589.718201,129.276505 602.553833,129.235718 615.385437,129.101425 
	C618.200195,129.071976 619.023315,129.877319 619.079529,132.733551 
	C619.298035,143.842560 619.408325,143.840271 608.416321,143.840454 
	C604.416382,143.840515 600.411438,143.963303 596.418457,143.797028 
	C593.930664,143.693420 592.885071,144.306519 592.943298,147.066666 
	C593.115662,155.229507 593.139526,163.401718 592.934265,171.563034 
	C592.858521,174.575867 594.021790,175.384995 597.160278,174.995880 
z"/>
<path fill="#FDFAFB" opacity="1.000000" stroke="none" 
	d="
M1277.022461,418.179657 
	C1268.820679,418.178772 1268.820679,418.178772 1268.820557,410.230164 
	C1268.820557,383.265991 1268.674438,356.300354 1268.951416,329.339020 
	C1269.003052,324.311920 1267.460938,322.912811 1262.791626,323.459473 
	C1259.836182,323.805481 1256.798828,323.383575 1253.813477,323.561584 
	C1251.112305,323.722626 1250.181519,322.553802 1250.475342,320.044189 
	C1250.494507,319.880066 1250.481079,319.711487 1250.476196,319.545197 
	C1250.148804,308.475739 1250.148804,308.475616 1261.201416,308.475739 
	C1275.016357,308.475922 1288.832031,308.545990 1302.645874,308.423187 
	C1305.753052,308.395599 1306.955322,309.101562 1306.945435,312.561096 
	C1306.913696,323.521484 1307.080933,323.521942 1296.042725,323.524231 
	C1289.009766,323.525696 1289.009399,323.525726 1289.009277,330.664337 
	C1289.009155,357.794952 1288.875977,384.926788 1289.131714,412.054993 
	C1289.177856,416.954376 1288.171631,419.134766 1282.998047,418.229034 
	C1281.221558,417.918030 1279.344971,418.179657 1277.022461,418.179657 
z"/>
<path fill="#FEFDFD" opacity="1.000000" stroke="none" 
	d="
M702.755249,144.172455 
	C701.451721,144.172409 700.619385,144.172394 699.787109,144.172394 
	C688.282898,144.172379 687.490112,143.163422 689.111511,131.572174 
	C689.396179,129.537125 690.284973,129.146561 692.014893,129.149094 
	C708.993591,129.173965 725.996948,128.637573 742.938232,129.433853 
	C749.342834,129.734894 744.547424,136.150696 745.702271,139.582947 
	C746.336670,141.468231 746.738281,144.457993 742.734802,144.213211 
	C739.252319,144.000290 735.723328,144.421890 732.257019,144.104004 
	C728.598022,143.768463 727.918030,145.256287 727.932617,148.609650 
	C728.057190,177.239838 727.942139,205.871094 728.082703,234.501129 
	C728.100098,238.046402 727.498962,239.654449 723.538391,239.254730 
	C719.748474,238.872238 715.867920,238.918625 712.067383,239.244598 
	C708.399780,239.559158 707.740356,238.091858 707.755188,234.738754 
	C707.881958,206.108597 707.760132,177.477264 707.910889,148.847336 
	C707.930298,145.158997 707.022827,143.503403 702.755249,144.172455 
z"/>
<path fill="#FDFBFC" opacity="1.000000" stroke="none" 
	d="
M810.822510,358.999878 
	C810.822510,343.336243 810.908386,328.171753 810.755005,313.009644 
	C810.721680,309.710907 811.341492,308.112885 815.064941,308.408569 
	C819.039124,308.724182 823.068298,308.659119 827.053589,308.423584 
	C830.239807,308.235291 830.912964,309.520874 830.904785,312.485016 
	C830.810974,346.477997 830.818176,380.471344 830.895142,414.464386 
	C830.901306,417.195496 830.257874,418.385559 827.306091,418.231354 
	C823.151611,418.014313 818.960205,417.944305 814.816772,418.249023 
	C811.360413,418.503204 810.738708,417.094574 810.760498,413.988647 
	C810.887512,395.826477 810.822632,377.662964 810.822510,358.999878 
z"/>
<path fill="#A31C44" opacity="1.000000" stroke="none" 
	d="
M170.162872,330.157104 
	C170.809906,320.543304 171.520126,311.422699 174.843445,302.750702 
	C178.203552,293.982697 184.215393,289.807434 193.501923,289.836609 
	C202.814316,289.865875 208.856552,293.978729 212.052444,302.869781 
	C214.885391,310.751099 215.997940,318.906219 216.144424,327.330261 
	C216.339478,338.546051 216.402985,349.663086 213.975891,360.716309 
	C211.043900,374.068939 204.120911,380.133972 191.449966,379.841766 
	C183.905792,379.667755 177.852982,375.049957 174.871750,367.041321 
	C170.492828,355.278076 169.955063,343.001770 170.162872,330.157104 
z"/>
<path fill="#A21A43" opacity="1.000000" stroke="none" 
	d="
M213.162704,209.235367 
	C212.847046,217.547577 211.852219,225.292328 208.921692,232.640213 
	C206.155853,239.575134 201.704407,244.801331 193.605911,244.926254 
	C185.622482,245.049408 180.302856,240.479736 177.744934,233.405624 
	C171.472855,216.059647 170.356857,198.274384 176.033310,180.591095 
	C179.466248,169.896866 188.294769,165.375778 198.242462,167.936020 
	C204.315186,169.498962 207.735062,173.817032 209.905060,179.295654 
	C213.672058,188.806259 213.850235,198.751831 213.162704,209.235367 
z"/>
<path fill="#A31C44" opacity="1.000000" stroke="none" 
	d="
M978.518799,174.945923 
	C977.652954,175.194519 977.187500,175.384155 976.703674,175.489639 
	C966.200195,177.779129 965.843872,177.498978 965.844116,166.998932 
	C965.844299,160.199417 965.828247,153.399826 965.858337,146.600449 
	C965.865295,145.017242 965.493591,143.457138 968.113892,143.111099 
	C976.386719,142.018539 983.702759,145.138702 985.499084,151.236176 
	C987.955444,159.574158 987.054993,172.589813 978.518799,174.945923 
z"/>
<path fill="#A21A43" opacity="1.000000" stroke="none" 
	d="
M1123.433960,404.177094 
	C1114.438599,405.235046 1110.655151,402.720764 1109.555176,394.332520 
	C1108.845459,388.920441 1109.054565,383.375153 1109.027588,377.888733 
	C1108.964600,365.061798 1108.976929,352.234253 1109.032593,339.407257 
	C1109.044067,336.753967 1109.124268,334.055023 1109.609375,331.458710 
	C1110.876709,324.676270 1114.548096,321.798462 1120.994385,322.188019 
	C1127.093872,322.556641 1130.485474,325.807129 1131.015137,332.447113 
	C1132.049561,345.414093 1131.352173,358.416351 1131.445190,371.402527 
	C1131.498779,378.890503 1131.405884,386.391785 1130.998535,393.866302 
	C1130.744019,398.536438 1129.184937,402.746216 1123.433960,404.177094 
z"/>
<path fill="#A21A43" opacity="1.000000" stroke="none" 
	d="
M666.006592,370.000000 
	C666.010315,357.848358 665.839294,346.193268 666.071899,334.546173 
	C666.265747,324.842743 672.010498,320.348694 680.614380,322.682495 
	C685.395691,323.979401 687.816589,327.167877 687.966858,333.766693 
	C688.232056,345.411896 688.147644,357.065887 688.144592,368.716187 
	C688.142395,377.036774 688.338440,385.373962 687.887085,393.673309 
	C687.437866,401.932343 682.265747,405.709198 674.475403,404.330231 
	C670.173340,403.568756 667.715576,401.091827 666.852905,396.872620 
	C665.064941,388.128082 666.444031,379.285614 666.006592,370.000000 
z"/>
<path fill="#A21A43" opacity="1.000000" stroke="none" 
	d="
M543.990601,391.619354 
	C543.507141,396.225983 543.192993,400.478516 539.116943,402.991241 
	C532.351990,407.161591 524.142639,403.772736 522.450134,396.004913 
	C521.924988,393.594727 521.875671,391.048004 521.868713,388.563080 
	C521.821533,371.743256 521.827820,354.923218 521.862976,338.103333 
	C521.867859,335.780243 521.885254,333.411713 522.315491,331.143646 
	C523.506775,324.864105 526.834412,322.170959 532.977295,322.179657 
	C538.936707,322.188110 542.079468,324.671326 543.428833,330.771332 
	C543.889832,332.855530 543.965698,335.056732 543.970459,337.205048 
	C544.010559,355.190643 543.992981,373.176361 543.990601,391.619354 
z"/>
<path fill="#A21A43" opacity="1.000000" stroke="none" 
	d="
M913.994080,193.999878 
	C913.984253,200.825851 914.157410,207.158859 913.916016,213.476028 
	C913.642334,220.638763 910.828064,224.230133 905.342224,225.170563 
	C897.466858,226.520615 892.542175,222.793732 892.112915,214.358200 
	C891.665039,205.556305 891.855713,196.719421 891.855347,187.897842 
	C891.854858,176.745178 891.694031,165.584030 892.073669,154.442596 
	C892.369995,145.748352 897.509094,141.746292 905.484436,143.206543 
	C911.017822,144.219666 913.883911,148.154144 913.956360,155.542877 
	C914.080383,168.194138 913.992798,180.847473 913.994080,193.999878 
z"/>
<path fill="#A31C44" opacity="1.000000" stroke="none" 
	d="
M1271.997559,181.000000 
	C1271.997559,169.674423 1272.163940,158.844879 1271.905273,148.025497 
	C1271.817261,144.340866 1273.109253,143.359085 1276.437378,143.804520 
	C1278.245117,144.046494 1280.106567,143.875076 1281.919434,144.092834 
	C1287.284180,144.737198 1290.130127,147.610260 1291.098145,153.010498 
	C1292.075806,158.464859 1291.910889,163.965317 1291.814087,169.452286 
	C1291.555420,184.095535 1292.607910,198.762527 1291.193115,213.381516 
	C1290.322021,222.380966 1282.408691,227.445206 1273.550537,225.010956 
	C1270.932129,224.291397 1272.066040,222.339188 1272.055908,220.971252 
	C1271.958496,207.814743 1271.997559,194.657227 1271.997559,181.000000 
z"/>
<path fill="#A21A43" opacity="1.000000" stroke="none" 
	d="
M1038.002686,345.963409 
	C1038.002930,339.000671 1038.137451,332.529968 1037.942261,326.069275 
	C1037.855835,323.205658 1038.806274,322.303741 1041.601074,322.469879 
	C1047.188354,322.801941 1053.528198,321.842926 1056.647705,327.818390 
	C1060.369873,334.948212 1060.178833,342.625885 1056.520996,349.822693 
	C1054.348877,354.096222 1042.675537,357.206085 1038.891113,355.031769 
	C1037.794434,354.401672 1038.033447,353.369049 1038.016235,352.428528 
	C1037.979858,350.439453 1038.003540,348.449280 1038.002686,345.963409 
z"/>
<path fill="#A31C44" opacity="1.000000" stroke="none" 
	d="
M397.997406,178.000000 
	C397.997406,167.836426 398.241974,158.163773 397.884277,148.513458 
	C397.728149,144.301071 399.303558,143.342468 402.953278,143.816879 
	C404.929443,144.073761 406.978546,143.887680 408.918976,144.277985 
	C413.406586,145.180618 416.249023,147.742035 417.080139,152.506775 
	C418.236877,159.138184 417.859985,165.802094 417.796021,172.448761 
	C417.666290,185.934555 418.264313,199.422256 417.407959,212.908997 
	C416.675110,224.450165 409.047424,225.346832 399.579376,224.924118 
	C396.864838,224.802933 398.064514,222.352509 398.055389,220.986038 
	C397.961182,206.824524 397.997437,192.662140 397.997406,178.000000 
z"/>
<path fill="#A8274E" opacity="1.000000" stroke="none" 
	d="
M1138.033203,181.015076 
	C1139.263550,173.602585 1140.447144,166.622391 1141.630615,159.642212 
	C1141.955444,159.633331 1142.280273,159.624466 1142.605103,159.615585 
	C1144.404663,170.529099 1146.296021,181.428513 1147.973633,192.360733 
	C1149.228394,200.538025 1149.102173,200.407669 1140.728638,200.609283 
	C1136.621704,200.708176 1134.097778,200.531570 1135.718018,195.151733 
	C1137.042236,190.754715 1137.271606,186.027969 1138.033203,181.015076 
z"/>
</svg>