<svg version="1.1" id="Layer_1" xmlns="http://www.w3.org/2000/svg" xmlns:xlink="http://www.w3.org/1999/xlink" x="0px" y="0px"
	 width="100%" viewBox="0 0 1500 1500" enable-background="new 0 0 1500 1500" xml:space="preserve">
<path fill="#26BDE2" opacity="1.000000" stroke="none" 
	d="
M1501.000000,553.000000 
	C1501.000000,867.640564 1500.991333,1181.781128 1501.094727,1495.921631 
	C1501.096069,1499.942749 1500.522095,1501.128052 1496.079224,1501.126831 
	C999.287170,1500.991943 502.495148,1500.993042 5.703161,1501.115967 
	C1.550277,1501.117065 0.895349,1500.160767 0.896222,1496.203979 
	C1.005820,999.411926 1.005485,502.619904 0.900742,5.827876 
	C0.899922,1.937299 1.450567,0.878844 5.671386,0.879925 
	C502.463348,1.007193 999.255371,1.007466 1496.047363,0.879235 
	C1500.404297,0.878110 1501.105103,1.940979 1501.102417,6.046658 
	C1500.983765,188.197708 1501.000000,370.348877 1501.000000,553.000000 
z"/>
<path fill="#FEFFFF" opacity="1.000000" stroke="none" 
	d="
M889.000000,604.161377 
	C933.493591,604.161377 977.487244,604.158020 1021.480835,604.164429 
	C1029.843018,604.165649 1031.755981,606.599976 1030.471558,614.867371 
	C1022.933655,663.387512 1015.477417,711.920410 1007.961609,760.444031 
	C999.452576,815.380798 990.897461,870.310486 982.385681,925.246887 
	C975.249756,971.303711 968.144043,1017.365234 961.030945,1063.425537 
	C955.671021,1098.133301 950.331299,1132.844116 944.954346,1167.549194 
	C944.148499,1172.750732 942.262329,1174.158325 936.272278,1174.160522 
	C900.610779,1174.173218 864.948853,1174.250977 829.288330,1174.063721 
	C824.689636,1174.039551 823.170959,1175.049927 822.812317,1179.955933 
	C820.955078,1205.362793 818.601746,1230.733398 816.417847,1256.116333 
	C816.375061,1256.613770 816.271973,1257.105835 816.224426,1257.603149 
	C815.532776,1264.830811 815.534241,1264.875732 822.980347,1264.822632 
	C834.473328,1264.740723 845.965759,1264.564087 857.458801,1264.499512 
	C859.051086,1264.490601 860.776672,1263.965210 862.293152,1265.113403 
	C861.884888,1266.923584 860.342712,1267.781494 859.212219,1268.913452 
	C824.826416,1303.342773 790.374451,1337.706055 756.079285,1372.225220 
	C753.036011,1375.288330 751.482971,1375.511353 748.300171,1372.304810 
	C714.020874,1337.769897 679.562256,1303.413208 645.161194,1268.999146 
	C644.134033,1267.971558 643.199219,1266.851807 642.155762,1265.702759 
	C643.782227,1264.244873 645.510681,1264.875366 647.056091,1264.867676 
	C659.553955,1264.805664 672.052734,1264.775024 684.550171,1264.873047 
	C687.586304,1264.896729 688.937988,1264.479370 688.597351,1260.740356 
	C686.180725,1234.207397 684.048462,1207.648560 681.816345,1181.098755 
	C681.233704,1174.168579 681.218872,1174.167603 674.311218,1174.167358 
	C639.982849,1174.166626 605.654541,1174.170044 571.326172,1174.164795 
	C563.763672,1174.163574 562.390320,1172.991333 561.174744,1165.642334 
	C546.535645,1077.135986 531.891785,988.630432 517.255249,900.123657 
	C501.586456,805.375122 485.923523,710.625610 470.260162,615.876160 
	C468.665985,606.232788 470.403381,604.161987 480.076202,604.161926 
	C616.217468,604.161011 752.358704,604.161316 889.000000,604.161377 
z"/>
<path fill="#FEFFFF" opacity="1.000000" stroke="none" 
	d="
M214.836411,179.522720 
	C212.355774,171.212585 206.418900,168.367172 198.785416,168.020126 
	C190.783127,167.656326 184.454193,170.326050 180.791092,177.942123 
	C177.769592,184.224258 176.808044,190.996017 176.197586,197.779083 
	C174.552856,216.054108 175.011917,234.384277 175.041138,253.776337 
	C181.842896,245.635635 190.035751,241.224869 199.522400,239.632736 
	C220.531891,236.106781 240.308578,238.123093 255.531219,255.103149 
	C264.796753,265.438354 269.163574,278.328979 271.357086,291.797791 
	C276.197937,321.521851 275.125000,350.885834 264.213196,379.327423 
	C254.225647,405.360016 234.419159,417.890472 207.241562,420.062134 
	C195.700653,420.984314 184.253448,420.615906 173.016220,417.717255 
	C147.770477,411.205231 133.698593,393.570099 125.787865,369.884338 
	C120.817406,355.002106 119.559448,339.590820 119.502823,324.062378 
	C119.383728,291.400604 119.344093,258.737427 119.511436,226.076096 
	C119.615906,205.687897 121.348457,185.533844 128.932693,166.244568 
	C137.465805,144.541962 152.930283,131.638626 175.949585,127.703148 
	C191.404190,125.060966 206.813522,125.248276 222.130386,128.408081 
	C247.590515,133.660400 261.737396,149.963791 266.987488,174.858368 
	C268.786133,183.386948 268.966400,192.038437 269.506561,200.674210 
	C269.656158,203.065613 268.808960,203.885590 266.408142,203.873734 
	C251.077286,203.798080 235.745590,203.785873 220.414902,203.876343 
	C217.619614,203.892838 217.079544,202.586411 217.136261,200.203308 
	C217.299377,193.349915 216.752411,186.557938 214.836411,179.522720 
z"/>
<path fill="#FBFEFE" opacity="1.000000" stroke="none" 
	d="
M767.243042,129.424026 
	C770.418884,142.123245 771.113159,154.945831 772.967957,167.606308 
	C774.253967,176.383759 775.269165,185.200851 776.405396,194.000244 
	C776.848938,194.007233 777.292419,194.014236 777.735962,194.021240 
	C779.130371,185.805618 780.544556,177.593292 781.914551,169.373596 
	C783.938599,157.229813 786.040039,145.097046 787.859741,132.922394 
	C788.304993,129.943741 789.463135,129.131149 792.337036,129.086807 
	C802.219055,128.934280 802.214661,128.829102 803.873779,138.769974 
	C806.639771,155.343384 809.399292,171.917892 812.192566,188.486725 
	C812.508667,190.362091 813.024536,192.203796 813.780457,195.521225 
	C815.942627,188.746109 816.017639,183.136185 816.770325,177.688156 
	C818.728943,163.511185 820.510437,149.305237 822.040222,135.076172 
	C822.511719,130.690140 823.751343,128.842087 828.625183,129.019669 
	C839.553162,129.417831 839.635864,129.139740 838.111267,139.973145 
	C833.681885,171.448013 829.151611,202.908752 824.773254,234.390656 
	C824.282166,237.921555 823.127075,239.361282 819.213379,239.287735 
	C807.677429,239.070908 807.740295,239.260025 805.906799,228.165100 
	C802.922668,210.107620 799.847534,192.065140 796.790222,174.019836 
	C796.543335,172.562958 796.137634,171.132980 795.111938,169.678833 
	C793.072083,181.744141 791.026550,193.808487 788.994202,205.875031 
	C787.308960,215.880981 785.638977,225.889481 783.963318,235.897018 
	C783.880859,236.389496 783.991638,237.092789 783.703430,237.345612 
	C779.270264,241.234116 773.969727,238.335999 769.116150,239.108932 
	C766.468445,239.530579 766.395569,237.285599 766.136658,235.469940 
	C762.754028,211.746628 759.372986,188.023087 755.998291,164.298615 
	C754.521790,153.918991 753.197144,143.514938 751.511108,133.169632 
	C750.997864,130.020691 751.576355,128.909042 754.849060,129.104263 
	C758.833435,129.341919 762.839172,129.221588 767.243042,129.424026 
z"/>
<path fill="#F9FDFE" opacity="1.000000" stroke="none" 
	d="
M1035.163452,239.194489 
	C1026.458252,239.042786 1027.476196,240.340317 1027.465210,232.123398 
	C1027.421875,199.632019 1027.525757,167.140137 1027.353882,134.649597 
	C1027.331177,130.345459 1028.321167,128.820831 1032.862427,129.044785 
	C1042.997925,129.544647 1053.171509,128.717575 1063.306763,129.951965 
	C1078.912720,131.852646 1086.859497,140.241440 1087.522705,155.910919 
	C1087.748535,161.248245 1087.501465,166.568130 1086.002686,171.753418 
	C1084.668335,176.369186 1082.509521,180.675690 1078.223022,182.949203 
	C1074.600952,184.870331 1074.895996,187.001511 1075.835693,190.232559 
	C1080.109375,204.928146 1084.043457,219.722839 1088.366699,234.403259 
	C1089.469238,238.147217 1089.041992,239.577179 1084.848389,239.255905 
	C1081.038452,238.964005 1077.166748,238.941757 1073.362671,239.268616 
	C1069.923950,239.564056 1068.815674,237.993378 1068.061279,234.978668 
	C1064.628540,221.262024 1060.801636,207.641266 1057.551514,193.883224 
	C1056.514282,189.492630 1054.178833,188.882538 1050.457764,189.180649 
	C1046.238647,189.518692 1047.636108,192.678207 1047.616089,194.808228 
	C1047.491821,207.970261 1047.407104,221.136642 1047.641235,234.295654 
	C1047.711304,238.239166 1046.556885,239.716156 1042.620728,239.244751 
	C1040.320923,238.969315 1037.961182,239.194611 1035.163452,239.194489 
z"/>
<path fill="#F8FDFE" opacity="1.000000" stroke="none" 
	d="
M481.557556,372.007660 
	C481.557159,386.330536 481.474945,400.155823 481.618317,413.978760 
	C481.651276,417.158356 480.793365,418.241760 477.454468,418.280609 
	C464.142181,418.435455 464.143555,418.554230 464.143555,405.228699 
	C464.143585,374.914886 464.224365,344.600586 464.053284,314.287750 
	C464.028687,309.926208 464.865662,308.076843 469.713348,308.338135 
	C480.065918,308.896210 477.460907,306.909882 481.533051,316.157227 
	C488.235046,331.376740 494.748352,346.679321 501.360657,361.938446 
	C501.938293,363.271423 502.660095,364.541931 503.501526,366.211792 
	C505.366547,364.535065 504.766937,362.645111 504.771851,361.025482 
	C504.820374,345.035919 504.925598,329.044495 504.711395,313.057648 
	C504.660187,309.235840 505.849060,308.329559 509.510834,308.354645 
	C521.557007,308.437317 521.557983,308.291351 521.557983,320.359222 
	C521.557861,351.339294 521.489197,382.319672 521.643066,413.298981 
	C521.662659,417.229828 520.565857,418.399109 516.634583,418.291748 
	C508.206421,418.061554 508.201141,418.272400 504.957977,410.460754 
	C498.262878,394.334900 491.570892,378.207794 484.865936,362.085999 
	C484.239410,360.579651 483.529846,359.107880 482.340607,356.470978 
	C480.960297,362.214935 481.842499,366.907684 481.557556,372.007660 
z"/>
<path fill="#FCFEFF" opacity="1.000000" stroke="none" 
	d="
M590.321960,409.306396 
	C584.706055,415.589447 577.581116,417.729340 569.924988,417.994446 
	C560.110168,418.334320 550.276001,418.078796 540.451782,418.208038 
	C537.952209,418.240936 536.942200,417.550751 536.947998,414.851929 
	C537.021606,380.542847 536.996399,346.233582 536.992615,311.924347 
	C536.992371,310.229675 536.810242,308.438202 539.351318,308.497498 
	C551.646667,308.784363 564.031555,307.310181 576.215210,309.763123 
	C588.883728,312.313660 595.936768,319.680695 596.840881,332.633301 
	C598.244019,352.733337 598.053772,372.899078 596.860352,393.019318 
	C596.512390,398.886566 594.421875,404.391327 590.321960,409.306396 
z"/>
<path fill="#FBFEFE" opacity="1.000000" stroke="none" 
	d="
M1101.990967,383.946075 
	C1101.990967,369.638519 1101.961060,355.822083 1101.997681,342.005890 
	C1102.068359,315.217285 1115.815796,303.600250 1142.278320,307.923676 
	C1154.011108,309.840576 1162.081055,316.699127 1163.816772,329.021484 
	C1166.980469,351.480927 1166.926636,374.191742 1163.956299,396.644287 
	C1162.057495,410.998535 1153.869629,417.398499 1139.485229,419.415588 
	C1134.109375,420.169464 1128.827393,419.774689 1123.607544,418.728424 
	C1111.394409,416.280426 1105.487915,407.845245 1103.137573,396.338196 
	C1102.339478,392.431061 1101.802490,388.458893 1101.990967,383.946075 
z"/>
<path fill="#F9FDFE" opacity="1.000000" stroke="none" 
	d="
M649.447815,149.000397 
	C649.448486,143.502579 649.643738,138.494431 649.384094,133.509979 
	C649.196716,129.912170 650.600586,128.963318 654.000061,129.090759 
	C665.742676,129.530991 662.572083,127.216667 667.203064,137.755249 
	C674.555603,154.487350 681.762146,171.283630 689.282959,188.635391 
	C690.589294,186.728897 690.119751,185.090759 690.123108,183.619812 
	C690.160950,166.959885 690.230896,150.299088 690.079285,133.640457 
	C690.048035,130.205902 690.998840,129.074356 694.550720,129.062454 
	C707.012695,129.020737 707.012268,128.885666 707.012268,141.497177 
	C707.012268,172.151596 706.923706,202.806564 707.110840,233.459854 
	C707.137878,237.890945 706.090881,239.097794 701.466675,239.411774 
	C695.165649,239.839630 692.545959,237.483902 690.360840,231.826492 
	C683.889954,215.073257 676.751587,198.577255 669.811279,182.007004 
	C669.208557,180.568054 669.104370,178.762451 667.399048,177.766602 
	C666.374878,179.330917 666.885681,180.996902 666.881592,182.545639 
	C666.836060,199.871933 666.742004,217.199631 666.938599,234.523819 
	C666.981750,238.323532 665.818481,239.284988 662.127197,239.268906 
	C649.447937,239.213638 649.447327,239.355927 649.447327,226.469467 
	C649.447449,200.813049 649.447571,175.156631 649.447815,149.000397 
z"/>
<path fill="#F9FDFE" opacity="1.000000" stroke="none" 
	d="
M779.447815,353.999817 
	C779.447998,340.175842 779.561401,326.850311 779.375610,313.528961 
	C779.323242,309.769531 780.187500,308.254669 784.318298,308.345428 
	C793.481384,308.546753 793.476990,308.323608 797.169556,316.854767 
	C804.431641,333.632599 811.705261,350.405426 819.166748,367.624908 
	C820.698181,365.941956 820.112976,364.260040 820.117126,362.807495 
	C820.164185,346.319275 820.285889,329.828827 820.049255,313.343842 
	C819.990601,309.257935 821.355469,308.338867 825.160828,308.365936 
	C837.011230,308.450256 837.012329,308.308441 837.012268,319.912231 
	C837.012268,350.890411 836.907349,381.869324 837.127991,412.845947 
	C837.160278,417.367188 835.796326,418.117157 831.578979,418.371826 
	C825.564392,418.735016 822.579285,416.994476 820.329407,411.059174 
	C814.026062,394.430817 806.852295,378.132263 800.008911,361.709015 
	C799.329407,360.078308 798.560913,358.484680 797.096558,356.954742 
	C797.015381,358.495483 796.865051,360.036194 796.863525,361.577026 
	C796.846497,378.898163 796.739807,396.220581 796.939697,413.539398 
	C796.983826,417.360748 795.782043,418.282928 792.114197,418.267334 
	C779.447937,418.213531 779.447327,418.352814 779.447388,405.463898 
	C779.447449,388.475861 779.447571,371.487854 779.447815,353.999817 
z"/>
<path fill="#F9FDFE" opacity="1.000000" stroke="none" 
	d="
M1188.620239,308.448486 
	C1192.258301,307.898560 1193.737427,309.547211 1194.936035,312.368439 
	C1202.156006,329.362457 1209.537720,346.287781 1216.876465,363.231262 
	C1217.457764,364.573181 1218.124146,365.878235 1218.818359,367.342896 
	C1220.515503,366.006012 1219.773071,364.407196 1219.777954,363.084442 
	C1219.840820,346.422180 1219.940552,329.758026 1219.729248,313.098206 
	C1219.680420,309.246857 1220.949341,308.360291 1224.568604,308.367737 
	C1236.552368,308.392426 1236.552734,308.259094 1236.552612,320.413818 
	C1236.552612,351.072845 1236.471802,381.732330 1236.642456,412.390411 
	C1236.666870,416.787842 1235.662109,418.131104 1230.959351,418.410156 
	C1224.713745,418.780701 1222.053467,416.554169 1219.853638,410.849182 
	C1213.331909,393.936676 1206.078247,377.306366 1199.103149,360.568817 
	C1198.484863,359.085205 1197.812012,357.624298 1196.180908,356.281281 
	C1196.180908,358.819458 1196.180786,361.357605 1196.180786,363.895782 
	C1196.180664,380.391663 1196.088745,396.888489 1196.253296,413.382721 
	C1196.288818,416.925964 1195.575317,418.307770 1191.640015,418.283600 
	C1179.148193,418.206757 1179.147095,418.383789 1179.147095,405.795624 
	C1179.147095,376.302979 1179.147095,346.810303 1179.147095,317.317657 
	C1179.147095,308.447174 1179.147217,308.447174 1188.620239,308.448486 
z"/>
<path fill="#FCFEFF" opacity="1.000000" stroke="none" 
	d="
M416.008240,221.879730 
	C419.808350,226.011795 424.267120,226.223816 428.652618,224.488602 
	C432.890259,222.811890 433.910583,218.769302 434.022156,214.581009 
	C434.137421,210.253952 434.247650,205.919174 434.110382,201.595718 
	C434.023468,198.857925 434.856598,197.509186 437.764557,197.806793 
	C439.082977,197.941696 440.426941,197.826416 441.759308,197.826187 
	C454.425903,197.824097 454.461212,197.826004 453.804016,210.601379 
	C453.658997,213.420731 453.334991,216.254364 452.805603,219.026459 
	C450.360596,231.829758 442.760742,238.671143 429.751984,240.188385 
	C425.236420,240.715057 420.768768,240.591080 416.316772,239.937378 
	C403.293396,238.025116 394.947937,229.944305 393.589539,214.671616 
	C391.791534,194.456589 391.705963,174.022385 393.613739,153.812332 
	C395.331329,135.616867 405.867706,126.104233 429.700775,128.382568 
	C445.552856,129.897934 452.983368,139.167160 453.835907,156.682129 
	C454.461945,169.544281 454.461945,169.544708 441.812775,169.541229 
	C440.313873,169.540817 438.811859,169.469131 437.316803,169.542526 
	C434.986206,169.656906 434.077209,168.677322 434.118835,166.296753 
	C434.200256,161.637573 434.228241,156.962280 433.933746,152.315521 
	C433.553558,146.317139 430.511963,143.366379 424.904572,143.036743 
	C419.207794,142.701843 415.119263,145.623474 414.023804,151.097168 
	C413.504822,153.690155 413.221893,156.373718 413.210419,159.017883 
	C413.138916,175.505783 413.137360,191.994293 413.199036,208.482269 
	C413.215820,212.975174 413.469086,217.479156 416.008240,221.879730 
z"/>
<path fill="#FCFEFF" opacity="1.000000" stroke="none" 
	d="
M723.714600,415.803528 
	C723.073242,418.513428 721.234314,418.154785 719.611511,418.164734 
	C715.948425,418.187164 712.264038,417.928589 708.627625,418.241180 
	C704.903748,418.561310 704.189697,417.325775 704.930115,413.811005 
	C708.459778,397.054932 711.774963,380.253693 715.174194,363.470123 
	C718.541016,346.847107 722.047119,330.250549 725.196289,313.586456 
	C725.968628,309.499634 727.545044,307.963776 731.724182,308.374939 
	C735.682312,308.764313 739.713928,308.587097 743.703125,308.419586 
	C746.550842,308.300018 747.664429,309.284424 748.248108,312.220490 
	C754.407471,343.203766 760.751770,374.150330 767.043823,405.107239 
	C767.076965,405.270111 767.093689,405.436462 767.116089,405.601440 
	C767.665161,409.646057 771.017456,415.712341 768.592773,417.227722 
	C764.235901,419.950714 757.981689,418.078674 752.524292,418.062500 
	C750.175415,418.055542 750.423889,415.838593 750.143372,414.307404 
	C749.063965,408.416840 747.918213,402.531342 747.110474,396.601288 
	C746.745728,393.922791 745.773499,393.038544 743.030518,392.940491 
	C727.657532,392.391113 727.658020,392.316864 725.109009,407.505188 
	C724.668579,410.129395 724.254150,412.757935 723.714600,415.803528 
z"/>
<path fill="#FCFEFF" opacity="1.000000" stroke="none" 
	d="
M1004.301514,416.259949 
	C1002.566284,419.775787 999.627075,418.038757 997.302490,418.080353 
	C985.766907,418.286865 985.764893,418.175293 983.926086,406.665710 
	C981.734985,392.951141 981.733398,393.085297 967.863281,392.920349 
	C964.010132,392.874542 962.210876,393.719727 961.819397,397.913971 
	C961.295593,403.525848 959.834778,409.043945 959.031494,414.638947 
	C958.645569,417.326874 957.526184,418.358521 954.811707,418.215912 
	C951.324036,418.032654 947.780579,417.845612 944.331299,418.253479 
	C939.625000,418.810028 939.277344,416.848694 940.101379,412.941132 
	C944.356384,392.761871 948.417480,372.541687 952.553467,352.337311 
	C955.289124,338.973999 958.146423,325.634003 960.693787,312.234985 
	C961.249817,309.310303 962.357971,308.293243 965.225525,308.418182 
	C969.214905,308.592010 973.247070,308.761566 977.206604,308.375793 
	C981.390381,307.968170 982.932922,309.528870 983.731018,313.603363 
	C989.357666,342.329163 995.235168,371.005798 1001.026062,399.699432 
	C1002.112183,405.080841 1003.169434,410.468048 1004.301514,416.259949 
z"/>
<path fill="#FCFEFF" opacity="1.000000" stroke="none" 
	d="
M445.716705,375.138336 
	C448.378845,388.276825 450.793091,401.034302 453.577484,413.710480 
	C454.400146,417.455536 453.415039,418.217682 449.841614,418.245026 
	C435.301819,418.356201 435.302582,418.457703 433.039093,404.131348 
	C431.281433,393.006317 431.280151,392.901276 419.865387,393.040283 
	C410.761505,393.151123 413.059479,391.357941 411.052673,400.421021 
	C410.729492,401.880585 410.530731,403.367340 410.223328,404.830811 
	C409.311707,409.171326 410.421661,415.729553 407.122772,417.333679 
	C402.784485,419.443268 396.739929,418.040680 391.429199,418.154755 
	C388.213867,418.223816 389.167297,416.190765 389.525940,414.428253 
	C393.174530,396.497711 396.820374,378.566589 400.459991,360.634216 
	C403.669769,344.819550 406.943420,329.017181 410.018707,313.176361 
	C410.692474,309.705658 411.950653,307.997223 415.814911,308.377258 
	C419.609528,308.750458 423.484619,308.670044 427.296448,308.397736 
	C430.931702,308.138031 432.459503,309.279510 433.192230,313.096130 
	C437.143066,333.675690 441.435608,354.189667 445.716705,375.138336 
z"/>
<path fill="#FCFEFF" opacity="1.000000" stroke="none" 
	d="
M603.167236,129.154160 
	C608.105164,129.410324 613.547119,127.421089 616.775146,129.966400 
	C620.023376,132.527664 619.245728,138.261566 620.139160,142.616638 
	C626.292664,172.613007 632.357605,202.627502 638.470947,232.632111 
	C639.804260,239.176102 639.841248,239.168564 633.411743,239.173950 
	C621.020264,239.184326 621.020264,239.184326 618.813843,226.766678 
	C616.507690,213.787857 616.504822,213.963715 603.027588,213.742142 
	C598.821289,213.672974 597.153381,214.807465 596.757507,219.118286 
	C596.241760,224.733704 594.834717,230.262955 593.939697,235.849869 
	C593.561157,238.212173 592.571655,239.334290 590.018372,239.214218 
	C586.360291,239.042145 582.659302,238.885132 579.029175,239.247772 
	C574.674866,239.682739 574.242249,237.929398 575.016479,234.211670 
	C580.274902,208.961945 585.383789,183.681046 590.526917,158.407349 
	C592.086548,150.743073 593.862976,143.109573 595.041077,135.385864 
	C595.771790,130.595367 597.606262,128.131821 603.167236,129.154160 
z"/>
<path fill="#FCFEFF" opacity="1.000000" stroke="none" 
	d="
M843.315063,233.193146 
	C850.172729,199.705582 856.999512,166.638077 863.597534,133.524979 
	C864.311035,129.944168 865.678101,128.811310 869.157104,129.101273 
	C874.440186,129.541626 880.863647,127.169250 884.748840,130.004471 
	C888.477539,132.725510 887.621643,139.484100 888.655518,144.470718 
	C894.834045,174.271484 900.696716,204.137985 906.946411,233.923477 
	C907.948303,238.698334 906.572510,239.672791 902.263794,239.222778 
	C897.985413,238.775909 892.629272,240.872894 889.638306,238.386902 
	C886.644043,235.898285 887.506104,230.327957 886.736938,226.099762 
	C884.506287,213.837280 884.527588,214.056931 871.928650,213.730240 
	C867.198669,213.607574 865.019043,214.686096 864.676880,219.760040 
	C864.332214,224.872696 862.696472,229.887085 862.137878,235.000412 
	C861.752991,238.523773 860.170410,239.453171 856.953125,239.219513 
	C853.971008,239.002914 850.928101,238.893494 847.970337,239.238022 
	C843.250916,239.787766 841.647644,238.141098 843.315063,233.193146 
z"/>
<path fill="#FCFEFF" opacity="1.000000" stroke="none" 
	d="
M662.290466,341.402527 
	C668.158020,349.047913 675.756592,354.313446 682.515503,360.471985 
	C691.916138,369.037689 699.071838,378.668335 699.034973,392.193604 
	C698.989014,409.047119 687.345947,420.499451 670.493591,419.814331 
	C651.397034,419.037994 642.777466,408.440582 641.008240,388.781311 
	C640.818237,386.670593 641.695007,385.749207 643.620850,385.372498 
	C647.540894,384.605713 651.466858,383.854126 655.354736,382.943634 
	C658.154297,382.287933 658.870117,383.514587 658.893799,386.049652 
	C658.933105,390.259003 659.853882,394.327728 661.767761,398.091187 
	C664.256042,402.983978 669.059448,405.166138 673.810120,403.723541 
	C677.616943,402.567535 680.110901,398.372040 679.780090,393.238983 
	C679.351868,386.594391 676.437439,381.100922 671.484802,376.712250 
	C665.252075,371.189240 658.969543,365.722107 652.688110,360.254333 
	C643.226868,352.018707 639.585144,341.566132 641.353699,329.319885 
	C643.562561,314.024109 656.486938,305.332275 673.387085,307.308014 
	C687.902649,309.004974 694.874817,317.298065 696.957153,334.319763 
	C697.214600,336.423889 696.343628,337.432068 694.359436,337.714508 
	C693.535095,337.831848 692.714111,337.974670 691.893982,338.119354 
	C688.293152,338.754791 684.205017,340.742859 681.226746,339.664093 
	C678.091187,338.528320 679.551941,333.528442 678.545471,330.324249 
	C676.703369,324.459625 673.419678,321.969849 668.009705,322.702301 
	C662.760803,323.412964 660.023804,326.966492 659.994995,332.956238 
	C659.980957,335.868134 660.712769,338.546753 662.290466,341.402527 
z"/>
<path fill="#F8FDFE" opacity="1.000000" stroke="none" 
	d="
M990.557556,208.998535 
	C990.560669,213.495590 990.686218,217.498276 990.526001,221.489456 
	C990.411560,224.341766 991.555542,225.253815 994.327148,225.184692 
	C1000.320007,225.035233 1006.325378,225.304550 1012.313599,225.080978 
	C1015.690674,224.954895 1016.960144,225.880844 1016.943970,229.500031 
	C1016.900696,239.183456 1017.072327,239.184341 1007.166077,239.184235 
	C996.338745,239.184113 985.509766,239.075699 974.685181,239.247711 
	C971.335388,239.300949 970.057312,238.463348 970.070740,234.842041 
	C970.195984,201.027969 970.181030,167.213150 970.086365,133.398895 
	C970.077393,130.198914 970.940430,129.034363 974.287292,129.077896 
	C987.111389,129.244736 999.939392,129.208862 1012.764648,129.095886 
	C1015.532532,129.071503 1016.489075,129.921783 1016.618896,132.760513 
	C1017.126404,143.860901 1017.223511,143.855911 1006.245728,143.856750 
	C1002.247925,143.857056 998.243896,143.998688 994.254517,143.816208 
	C991.390625,143.685211 990.480957,144.815002 990.523071,147.583023 
	C990.644592,155.576736 990.630920,163.574188 990.533630,171.568512 
	C990.502502,174.128250 991.395386,175.120560 994.010010,175.024261 
	C998.335022,174.864975 1002.676331,175.123871 1006.999084,174.936554 
	C1009.854309,174.812805 1011.072937,175.421432 1011.106628,178.705246 
	C1011.214050,189.185852 1011.372009,189.184235 1000.715149,189.184280 
	C990.558105,189.184326 990.558167,189.184326 990.557983,199.504303 
	C990.557983,202.502625 990.557861,205.500931 990.557556,208.998535 
z"/>
<path fill="#FEFFFF" opacity="1.000000" stroke="none" 
	d="
M563.895020,239.168457 
	C551.407227,239.168396 539.408752,239.071579 527.413696,239.231018 
	C524.140930,239.274506 522.738892,238.632019 522.753723,234.919205 
	C522.888672,201.094360 522.867126,167.268661 522.776306,133.443512 
	C522.767883,130.298965 523.515625,129.041428 526.924683,129.089676 
	C539.585815,129.268921 552.252380,129.264603 564.913696,129.091217 
	C568.260681,129.045410 569.077881,130.171539 569.080627,133.383270 
	C569.089722,143.840683 569.218567,143.718628 558.651794,143.893372 
	C553.565308,143.977478 546.777649,141.607925 543.880615,144.984268 
	C541.370972,147.909180 543.090820,154.496506 543.015320,159.466141 
	C542.954590,163.464264 543.175232,167.473770 542.948975,171.459930 
	C542.781128,174.416672 543.968384,175.161743 546.701782,175.045029 
	C551.026184,174.860382 555.368835,175.117752 559.694885,174.953552 
	C562.346985,174.852890 563.485901,175.498489 563.604431,178.477585 
	C564.029968,189.173569 564.151367,189.168732 553.336487,189.168747 
	C543.002930,189.168762 543.002930,189.168762 543.002930,199.644821 
	C543.002991,206.476547 543.290588,213.324768 542.899841,220.134064 
	C542.648376,224.515106 544.259705,225.475296 548.266663,225.242401 
	C553.912903,224.914200 559.597900,225.308441 565.255737,225.102814 
	C568.356628,224.990112 569.480164,226.117661 569.197693,229.127029 
	C569.027161,230.943878 568.958496,232.819107 569.210388,234.616776 
	C569.762024,238.553833 567.937378,239.712769 563.895020,239.168457 
z"/>
<path fill="#F6FCFE" opacity="1.000000" stroke="none" 
	d="
M881.136108,318.761292 
	C881.135315,308.429901 881.135315,308.429749 891.163696,308.429901 
	C905.146729,308.430084 919.130920,308.531616 933.111877,308.360474 
	C936.647461,308.317200 937.639221,309.493774 937.646973,312.945190 
	C937.670837,323.564850 937.806335,323.526031 927.236633,323.582245 
	C918.671997,323.627777 919.900024,322.778564 919.884155,331.106628 
	C919.831848,358.573181 919.795593,386.040253 919.945984,413.506073 
	C919.966125,417.171844 919.092773,418.614441 915.267761,418.275787 
	C911.633972,417.954071 907.923218,417.932526 904.294250,418.280060 
	C900.228149,418.669464 899.332581,417.051849 899.352539,413.239441 
	C899.497131,385.607056 899.432251,357.973602 899.428223,330.340485 
	C899.427246,323.582336 899.418030,323.581421 892.691772,323.570679 
	C890.194824,323.566711 887.684326,323.403534 885.204163,323.606934 
	C881.819824,323.884460 880.684082,322.360992 881.136108,318.761292 
z"/>
<path fill="#F6FCFE" opacity="1.000000" stroke="none" 
	d="
M1043.172363,323.803467 
	C1041.220337,325.675293 1041.902344,327.765594 1041.898804,329.685852 
	C1041.848633,357.478577 1041.773438,385.272034 1041.962402,413.063568 
	C1041.990723,417.231171 1040.894287,418.687347 1036.712646,418.280365 
	C1033.085571,417.927338 1029.378662,417.977631 1025.740845,418.270691 
	C1022.086731,418.565033 1021.353699,417.025146 1021.366943,413.688812 
	C1021.478638,385.563568 1021.328796,357.436981 1021.530029,329.312775 
	C1021.562988,324.709839 1020.220154,322.852753 1015.661316,323.556793 
	C1015.011108,323.657227 1014.332092,323.570404 1013.666382,323.570129 
	C1002.071533,323.565094 1001.348206,322.641754 1002.929565,310.940277 
	C1003.201355,308.929108 1004.080750,308.444092 1005.795532,308.444946 
	C1022.770691,308.453583 1039.745850,308.449493 1056.720947,308.448059 
	C1058.185425,308.447937 1059.461670,308.797791 1059.488037,310.559845 
	C1059.542725,314.218933 1059.586182,317.882355 1059.464355,321.538361 
	C1059.393188,323.675140 1057.621826,323.539429 1056.122314,323.558197 
	C1051.963013,323.610229 1047.803467,323.637726 1043.172363,323.803467 
z"/>
<path fill="#F8FDFE" opacity="1.000000" stroke="none" 
	d="
M944.856445,185.000031 
	C944.856140,201.998093 944.779968,218.496826 944.921326,234.993668 
	C944.948853,238.196793 944.098022,239.468063 940.761169,239.256516 
	C936.777710,239.003967 932.749084,238.970535 928.771301,239.264648 
	C925.135437,239.533493 924.363586,238.058716 924.377319,234.694809 
	C924.492310,206.531921 924.330139,178.367477 924.548584,150.205826 
	C924.585938,145.390732 923.250244,143.385056 918.423584,144.188110 
	C917.937134,144.269058 917.425537,144.198929 916.925598,144.198700 
	C905.470459,144.193558 905.539062,144.196838 906.093323,132.684052 
	C906.211914,130.220459 906.803894,129.094116 909.501038,129.107849 
	C925.998596,129.191925 942.497070,129.186111 958.994751,129.106125 
	C961.518311,129.093903 962.434021,129.883728 962.609314,132.492157 
	C963.396179,144.197571 963.476746,144.143188 951.934509,144.215485 
	C943.896667,144.265823 944.923096,143.184875 944.872864,151.503937 
	C944.806396,162.502274 944.856506,173.501297 944.856445,185.000031 
z"/>
<path fill="#FEFFFF" opacity="1.000000" stroke="none" 
	d="
M487.001648,141.021957 
	C487.001770,167.823227 487.068970,194.129395 486.923645,220.434402 
	C486.903748,224.035126 487.656952,225.474457 491.551422,225.248245 
	C497.359009,224.910904 503.207489,225.329849 509.025482,225.098145 
	C512.359863,224.965378 513.229004,226.169586 513.241943,229.390427 
	C513.281250,239.167435 513.416443,239.167114 503.632294,239.166901 
	C492.810272,239.166656 481.987244,239.083191 471.166931,239.218628 
	C468.138092,239.256546 466.749664,238.679825 466.762238,235.176163 
	C466.883881,201.212143 466.879517,167.247360 466.766205,133.283295 
	C466.754944,129.908127 467.903687,128.938248 471.083221,129.110764 
	C475.067322,129.326920 479.081085,129.327744 483.064941,129.109375 
	C486.090668,128.943527 487.325836,129.924713 487.045441,133.038376 
	C486.822357,135.515640 487.001221,138.029099 487.001648,141.021957 
z"/>
<path fill="#FEFFFF" opacity="1.000000" stroke="none" 
	d="
M852.998413,320.026917 
	C852.998413,308.468872 852.998413,308.468842 864.231934,308.469147 
	C873.001526,308.469391 873.001648,308.469421 873.001648,317.002228 
	C873.001587,348.965820 872.933105,380.929718 873.088684,412.892548 
	C873.107971,416.854614 872.384583,418.719727 867.998657,418.230011 
	C863.240479,417.698761 857.045349,420.152008 854.003601,417.322693 
	C850.898376,414.434143 853.065918,408.187408 853.048340,403.426483 
	C852.946289,375.791687 852.998413,348.156342 852.998413,320.026917 
z"/>
<path fill="#FCFEFF" opacity="1.000000" stroke="none" 
	d="
M1087.845825,323.007874 
	C1087.845703,353.309082 1087.770020,383.112122 1087.934082,412.913818 
	C1087.956421,416.972839 1087.006958,418.730225 1082.729004,418.218353 
	C1077.996704,417.652039 1071.855835,420.234863 1068.827271,417.154877 
	C1066.041748,414.322052 1068.037842,408.280457 1068.027588,403.660187 
	C1067.960815,373.691223 1068.066162,343.721649 1067.905884,313.753387 
	C1067.884644,309.773499 1068.654419,307.939911 1073.023315,308.383667 
	C1076.648926,308.751892 1080.349731,308.612427 1084.001953,308.415985 
	C1087.136230,308.247437 1088.076172,309.556885 1087.891846,312.522491 
	C1087.685791,315.839569 1087.845337,319.179382 1087.845825,323.007874 
z"/>
<path fill="#26BDE2" opacity="1.000000" stroke="none" 
	d="
M584.970581,727.032776 
	C563.588562,733.952698 542.213135,738.629944 520.021057,739.079956 
	C516.483215,739.151794 515.205017,738.137695 514.534607,734.615967 
	C508.030762,700.449402 501.376068,666.311157 494.593109,632.198914 
	C493.950439,628.966858 494.973999,628.348450 497.707092,628.522827 
	C498.868744,628.596985 500.039276,628.530457 501.205750,628.530457 
	C667.012451,628.530212 832.819214,628.530151 998.625916,628.530273 
	C999.625732,628.530273 1000.641541,628.647339 1001.622681,628.512329 
	C1005.870789,627.927856 1006.637146,629.889465 1005.996521,633.694397 
	C1002.431946,654.867126 999.018066,676.065308 995.556396,697.255371 
	C994.348999,704.646484 993.162292,712.041077 991.943909,719.430420 
	C991.625549,721.361450 991.814514,723.466125 988.448425,722.390381 
	C971.481384,716.968506 955.218994,720.421692 939.276367,726.789307 
	C917.318359,735.559570 895.169800,743.704102 872.051147,748.993408 
	C832.642151,758.009766 794.020508,754.318665 755.796692,742.405884 
	C734.788391,735.858459 714.906738,726.371399 694.150879,719.182983 
	C669.580322,710.673645 644.740479,706.706482 619.286499,715.144897 
	C607.923096,718.912109 596.664917,722.997009 584.970581,727.032776 
z"/>
<path fill="#26BDE2" opacity="1.000000" stroke="none" 
	d="
M758.969482,1075.430664 
	C746.198303,1075.103271 733.929688,1075.532471 721.851318,1072.089600 
	C681.016418,1060.450073 654.542786,1019.746216 660.452942,977.632202 
	C663.015991,959.368347 669.048767,942.491943 678.773254,926.870178 
	C701.650879,890.118774 725.756897,854.169312 749.647888,818.078430 
	C751.494202,815.289246 752.404602,815.104492 754.326416,818.033386 
	C778.708557,855.191345 803.973694,891.791748 826.848816,929.906189 
	C841.894653,954.975403 848.605103,982.098511 841.272339,1011.269470 
	C832.005554,1048.134155 800.016846,1073.702515 761.950439,1075.181641 
	C761.120361,1075.213745 760.293762,1075.332642 758.969482,1075.430664 
z"/>
<path fill="#26BDE2" opacity="1.000000" stroke="none" 
	d="
M195.281433,379.328522 
	C186.319656,378.232941 181.774460,372.634796 178.928894,365.230377 
	C175.589172,356.540100 175.089691,347.389893 175.027039,338.223358 
	C174.933762,324.578369 175.081467,310.931519 174.942017,297.287323 
	C174.910767,294.230743 175.765656,291.817719 177.800537,289.642517 
	C181.143295,286.069214 184.873749,283.116211 189.590469,281.537537 
	C203.149704,276.999237 214.455215,283.389557 216.886551,297.836273 
	C219.460983,313.133392 219.275238,328.630829 218.324005,344.100708 
	C217.894608,351.083679 217.221832,358.017761 215.239319,364.768402 
	C212.072220,375.552551 206.891724,379.454437 195.281433,379.328522 
z"/>
<path fill="#31C0E4" opacity="1.000000" stroke="none" 
	d="
M1068.449829,157.419662 
	C1068.377441,159.986389 1068.397827,162.155182 1068.113647,164.283325 
	C1066.938232,173.086426 1057.591919,178.851196 1049.174438,176.131058 
	C1047.707153,175.656937 1047.492920,174.713608 1047.491699,173.519958 
	C1047.482910,164.223618 1047.493164,154.927261 1047.503418,145.630905 
	C1047.505127,144.053955 1048.203857,143.187134 1049.889893,143.160339 
	C1062.267334,142.963577 1067.656372,145.259201 1068.449829,157.419662 
z"/>
<path fill="#26BDE2" opacity="1.000000" stroke="none" 
	d="
M575.335327,397.975098 
	C571.967468,403.018555 564.219421,405.616241 558.816223,403.978973 
	C556.965698,403.418243 557.195068,402.112122 557.194153,400.847443 
	C557.175903,375.894104 557.176086,350.940796 557.198486,325.987457 
	C557.199463,324.897247 556.986206,323.757416 558.491028,323.113373 
	C565.762878,320.001282 576.181885,325.370850 576.527527,333.427338 
	C577.389893,353.521851 577.474670,373.651276 576.433716,393.758911 
	C576.366394,395.061096 575.841370,396.339600 575.335327,397.975098 
z"/>
<path fill="#26BDE2" opacity="1.000000" stroke="none" 
	d="
M1144.991699,354.000244 
	C1144.991699,365.146362 1144.999634,375.792542 1144.986694,386.438721 
	C1144.982910,389.597504 1144.931641,392.746124 1144.212891,395.860657 
	C1142.807373,401.951477 1139.348755,404.788635 1133.361084,404.620117 
	C1127.460083,404.454010 1123.960938,401.323334 1123.078491,395.152344 
	C1122.703247,392.528503 1122.559692,389.849182 1122.570190,387.196075 
	C1122.641113,369.069397 1122.523438,350.936035 1123.010132,332.819458 
	C1123.243652,324.132355 1129.774292,320.223724 1137.996216,322.892914 
	C1143.478027,324.672546 1144.411255,329.378418 1144.710693,334.048706 
	C1145.125244,340.511993 1144.927368,347.014526 1144.991699,354.000244 
z"/>
<path fill="#31C0E4" opacity="1.000000" stroke="none" 
	d="
M733.460205,357.434143 
	C734.537964,351.041046 735.519470,345.072876 736.500977,339.104675 
	C736.864258,339.110565 737.227539,339.116455 737.590820,339.122345 
	C739.366638,349.831573 741.216797,360.529175 742.894653,371.253723 
	C744.243286,379.874023 744.139648,379.615479 735.465271,379.966492 
	C730.557617,380.165100 729.537598,378.770081 730.709534,374.096039 
	C732.038635,368.795135 732.516174,363.280670 733.460205,357.434143 
z"/>
<path fill="#31C0E4" opacity="1.000000" stroke="none" 
	d="
M974.213196,348.660522 
	C975.787354,358.095886 977.237732,367.112122 978.828491,376.103516 
	C979.334351,378.962952 978.441101,379.828888 975.522339,379.925537 
	C964.549194,380.288757 964.628784,380.405548 966.503967,369.714447 
	C968.110657,360.554901 969.510071,351.359039 971.018555,342.182129 
	C971.223511,340.935333 970.895813,339.472992 972.570007,338.445618 
	C973.111145,341.810547 973.627441,345.021118 974.213196,348.660522 
z"/>
<path fill="#31C0E4" opacity="1.000000" stroke="none" 
	d="
M418.037476,358.001343 
	C419.145538,351.201660 420.203033,344.835419 421.444427,337.362274 
	C423.586243,343.411163 423.762482,348.799835 424.733612,353.995392 
	C426.133392,361.484497 427.080017,369.057587 428.418671,376.559357 
	C428.845367,378.950317 428.369537,379.720581 425.849579,379.912750 
	C414.378937,380.787506 414.373444,380.862793 416.112122,369.711395 
	C416.699127,365.946625 417.359894,362.193359 418.037476,358.001343 
z"/>
<path fill="#31C0E4" opacity="1.000000" stroke="none" 
	d="
M608.574402,165.476059 
	C610.343445,176.043396 611.947083,186.222183 613.720154,196.371368 
	C614.224121,199.256088 613.819519,200.534821 610.427551,200.634537 
	C599.570496,200.953659 599.653137,201.104004 601.531006,190.332291 
	C603.129211,181.164246 604.512085,171.958710 606.010071,162.772995 
	C606.188599,161.678787 605.947815,160.415939 607.474854,159.344101 
	C607.830688,161.386780 608.151978,163.231522 608.574402,165.476059 
z"/>
<path fill="#31C0E4" opacity="1.000000" stroke="none" 
	d="
M868.808472,195.522385 
	C870.799011,183.201782 872.723022,171.300400 874.647034,159.399017 
	C874.970093,159.421860 875.293152,159.444702 875.616150,159.467545 
	C877.693909,172.019836 879.730835,184.579132 881.880737,197.119064 
	C882.358215,199.904083 881.242432,200.706741 878.692627,200.574509 
	C876.533875,200.462555 874.345581,200.373871 872.203918,200.597137 
	C868.248474,201.009521 867.580566,199.213684 868.808472,195.522385 
z"/>
</svg>