<svg version="1.1" id="Layer_1" xmlns="http://www.w3.org/2000/svg" xmlns:xlink="http://www.w3.org/1999/xlink" x="0px" y="0px"
	 width="100%" viewBox="0 0 1500 1500" enable-background="new 0 0 1500 1500" xml:space="preserve">
<path fill="#DD1367" opacity="1.000000" stroke="none" 
	d="
M1.000000,557.000000 
	C1.000000,371.333374 1.000000,186.166733 1.000000,1.000075 
	C500.999878,1.000050 1000.999756,1.000050 1500.999756,1.000025 
	C1500.999756,500.999786 1500.999756,1000.999573 1500.999878,1500.999512 
	C1001.000305,1500.999756 501.000610,1500.999756 1.000452,1500.999878 
	C1.000000,1186.500000 1.000000,872.000000 1.000000,557.000000 
M247.069550,135.529037 
	C234.526550,142.927460 226.105057,153.799774 220.556290,167.068832 
	C215.211731,179.849594 213.047363,193.269531 213.024506,207.029449 
	C212.951385,251.017227 212.901215,295.005615 213.088928,338.992706 
	C213.121445,346.610809 213.689407,354.354980 215.158646,361.814697 
	C219.766037,385.207916 231.117355,404.049927 253.506363,414.565826 
	C266.140869,420.500122 279.699951,421.877991 293.479279,421.493225 
	C322.039276,420.695770 344.222717,409.211365 357.359039,382.912628 
	C363.961548,369.694580 366.454041,355.489594 366.479584,340.848633 
	C366.557129,296.361023 366.639648,251.872421 366.389374,207.386078 
	C366.342865,199.117859 365.512665,190.692657 363.740967,182.626129 
	C358.621429,159.316376 347.208588,140.004791 323.735291,131.495941 
	C298.202820,122.240654 272.507294,122.856842 247.069550,135.529037 
M869.499878,1076.167847 
	C875.497253,1076.167725 881.506470,1075.936279 887.488342,1076.240967 
	C892.271057,1076.484497 893.943909,1074.725708 893.913757,1069.917236 
	C893.751709,1044.096069 893.845093,1018.273499 893.831787,992.451355 
	C893.828552,986.274292 893.406189,985.838318 887.361328,985.837769 
	C797.233887,985.829651 707.106384,985.829651 616.978943,985.837524 
	C610.781006,985.838013 610.504883,986.118713 610.501526,992.335144 
	C610.487915,1017.657471 610.494324,1042.979736 610.496521,1068.302124 
	C610.497192,1076.165771 610.501709,1076.167603 618.608582,1076.167603 
	C701.905701,1076.168091 785.202759,1076.167847 869.499878,1076.167847 
M610.495667,821.552979 
	C610.495728,845.209473 610.488708,868.865967 610.500610,892.522461 
	C610.503784,898.776611 610.733154,898.997803 616.968567,898.998047 
	C707.096619,899.002136 797.224670,899.002502 887.352722,898.997192 
	C893.479492,898.996826 893.829590,898.645935 893.832458,892.421875 
	C893.844299,867.099365 893.838684,841.776917 893.836792,816.454407 
	C893.836243,808.834900 893.832153,808.832458 885.978149,808.832397 
	C798.015808,808.831787 710.053528,808.804993 622.091187,808.861450 
	C609.081543,808.869751 610.616150,806.757019 610.495667,821.552979 
M1007.488647,872.499573 
	C1007.488708,938.965210 1007.473694,1005.430847 1007.564575,1071.896362 
	C1007.567200,1073.817505 1008.690979,1075.737061 1009.292053,1077.657349 
	C1010.909119,1076.676880 1012.802429,1075.973267 1014.102905,1074.675659 
	C1056.790527,1032.083618 1099.394287,989.407532 1142.111938,946.845764 
	C1145.528320,943.441895 1145.395874,941.122864 1142.048462,937.787170 
	C1099.334229,895.222046 1056.729614,852.546814 1014.033875,809.962952 
	C1012.753601,808.685974 1010.785645,808.098328 1009.138245,807.189270 
	C1008.588501,808.969604 1007.571289,810.747192 1007.560852,812.530701 
	C1007.446533,832.186462 1007.488831,851.843079 1007.488647,872.499573 
M478.324127,821.824036 
	C439.800293,860.348083 401.275330,898.871033 362.754150,937.397766 
	C358.181854,941.970642 358.193451,942.801270 362.851471,947.459534 
	C405.144043,989.755676 447.438782,1032.049561 489.733032,1074.344116 
	C490.439819,1075.050903 491.053162,1075.909790 491.880951,1076.421387 
	C492.796661,1076.987183 494.263306,1077.833252 494.854919,1077.483521 
	C495.790344,1076.930298 496.423859,1075.548706 496.760742,1074.393921 
	C497.074615,1073.318115 496.837982,1072.080688 496.837982,1070.914429 
	C496.838501,985.276550 496.838562,899.638611 496.837860,814.000732 
	C496.837860,812.834534 497.063019,811.602722 496.760284,810.519836 
	C496.431763,809.344788 495.831085,807.722290 494.935211,807.380798 
	C494.086548,807.057434 492.432037,807.857971 491.598022,808.653137 
	C487.258087,812.790771 483.067047,817.084595 478.324127,821.824036 
M780.500000,687.000854 
	C813.993042,687.000854 847.486023,687.000977 880.979065,687.000244 
	C882.145386,687.000244 883.317078,687.062622 884.476990,686.974304 
	C887.782837,686.722473 887.901550,684.796021 886.548218,682.495300 
	C885.893555,681.382324 884.723938,680.570862 883.781738,679.628662 
	C841.721069,637.565247 799.659851,595.502441 757.598694,553.439514 
	C752.523071,548.363525 751.801025,548.349121 746.789490,553.360046 
	C704.606934,595.537170 662.427856,637.717896 620.248169,679.897888 
	C619.659241,680.486877 618.889893,680.987305 618.531311,681.694702 
	C617.902466,682.935120 617.109680,684.345398 617.233826,685.600708 
	C617.290161,686.169922 619.342041,686.704041 620.550537,686.949768 
	C621.670776,687.177551 622.873474,687.000732 624.039856,687.000732 
	C675.859924,687.000854 727.679932,687.000854 780.500000,687.000854 
M798.174011,1290.674072 
	C826.792786,1262.053467 855.426453,1233.447876 883.985596,1204.767944 
	C885.385193,1203.362427 886.133179,1201.307983 887.184631,1199.555664 
	C885.287537,1198.981689 883.390930,1197.907227 881.493286,1197.905396 
	C795.215881,1197.822510 708.938354,1197.825684 622.660950,1197.885986 
	C620.820251,1197.887329 618.980042,1198.672852 617.139648,1199.092407 
	C618.042358,1200.873901 618.562683,1203.036499 619.903320,1204.381470 
	C662.350952,1246.966431 704.876648,1289.473877 747.395630,1331.987793 
	C751.792297,1336.383789 752.474976,1336.367798 757.040955,1331.805542 
	C770.590515,1318.266968 784.130432,1304.718628 798.174011,1290.674072 
M171.483810,416.505798 
	C175.908157,416.505798 180.332504,416.505798 184.815247,416.505798 
	C184.815247,320.528137 184.815247,225.290543 184.815247,129.494141 
	C173.181183,129.494141 161.717804,129.728683 150.271240,129.391815 
	C144.825836,129.231567 140.694504,130.682968 136.399948,134.231003 
	C123.089035,145.228073 107.505836,152.462387 91.951164,159.683212 
	C90.377289,160.413834 88.362106,162.430222 88.328400,163.890900 
	C88.040627,176.361969 88.163544,188.842499 88.163544,201.988907 
	C102.239555,196.941956 115.872520,192.053864 130.106049,186.950455 
	C130.106049,263.740845 130.106049,339.932220 130.106049,416.505737 
	C143.883102,416.505737 157.186340,416.505737 171.483810,416.505798 
M690.470642,439.849915 
	C691.349915,437.004242 692.013550,434.067749 693.164124,431.336334 
	C694.541748,428.065918 694.022583,425.747131 690.986023,423.757751 
	C688.218323,421.944458 685.680847,419.779541 682.500366,417.357147 
	C693.201050,411.263885 697.718811,403.080597 698.060669,393.356873 
	C698.738464,374.075226 699.534302,354.692261 698.297485,335.478851 
	C697.088074,316.689789 688.572144,308.661285 671.370178,307.381958 
	C651.325989,305.891205 637.024048,312.789612 635.951599,336.503723 
	C635.184875,353.457916 635.050415,370.491608 635.713257,387.447601 
	C636.702515,412.754639 648.863037,419.495880 667.063782,419.962341 
	C668.507690,419.999329 670.083679,421.467529 671.302673,422.591248 
	C677.492859,428.297882 683.585449,434.110321 690.470642,439.849915 
M518.017822,226.632675 
	C519.131775,230.773056 520.245728,234.913452 521.310059,238.869446 
	C528.129211,238.869446 534.545105,238.869446 541.316833,238.869446 
	C540.966675,237.242264 540.761047,235.968658 540.416443,234.733856 
	C536.174316,219.533600 531.863953,204.351990 527.732117,189.121918 
	C527.339722,187.675491 527.468323,184.965805 528.306824,184.477753 
	C538.760925,178.393173 539.795044,168.146942 539.660461,157.913177 
	C539.441223,141.239273 532.932922,132.618881 517.850891,130.556320 
	C505.427979,128.857407 492.724518,129.209778 479.793610,128.637512 
	C479.793610,165.958359 479.793610,202.322128 479.793610,238.825256 
	C486.518097,238.825256 493.056610,238.825256 499.954773,238.825256 
	C499.954773,222.191101 499.954773,205.910736 499.954773,189.690735 
	C508.085938,188.503281 508.072693,188.506744 510.017700,195.945114 
	C512.623413,205.910217 515.252197,215.869308 518.017822,226.632675 
M605.160767,131.892044 
	C605.160767,167.493484 605.160767,203.094910 605.160767,238.630386 
	C617.521606,238.630386 629.398071,239.580368 641.056885,238.393143 
	C656.084717,236.862854 664.290588,228.189499 664.902771,213.042374 
	C665.701477,193.278458 665.657104,173.433990 664.868225,153.668365 
	C664.318909,139.905350 655.683594,131.415619 642.084534,130.203506 
	C630.834839,129.200775 619.473511,129.413010 608.159241,129.240936 
	C607.180298,129.226044 606.183838,130.364075 605.160767,131.892044 
M890.496216,129.157394 
	C884.736084,129.157394 878.975891,129.157394 873.227173,129.157394 
	C873.227173,166.157791 873.227173,202.411530 873.227173,238.543015 
	C885.385376,238.543015 897.406921,239.496689 909.209534,238.296890 
	C923.343018,236.860153 931.179993,229.792084 932.133301,215.557495 
	C933.541382,194.533325 933.568787,173.297028 932.343079,152.258331 
	C931.529785,138.299057 922.563660,131.360153 908.429626,129.989914 
	C902.809692,129.445099 897.139526,129.419418 890.496216,129.157394 
M552.029480,366.221710 
	C544.330322,348.375488 536.683228,330.506378 528.847351,312.720398 
	C528.108032,311.042419 526.335693,308.930817 524.776489,308.680420 
	C521.076538,308.086182 517.216553,308.489197 513.222412,308.489197 
	C513.222412,345.229462 513.222412,381.448029 513.222412,417.759521 
	C518.977234,417.759521 524.491089,417.759521 530.418823,417.759521 
	C530.418823,397.164764 530.418823,376.986938 530.418823,356.809143 
	C531.902283,358.060608 532.590881,359.480743 533.195862,360.935638 
	C540.595337,378.730652 547.936523,396.550323 555.454285,414.295135 
	C556.106812,415.835419 557.769714,417.780457 559.196045,417.995758 
	C562.734436,418.529938 566.407654,418.171265 570.202026,418.171265 
	C570.202026,381.428772 570.202026,345.219604 570.202026,308.805511 
	C564.651367,308.805511 559.423096,308.805511 553.821106,308.805511 
	C553.821106,310.943176 553.821106,312.756073 553.821106,314.569000 
	C553.821045,330.887970 553.849854,347.207123 553.757751,363.525543 
	C553.751465,364.644073 552.840942,365.757477 552.029480,366.221710 
M770.853516,315.651123 
	C770.853516,313.396118 770.853516,311.141144 770.853516,308.878235 
	C763.880188,308.878235 757.650391,308.878235 751.146484,308.878235 
	C751.146484,311.103882 751.146423,312.926575 751.146423,314.749268 
	C751.146362,337.743683 751.229858,360.738647 751.076172,383.732056 
	C751.045349,388.347717 750.536865,393.057495 749.477478,397.541718 
	C748.409241,402.063171 744.847473,404.344147 740.172119,404.413208 
	C735.330322,404.484772 731.761841,402.285187 730.241394,397.619598 
	C729.427368,395.121826 728.936401,392.404144 728.914978,389.780640 
	C728.710876,364.793030 728.638184,339.804352 728.529724,314.815979 
	C728.521362,312.879242 728.528564,310.942474 728.528564,308.874054 
	C721.620117,308.874054 715.423096,308.874054 709.141296,308.874054 
	C709.076233,310.095795 708.994202,310.920929 708.993958,311.746033 
	C708.987122,336.573334 708.858948,361.401489 709.026733,386.227631 
	C709.176086,408.324554 717.636597,418.695343 737.452759,419.633789 
	C758.927246,420.650787 766.748230,412.068481 769.764587,396.019745 
	C770.559021,391.793060 770.787964,387.409668 770.807312,383.096161 
	C770.906982,360.935333 770.853516,338.773834 770.853516,315.651123 
M695.521851,156.500336 
	C695.521851,147.541046 695.521851,138.581757 695.521851,129.475800 
	C688.678650,129.475800 682.451477,129.475800 675.820374,129.475800 
	C675.820374,132.770126 675.814270,135.743622 675.821350,138.717087 
	C675.878296,162.545242 675.682312,186.378098 676.119629,210.199310 
	C676.299500,219.995499 678.468201,229.610489 687.359985,235.711411 
	C708.268433,250.057373 735.901978,237.357483 736.945923,212.219955 
	C738.071777,185.109634 737.566406,157.931473 737.742676,130.782700 
	C737.745544,130.349152 737.366882,129.913132 737.164673,129.474792 
	C730.832886,129.474792 724.588562,129.474792 717.990417,129.474792 
	C717.990417,131.598877 717.990417,133.407852 717.990417,135.216827 
	C717.990417,158.714111 718.042419,182.211639 717.937744,205.708466 
	C717.920776,209.507584 717.538574,213.375412 716.736389,217.084122 
	C715.543823,222.597153 712.147583,225.116287 706.870728,225.147354 
	C701.433777,225.179367 698.164062,222.900040 696.823975,217.351242 
	C695.974182,213.832809 695.605652,210.122742 695.577393,206.494278 
	C695.450134,190.163818 695.521851,173.831802 695.521851,156.500336 
M747.478149,177.508835 
	C747.648315,188.999725 747.355164,200.521408 748.116455,211.972992 
	C748.908875,223.891098 753.191162,234.191406 765.715210,238.498672 
	C774.309387,241.454376 783.107605,241.292160 791.761169,238.678268 
	C798.350891,236.687790 802.930725,232.257568 805.543152,225.866364 
	C809.166443,217.001816 808.982727,207.737930 808.731995,198.126648 
	C802.142212,198.126648 795.918518,198.126648 789.150940,198.126648 
	C789.150940,200.141632 789.177490,201.928223 789.145630,203.713791 
	C789.071350,207.877014 789.212097,212.062836 788.819336,216.197113 
	C788.264648,222.037064 784.944702,225.131241 779.553772,225.416443 
	C773.708984,225.725647 770.153259,223.070984 769.048157,217.050323 
	C768.390808,213.469223 768.088684,209.779877 768.054565,206.135193 
	C767.937683,193.637939 767.950623,181.138504 768.037476,168.640762 
	C768.074402,163.320389 768.051575,157.956436 768.710327,152.694199 
	C769.585876,145.700165 773.300598,142.728043 779.669922,143.025650 
	C785.771545,143.310745 788.704041,146.536423 788.953735,153.662766 
	C789.132568,158.764557 788.988525,163.877686 788.988525,169.183777 
	C795.977905,169.183777 802.222839,169.183777 809.101196,169.183777 
	C808.773193,163.201385 808.721252,157.556335 808.107178,151.973099 
	C806.536987,137.695877 799.604858,130.100510 785.338013,128.494720 
	C760.359497,125.683258 749.111145,136.313980 747.867004,159.034988 
	C747.548523,164.850967 747.597839,170.687073 747.478149,177.508835 
M796.849548,320.206055 
	C790.211304,352.701355 783.573120,385.196686 776.895752,417.883667 
	C783.665161,417.883667 789.750305,417.883667 795.994019,417.883667 
	C797.534058,409.502838 799.027954,401.372803 800.532288,393.186249 
	C806.919495,393.186249 812.878479,393.186249 819.189819,393.186249 
	C820.476746,400.480499 821.671326,407.680573 823.084167,414.837585 
	C823.320068,416.032501 824.459839,417.948578 825.258545,417.988220 
	C830.829041,418.264557 836.419739,418.134277 841.941589,418.134277 
	C842.003418,417.092590 842.095825,416.746094 842.032532,416.430817 
	C834.991089,381.374420 827.962708,346.315338 820.773193,311.289276 
	C820.545898,310.182251 818.687500,308.669922 817.532043,308.617767 
	C811.556458,308.347961 805.562134,308.492401 799.261963,308.492401 
	C798.466431,312.262329 797.716553,315.815643 796.849548,320.206055 
M1097.680908,418.990326 
	C1099.332764,419.205505 1100.981934,419.443817 1102.636841,419.632233 
	C1120.117676,421.622009 1133.150391,409.847961 1133.209229,392.264465 
	C1133.253662,378.957825 1126.442017,369.300110 1117.133545,360.866516 
	C1111.089478,355.390564 1104.931152,350.038696 1098.958496,344.486603 
	C1095.179443,340.973602 1093.812256,336.384277 1094.215576,331.314636 
	C1094.613403,326.315216 1097.544434,323.277863 1102.313232,322.655853 
	C1107.183105,322.020599 1110.648560,324.063507 1112.157227,329.028900 
	C1113.251709,332.630432 1113.758911,336.410370 1114.589600,340.407806 
	C1120.180542,339.284058 1125.630615,338.188660 1130.930786,337.123352 
	C1131.014526,319.560059 1122.861084,309.348175 1107.729004,307.343628 
	C1087.850830,304.710388 1073.652100,317.768677 1075.146729,337.121918 
	C1075.897827,346.846039 1080.261108,354.518402 1087.487427,360.805084 
	C1093.768433,366.269348 1100.044922,371.740662 1106.227417,377.315399 
	C1110.862427,381.494720 1113.608521,386.718475 1113.950684,393.027924 
	C1114.256348,398.664307 1111.879639,402.682434 1107.758301,403.778259 
	C1102.947144,405.057434 1098.341309,402.837250 1095.883301,397.840607 
	C1095.014771,396.075165 1094.390503,394.137634 1093.983032,392.209259 
	C1093.337646,389.155945 1092.968628,386.044189 1092.399292,382.427429 
	C1086.587524,383.639221 1080.979614,384.808533 1075.505981,385.949860 
	C1074.387085,402.481201 1082.247925,414.398346 1097.680908,418.990326 
M582.991943,374.500000 
	C582.991943,388.938995 582.991943,403.377960 582.991943,417.982422 
	C598.688538,417.982422 613.798706,417.982422 629.191162,417.982422 
	C629.191162,413.381683 629.191162,408.977142 629.191162,404.054291 
	C620.462036,404.054291 612.049683,404.054291 603.581299,404.054291 
	C603.581299,391.997467 603.581299,380.464264 603.581299,368.265076 
	C610.526733,368.265076 617.080444,368.265076 623.513062,368.265076 
	C623.513062,363.165375 623.513062,358.744019 623.513062,353.799255 
	C616.618591,353.799255 610.050232,353.799255 603.585327,353.799255 
	C603.585327,343.214081 603.585327,333.165985 603.585327,322.666229 
	C612.254578,322.666229 620.520569,322.666229 628.882690,322.666229 
	C628.882690,317.784607 628.882690,313.370483 628.882690,308.777222 
	C613.497864,308.777222 598.409180,308.777222 582.991943,308.777222 
	C582.991943,330.547760 582.991943,352.023895 582.991943,374.500000 
M1054.517334,404.152985 
	C1051.095703,404.152985 1047.674072,404.152985 1044.398560,404.152985 
	C1044.398560,391.873688 1044.398560,380.325073 1044.398560,368.305084 
	C1051.212158,368.305084 1057.638916,368.305084 1064.108154,368.305084 
	C1064.108154,363.283661 1064.108154,358.751038 1064.108154,353.845459 
	C1057.266724,353.845459 1050.828613,353.845459 1044.281616,353.845459 
	C1044.281616,343.391571 1044.281616,333.324036 1044.281616,322.774261 
	C1052.792969,322.774261 1061.039307,322.774261 1069.560547,322.774261 
	C1069.560547,317.891174 1069.560547,313.490540 1069.560547,308.814880 
	C1054.306030,308.814880 1039.250244,308.814880 1024.154785,308.814880 
	C1024.154785,345.372467 1024.154785,381.595306 1024.154785,417.901520 
	C1039.562256,417.901520 1054.635864,417.901520 1069.797485,417.901520 
	C1069.797485,413.246796 1069.797485,408.878540 1069.797485,404.152985 
	C1064.786743,404.152985 1060.148682,404.152985 1054.517334,404.152985 
M550.995239,180.500000 
	C550.995239,199.928467 550.995239,219.356934 550.995239,238.789642 
	C566.754028,238.789642 581.946411,238.789642 597.200317,238.789642 
	C597.200317,234.139648 597.200317,229.877899 597.200317,225.106293 
	C588.494507,225.106293 580.085205,225.106293 571.571777,225.106293 
	C571.571777,212.895920 571.571777,201.202728 571.571777,188.904266 
	C578.511597,188.904266 585.063599,188.904266 591.584717,188.904266 
	C591.584717,184.024338 591.584717,179.758743 591.584717,174.975281 
	C584.776367,174.975281 578.206482,174.975281 571.482483,174.975281 
	C571.482483,164.391891 571.482483,154.336075 571.482483,143.654541 
	C580.156555,143.654541 588.540649,143.654541 596.911316,143.654541 
	C596.911316,138.583801 596.911316,134.144287 596.911316,129.433151 
	C581.596497,129.433151 566.543274,129.433151 550.995239,129.433151 
	C550.995239,146.286484 550.995239,162.893250 550.995239,180.500000 
M818.827332,222.498672 
	C818.827332,227.934250 818.827332,233.369827 818.827332,238.895599 
	C834.551331,238.895599 849.630371,238.895599 864.785522,238.895599 
	C864.785522,234.238647 864.785522,229.870163 864.785522,224.955948 
	C856.015564,224.955948 847.620544,224.955948 839.290161,224.955948 
	C839.290161,212.808105 839.290161,201.216797 839.290161,189.209381 
	C846.009705,189.209381 852.455078,189.209381 859.097656,189.209381 
	C859.097656,184.261673 859.097656,179.742355 859.097656,174.840363 
	C852.251404,174.840363 845.812927,174.840363 839.286743,174.840363 
	C839.286743,164.375320 839.286743,154.302170 839.286743,143.674774 
	C847.958618,143.674774 856.360901,143.674774 864.611877,143.674774 
	C864.611877,138.543747 864.611877,133.980103 864.611877,129.411667 
	C849.280701,129.411667 834.343323,129.411667 818.827332,129.411667 
	C818.827332,160.274139 818.827332,190.886520 818.827332,222.498672 
M967.177246,350.500092 
	C967.177246,341.717194 967.177246,332.934296 967.177246,323.439575 
	C973.399353,323.439575 979.092468,323.439575 984.732910,323.439575 
	C984.732910,318.121216 984.732910,313.528595 984.732910,308.770844 
	C966.047852,308.770844 947.638672,308.770844 929.026733,308.770844 
	C929.026733,313.678925 929.026733,318.297974 929.026733,323.443420 
	C934.961365,323.443420 940.715698,323.443420 947.100098,323.443420 
	C947.100098,355.308472 947.100098,386.654144 947.100098,417.782867 
	C954.150940,417.782867 960.555847,417.782867 967.177246,417.782867 
	C967.177246,395.426147 967.177246,373.463135 967.177246,350.500092 
M876.562927,404.140869 
	C874.458496,404.140869 872.354004,404.140869 869.683838,404.140869 
	C869.683838,371.980316 869.683838,340.438080 869.683838,308.857544 
	C862.704895,308.857544 856.307922,308.857544 849.841553,308.857544 
	C849.841553,345.459595 849.841553,381.665619 849.841553,418.002441 
	C865.350464,418.002441 880.480225,418.002441 895.723389,418.002441 
	C895.723389,413.402893 895.723389,408.994232 895.723389,404.140869 
	C889.476929,404.140869 883.514282,404.140869 876.562927,404.140869 
M990.813782,390.499023 
	C990.813782,399.600983 990.813782,408.702972 990.813782,417.892426 
	C997.664734,417.892426 1003.912231,417.892426 1010.167358,417.892426 
	C1010.167358,381.394470 1010.167358,345.191528 1010.167358,308.811401 
	C1003.593079,308.811401 997.386230,308.811401 990.813782,308.811401 
	C990.813782,335.934479 990.813782,362.716705 990.813782,390.499023 
M923.177246,359.500092 
	C923.177246,342.699768 923.177246,325.899475 923.177246,308.803070 
	C916.387024,308.803070 909.987732,308.803070 903.469543,308.803070 
	C903.469543,345.333679 903.469543,381.542084 903.469543,417.792816 
	C910.171936,417.792816 916.551941,417.792816 923.177246,417.792816 
	C923.177246,398.439545 923.177246,379.469849 923.177246,359.500092 
M500.001678,325.502167 
	C500.001678,320.027985 500.001678,314.553833 500.001678,308.788330 
	C493.270264,308.788330 486.859467,308.788330 480.357666,308.788330 
	C480.357666,345.326965 480.357666,381.643799 480.357666,417.930450 
	C486.985809,417.930450 493.251831,417.930450 500.001678,417.930450 
	C500.001678,387.296661 500.001678,356.898926 500.001678,325.502167 
z"/>
<path fill="#FFFEFE" opacity="1.000000" stroke="none" 
	d="
M247.378998,135.330688 
	C272.507294,122.856842 298.202820,122.240654 323.735291,131.495941 
	C347.208588,140.004791 358.621429,159.316376 363.740967,182.626129 
	C365.512665,190.692657 366.342865,199.117859 366.389374,207.386078 
	C366.639648,251.872421 366.557129,296.361023 366.479584,340.848633 
	C366.454041,355.489594 363.961548,369.694580 357.359039,382.912628 
	C344.222717,409.211365 322.039276,420.695770 293.479279,421.493225 
	C279.699951,421.877991 266.140869,420.500122 253.506363,414.565826 
	C231.117355,404.049927 219.766037,385.207916 215.158646,361.814697 
	C213.689407,354.354980 213.121445,346.610809 213.088928,338.992706 
	C212.901215,295.005615 212.951385,251.017227 213.024506,207.029449 
	C213.047363,193.269531 215.211731,179.849594 220.556290,167.068832 
	C226.105057,153.799774 234.526550,142.927460 247.378998,135.330688 
M296.210297,372.093109 
	C301.805725,370.091248 305.717438,366.074188 307.033752,360.521759 
	C308.822968,352.974670 310.605438,345.199097 310.668518,337.507416 
	C311.014221,295.345215 311.033447,253.176910 310.663483,211.015106 
	C310.590027,202.644592 308.973206,194.130112 306.902618,185.978073 
	C304.746704,177.490097 298.668457,173.928818 289.552307,174.000748 
	C280.420288,174.072815 274.519836,177.824341 272.216949,186.118454 
	C270.582336,192.005615 269.180298,198.189224 269.140045,204.250229 
	C268.838898,249.577866 268.774445,294.908569 268.995758,340.236542 
	C269.027679,346.782898 270.186066,353.580109 272.221710,359.803802 
	C275.807251,370.766052 284.006317,374.751465 296.210297,372.093109 
z"/>
<path fill="#FFFEFF" opacity="1.000000" stroke="none" 
	d="
M868.999878,1076.167847 
	C785.202759,1076.167847 701.905701,1076.168091 618.608582,1076.167603 
	C610.501709,1076.167603 610.497192,1076.165771 610.496521,1068.302124 
	C610.494324,1042.979736 610.487915,1017.657471 610.501526,992.335144 
	C610.504883,986.118713 610.781006,985.838013 616.978943,985.837524 
	C707.106384,985.829651 797.233887,985.829651 887.361328,985.837769 
	C893.406189,985.838318 893.828552,986.274292 893.831787,992.451355 
	C893.845093,1018.273499 893.751709,1044.096069 893.913757,1069.917236 
	C893.943909,1074.725708 892.271057,1076.484497 887.488342,1076.240967 
	C881.506470,1075.936279 875.497253,1076.167725 868.999878,1076.167847 
z"/>
<path fill="#FFFEFF" opacity="1.000000" stroke="none" 
	d="
M610.495728,821.063843 
	C610.616150,806.757019 609.081543,808.869751 622.091187,808.861450 
	C710.053528,808.804993 798.015808,808.831787 885.978149,808.832397 
	C893.832153,808.832458 893.836243,808.834900 893.836792,816.454407 
	C893.838684,841.776917 893.844299,867.099365 893.832458,892.421875 
	C893.829590,898.645935 893.479492,898.996826 887.352722,898.997192 
	C797.224670,899.002502 707.096619,899.002136 616.968567,898.998047 
	C610.733154,898.997803 610.503784,898.776611 610.500610,892.522461 
	C610.488708,868.865967 610.495728,845.209473 610.495728,821.063843 
z"/>
<path fill="#FFFDFE" opacity="1.000000" stroke="none" 
	d="
M1007.488647,871.999512 
	C1007.488831,851.843079 1007.446533,832.186462 1007.560852,812.530701 
	C1007.571289,810.747192 1008.588501,808.969604 1009.138306,807.189270 
	C1010.785645,808.098328 1012.753601,808.685974 1014.033875,809.962952 
	C1056.729614,852.546814 1099.334229,895.222046 1142.048462,937.787170 
	C1145.395874,941.122864 1145.528320,943.441895 1142.111938,946.845764 
	C1099.394287,989.407532 1056.790527,1032.083618 1014.102905,1074.675659 
	C1012.802429,1075.973267 1010.909119,1076.676880 1009.292053,1077.657349 
	C1008.690979,1075.737061 1007.567200,1073.817505 1007.564575,1071.896362 
	C1007.473694,1005.430847 1007.488708,938.965210 1007.488647,871.999512 
z"/>
<path fill="#FFFEFE" opacity="1.000000" stroke="none" 
	d="
M478.574158,821.574036 
	C483.067047,817.084595 487.258087,812.790771 491.598022,808.653137 
	C492.432037,807.857971 494.086548,807.057434 494.935211,807.380798 
	C495.831085,807.722290 496.431763,809.344788 496.760284,810.519836 
	C497.063019,811.602722 496.837860,812.834534 496.837860,814.000732 
	C496.838562,899.638611 496.838501,985.276550 496.837982,1070.914429 
	C496.837982,1072.080688 497.074615,1073.318115 496.760742,1074.393921 
	C496.423859,1075.548706 495.790344,1076.930298 494.854919,1077.483521 
	C494.263306,1077.833252 492.796661,1076.987183 491.880951,1076.421387 
	C491.053162,1075.909790 490.439819,1075.050903 489.733032,1074.344116 
	C447.438782,1032.049561 405.144043,989.755676 362.851471,947.459534 
	C358.193451,942.801270 358.181854,941.970642 362.754150,937.397766 
	C401.275330,898.871033 439.800293,860.348083 478.574158,821.574036 
z"/>
<path fill="#FFFEFF" opacity="1.000000" stroke="none" 
	d="
M780.000000,687.000854 
	C727.679932,687.000854 675.859924,687.000854 624.039856,687.000732 
	C622.873474,687.000732 621.670776,687.177551 620.550537,686.949768 
	C619.342041,686.704041 617.290161,686.169922 617.233826,685.600708 
	C617.109680,684.345398 617.902466,682.935120 618.531311,681.694702 
	C618.889893,680.987305 619.659241,680.486877 620.248169,679.897888 
	C662.427856,637.717896 704.606934,595.537170 746.789490,553.360046 
	C751.801025,548.349121 752.523071,548.363525 757.598694,553.439514 
	C799.659851,595.502441 841.721069,637.565247 883.781738,679.628662 
	C884.723938,680.570862 885.893555,681.382324 886.548218,682.495300 
	C887.901550,684.796021 887.782837,686.722473 884.476990,686.974304 
	C883.317078,687.062622 882.145386,687.000244 880.979065,687.000244 
	C847.486023,687.000977 813.993042,687.000854 780.000000,687.000854 
z"/>
<path fill="#FFFFFF" opacity="1.000000" stroke="none" 
	d="
M797.924072,1290.924072 
	C784.130432,1304.718628 770.590515,1318.266968 757.040955,1331.805542 
	C752.474976,1336.367798 751.792297,1336.383789 747.395630,1331.987793 
	C704.876648,1289.473877 662.350952,1246.966431 619.903320,1204.381470 
	C618.562683,1203.036499 618.042358,1200.873901 617.139648,1199.092407 
	C618.980042,1198.672852 620.820251,1197.887329 622.660950,1197.885986 
	C708.938354,1197.825684 795.215881,1197.822510 881.493286,1197.905396 
	C883.390930,1197.907227 885.287537,1198.981689 887.184631,1199.555664 
	C886.133179,1201.307983 885.385193,1203.362427 883.985596,1204.767944 
	C855.426453,1233.447876 826.792786,1262.053467 797.924072,1290.924072 
z"/>
<path fill="#FFFEFE" opacity="1.000000" stroke="none" 
	d="
M170.986694,416.505768 
	C157.186340,416.505737 143.883102,416.505737 130.106049,416.505737 
	C130.106049,339.932220 130.106049,263.740845 130.106049,186.950455 
	C115.872520,192.053864 102.239555,196.941956 88.163544,201.988907 
	C88.163544,188.842499 88.040627,176.361969 88.328400,163.890900 
	C88.362106,162.430222 90.377289,160.413834 91.951164,159.683212 
	C107.505836,152.462387 123.089035,145.228073 136.399948,134.231003 
	C140.694504,130.682968 144.825836,129.231567 150.271240,129.391815 
	C161.717804,129.728683 173.181183,129.494141 184.815247,129.494141 
	C184.815247,225.290543 184.815247,320.528137 184.815247,416.505798 
	C180.332504,416.505798 175.908157,416.505798 170.986694,416.505768 
z"/>
<path fill="#FEFCFD" opacity="1.000000" stroke="none" 
	d="
M690.091431,439.867798 
	C683.585449,434.110321 677.492859,428.297882 671.302673,422.591248 
	C670.083679,421.467529 668.507690,419.999329 667.063782,419.962341 
	C648.863037,419.495880 636.702515,412.754639 635.713257,387.447601 
	C635.050415,370.491608 635.184875,353.457916 635.951599,336.503723 
	C637.024048,312.789612 651.325989,305.891205 671.370178,307.381958 
	C688.572144,308.661285 697.088074,316.689789 698.297485,335.478851 
	C699.534302,354.692261 698.738464,374.075226 698.060669,393.356873 
	C697.718811,403.080597 693.201050,411.263885 682.500366,417.357147 
	C685.680847,419.779541 688.218323,421.944458 690.986023,423.757751 
	C694.022583,425.747131 694.541748,428.065918 693.164124,431.336334 
	C692.013550,434.067749 691.349915,437.004242 690.091431,439.867798 
M677.990356,331.897766 
	C676.056641,324.389160 672.960754,321.784668 666.432678,322.174438 
	C660.062317,322.554779 657.046021,325.848480 656.201721,333.434875 
	C656.036255,334.921204 656.006836,336.428589 656.005737,337.926331 
	C655.992798,354.925964 655.951111,371.925812 656.043701,388.924957 
	C656.059021,391.728210 656.469360,394.575714 657.077148,397.318573 
	C658.002930,401.497162 660.778320,403.791687 665.066589,404.423004 
	C672.866333,405.571289 677.911194,401.702179 678.026367,393.207916 
	C678.299561,373.059570 678.083252,352.904572 677.990356,331.897766 
z"/>
<path fill="#FEF9FB" opacity="1.000000" stroke="none" 
	d="
M517.944458,226.231827 
	C515.252197,215.869308 512.623413,205.910217 510.017700,195.945114 
	C508.072693,188.506744 508.085938,188.503281 499.954773,189.690735 
	C499.954773,205.910736 499.954773,222.191101 499.954773,238.825256 
	C493.056610,238.825256 486.518097,238.825256 479.793610,238.825256 
	C479.793610,202.322128 479.793610,165.958359 479.793610,128.637512 
	C492.724518,129.209778 505.427979,128.857407 517.850891,130.556320 
	C532.932922,132.618881 539.441223,141.239273 539.660461,157.913177 
	C539.795044,168.146942 538.760925,178.393173 528.306824,184.477753 
	C527.468323,184.965805 527.339722,187.675491 527.732117,189.121918 
	C531.863953,204.351990 536.174316,219.533600 540.416443,234.733856 
	C540.761047,235.968658 540.966675,237.242264 541.316833,238.869446 
	C534.545105,238.869446 528.129211,238.869446 521.310059,238.869446 
	C520.245728,234.913452 519.131775,230.773056 517.944458,226.231827 
M506.119690,143.189697 
	C504.184143,143.189697 502.248596,143.189697 500.169128,143.189697 
	C500.169128,154.450958 500.169128,165.140625 500.169128,175.793854 
	C513.406067,177.107971 519.032349,173.617935 520.250000,163.575241 
	C521.865723,150.248947 518.435913,145.000412 506.119690,143.189697 
z"/>
<path fill="#FEFBFC" opacity="1.000000" stroke="none" 
	d="
M605.178162,131.429291 
	C606.183838,130.364075 607.180298,129.226044 608.159241,129.240936 
	C619.473511,129.413010 630.834839,129.200775 642.084534,130.203506 
	C655.683594,131.415619 664.318909,139.905350 664.868225,153.668365 
	C665.657104,173.433990 665.701477,193.278458 664.902771,213.042374 
	C664.290588,228.189499 656.084717,236.862854 641.056885,238.393143 
	C629.398071,239.580368 617.521606,238.630386 605.160767,238.630386 
	C605.160767,203.094910 605.160767,167.493484 605.178162,131.429291 
M645.172607,190.500092 
	C645.172607,186.001465 645.193665,181.502701 645.167725,177.004227 
	C645.127319,170.008087 645.194153,163.007401 644.957031,156.017426 
	C644.718140,148.976257 642.038208,145.208298 636.356018,144.337509 
	C632.981628,143.820358 629.463135,144.242828 625.747070,144.242828 
	C625.747070,171.076813 625.747070,197.833603 625.747070,224.556427 
	C640.057739,226.457520 644.690796,222.676483 644.996094,208.987564 
	C645.126038,203.160004 645.117981,197.329346 645.172607,190.500092 
z"/>
<path fill="#FFFDFD" opacity="1.000000" stroke="none" 
	d="
M890.994202,129.157394 
	C897.139526,129.419418 902.809692,129.445099 908.429626,129.989914 
	C922.563660,131.360153 931.529785,138.299057 932.343079,152.258331 
	C933.568787,173.297028 933.541382,194.533325 932.133301,215.557495 
	C931.179993,229.792084 923.343018,236.860153 909.209534,238.296890 
	C897.406921,239.496689 885.385376,238.543015 873.227173,238.543015 
	C873.227173,202.411530 873.227173,166.157791 873.227173,129.157394 
	C878.975891,129.157394 884.736084,129.157394 890.994202,129.157394 
M913.005066,185.500000 
	C912.769531,174.707382 912.655151,163.910065 912.237122,153.124527 
	C912.075745,148.961548 909.865906,145.650116 905.592957,144.806946 
	C901.659058,144.030701 897.576904,144.005585 893.486694,143.643082 
	C893.486694,171.309341 893.486694,197.995712 893.486694,224.809097 
	C894.951477,224.885330 896.097168,224.992554 897.243225,224.997253 
	C908.750610,225.044388 912.482910,221.522079 912.805542,209.942123 
	C913.023132,202.132278 912.948730,194.314331 913.005066,185.500000 
z"/>
<path fill="#FEFBFC" opacity="1.000000" stroke="none" 
	d="
M552.190186,366.547485 
	C552.840942,365.757477 553.751465,364.644073 553.757751,363.525543 
	C553.849854,347.207123 553.821045,330.887970 553.821106,314.569000 
	C553.821106,312.756073 553.821106,310.943176 553.821106,308.805511 
	C559.423096,308.805511 564.651367,308.805511 570.202026,308.805511 
	C570.202026,345.219604 570.202026,381.428772 570.202026,418.171265 
	C566.407654,418.171265 562.734436,418.529938 559.196045,417.995758 
	C557.769714,417.780457 556.106812,415.835419 555.454285,414.295135 
	C547.936523,396.550323 540.595337,378.730652 533.195862,360.935638 
	C532.590881,359.480743 531.902283,358.060608 530.418823,356.809143 
	C530.418823,376.986938 530.418823,397.164764 530.418823,417.759521 
	C524.491089,417.759521 518.977234,417.759521 513.222412,417.759521 
	C513.222412,381.448029 513.222412,345.229462 513.222412,308.489197 
	C517.216553,308.489197 521.076538,308.086182 524.776489,308.680420 
	C526.335693,308.930817 528.108032,311.042419 528.847351,312.720398 
	C536.683228,330.506378 544.330322,348.375488 552.190186,366.547485 
z"/>
<path fill="#FEF9FB" opacity="1.000000" stroke="none" 
	d="
M770.853516,316.131836 
	C770.853516,338.773834 770.906982,360.935333 770.807312,383.096161 
	C770.787964,387.409668 770.559021,391.793060 769.764587,396.019745 
	C766.748230,412.068481 758.927246,420.650787 737.452759,419.633789 
	C717.636597,418.695343 709.176086,408.324554 709.026733,386.227631 
	C708.858948,361.401489 708.987122,336.573334 708.993958,311.746033 
	C708.994202,310.920929 709.076233,310.095795 709.141296,308.874054 
	C715.423096,308.874054 721.620117,308.874054 728.528564,308.874054 
	C728.528564,310.942474 728.521362,312.879242 728.529724,314.815979 
	C728.638184,339.804352 728.710876,364.793030 728.914978,389.780640 
	C728.936401,392.404144 729.427368,395.121826 730.241394,397.619598 
	C731.761841,402.285187 735.330322,404.484772 740.172119,404.413208 
	C744.847473,404.344147 748.409241,402.063171 749.477478,397.541718 
	C750.536865,393.057495 751.045349,388.347717 751.076172,383.732056 
	C751.229858,360.738647 751.146362,337.743683 751.146423,314.749268 
	C751.146423,312.926575 751.146484,311.103882 751.146484,308.878235 
	C757.650391,308.878235 763.880188,308.878235 770.853516,308.878235 
	C770.853516,311.141144 770.853516,313.396118 770.853516,316.131836 
z"/>
<path fill="#FEFAFC" opacity="1.000000" stroke="none" 
	d="
M695.521851,157.000336 
	C695.521851,173.831802 695.450134,190.163818 695.577393,206.494278 
	C695.605652,210.122742 695.974182,213.832809 696.823975,217.351242 
	C698.164062,222.900040 701.433777,225.179367 706.870728,225.147354 
	C712.147583,225.116287 715.543823,222.597153 716.736389,217.084122 
	C717.538574,213.375412 717.920776,209.507584 717.937744,205.708466 
	C718.042419,182.211639 717.990417,158.714111 717.990417,135.216827 
	C717.990417,133.407852 717.990417,131.598877 717.990417,129.474792 
	C724.588562,129.474792 730.832886,129.474792 737.164673,129.474792 
	C737.366882,129.913132 737.745544,130.349152 737.742676,130.782700 
	C737.566406,157.931473 738.071777,185.109634 736.945923,212.219955 
	C735.901978,237.357483 708.268433,250.057373 687.359985,235.711411 
	C678.468201,229.610489 676.299500,219.995499 676.119629,210.199310 
	C675.682312,186.378098 675.878296,162.545242 675.821350,138.717087 
	C675.814270,135.743622 675.820374,132.770126 675.820374,129.475800 
	C682.451477,129.475800 688.678650,129.475800 695.521851,129.475800 
	C695.521851,138.581757 695.521851,147.541046 695.521851,157.000336 
z"/>
<path fill="#FEFAFC" opacity="1.000000" stroke="none" 
	d="
M747.478149,177.011383 
	C747.597839,170.687073 747.548523,164.850967 747.867004,159.034988 
	C749.111145,136.313980 760.359497,125.683258 785.338013,128.494720 
	C799.604858,130.100510 806.536987,137.695877 808.107178,151.973099 
	C808.721252,157.556335 808.773193,163.201385 809.101196,169.183777 
	C802.222839,169.183777 795.977905,169.183777 788.988525,169.183777 
	C788.988525,163.877686 789.132568,158.764557 788.953735,153.662766 
	C788.704041,146.536423 785.771545,143.310745 779.669922,143.025650 
	C773.300598,142.728043 769.585876,145.700165 768.710327,152.694199 
	C768.051575,157.956436 768.074402,163.320389 768.037476,168.640762 
	C767.950623,181.138504 767.937683,193.637939 768.054565,206.135193 
	C768.088684,209.779877 768.390808,213.469223 769.048157,217.050323 
	C770.153259,223.070984 773.708984,225.725647 779.553772,225.416443 
	C784.944702,225.131241 788.264648,222.037064 788.819336,216.197113 
	C789.212097,212.062836 789.071350,207.877014 789.145630,203.713791 
	C789.177490,201.928223 789.150940,200.141632 789.150940,198.126648 
	C795.918518,198.126648 802.142212,198.126648 808.731995,198.126648 
	C808.982727,207.737930 809.166443,217.001816 805.543152,225.866364 
	C802.930725,232.257568 798.350891,236.687790 791.761169,238.678268 
	C783.107605,241.292160 774.309387,241.454376 765.715210,238.498672 
	C753.191162,234.191406 748.908875,223.891098 748.116455,211.972992 
	C747.355164,200.521408 747.648315,188.999725 747.478149,177.011383 
z"/>
<path fill="#FEFCFD" opacity="1.000000" stroke="none" 
	d="
M796.908081,319.787506 
	C797.716553,315.815643 798.466431,312.262329 799.261963,308.492401 
	C805.562134,308.492401 811.556458,308.347961 817.532043,308.617767 
	C818.687500,308.669922 820.545898,310.182251 820.773193,311.289276 
	C827.962708,346.315338 834.991089,381.374420 842.032532,416.430817 
	C842.095825,416.746094 842.003418,417.092590 841.941589,418.134277 
	C836.419739,418.134277 830.829041,418.264557 825.258545,417.988220 
	C824.459839,417.948578 823.320068,416.032501 823.084167,414.837585 
	C821.671326,407.680573 820.476746,400.480499 819.189819,393.186249 
	C812.878479,393.186249 806.919495,393.186249 800.532288,393.186249 
	C799.027954,401.372803 797.534058,409.502838 795.994019,417.883667 
	C789.750305,417.883667 783.665161,417.883667 776.895752,417.883667 
	C783.573120,385.196686 790.211304,352.701355 796.908081,319.787506 
M805.034180,364.518677 
	C804.301331,369.482971 803.568542,374.447296 802.828369,379.461395 
	C807.975769,379.461395 812.323975,379.461395 816.978638,379.461395 
	C814.675232,365.527252 812.442261,352.019226 810.209229,338.511169 
	C809.920776,338.561249 809.632385,338.611328 809.343933,338.661407 
	C807.945129,346.990479 806.546326,355.319519 805.034180,364.518677 
z"/>
<path fill="#FEFBFC" opacity="1.000000" stroke="none" 
	d="
M1097.267334,418.932922 
	C1082.247925,414.398346 1074.387085,402.481201 1075.505981,385.949860 
	C1080.979614,384.808533 1086.587524,383.639221 1092.399292,382.427429 
	C1092.968628,386.044189 1093.337646,389.155945 1093.983032,392.209259 
	C1094.390503,394.137634 1095.014771,396.075165 1095.883301,397.840607 
	C1098.341309,402.837250 1102.947144,405.057434 1107.758301,403.778259 
	C1111.879639,402.682434 1114.256348,398.664307 1113.950684,393.027924 
	C1113.608521,386.718475 1110.862427,381.494720 1106.227417,377.315399 
	C1100.044922,371.740662 1093.768433,366.269348 1087.487427,360.805084 
	C1080.261108,354.518402 1075.897827,346.846039 1075.146729,337.121918 
	C1073.652100,317.768677 1087.850830,304.710388 1107.729004,307.343628 
	C1122.861084,309.348175 1131.014526,319.560059 1130.930786,337.123352 
	C1125.630615,338.188660 1120.180542,339.284058 1114.589600,340.407806 
	C1113.758911,336.410370 1113.251709,332.630432 1112.157227,329.028900 
	C1110.648560,324.063507 1107.183105,322.020599 1102.313232,322.655853 
	C1097.544434,323.277863 1094.613403,326.315216 1094.215576,331.314636 
	C1093.812256,336.384277 1095.179443,340.973602 1098.958496,344.486603 
	C1104.931152,350.038696 1111.089478,355.390564 1117.133545,360.866516 
	C1126.442017,369.300110 1133.253662,378.957825 1133.209229,392.264465 
	C1133.150391,409.847961 1120.117676,421.622009 1102.636841,419.632233 
	C1100.981934,419.443817 1099.332764,419.205505 1097.267334,418.932922 
z"/>
<path fill="#FEFBFC" opacity="1.000000" stroke="none" 
	d="
M582.991943,374.000000 
	C582.991943,352.023895 582.991943,330.547760 582.991943,308.777222 
	C598.409180,308.777222 613.497864,308.777222 628.882690,308.777222 
	C628.882690,313.370483 628.882690,317.784607 628.882690,322.666229 
	C620.520569,322.666229 612.254578,322.666229 603.585327,322.666229 
	C603.585327,333.165985 603.585327,343.214081 603.585327,353.799255 
	C610.050232,353.799255 616.618591,353.799255 623.513062,353.799255 
	C623.513062,358.744019 623.513062,363.165375 623.513062,368.265076 
	C617.080444,368.265076 610.526733,368.265076 603.581299,368.265076 
	C603.581299,380.464264 603.581299,391.997467 603.581299,404.054291 
	C612.049683,404.054291 620.462036,404.054291 629.191162,404.054291 
	C629.191162,408.977142 629.191162,413.381683 629.191162,417.982422 
	C613.798706,417.982422 598.688538,417.982422 582.991943,417.982422 
	C582.991943,403.377960 582.991943,388.938995 582.991943,374.000000 
z"/>
<path fill="#FEFBFC" opacity="1.000000" stroke="none" 
	d="
M1055.013916,404.152985 
	C1060.148682,404.152985 1064.786743,404.152985 1069.797485,404.152985 
	C1069.797485,408.878540 1069.797485,413.246796 1069.797485,417.901520 
	C1054.635864,417.901520 1039.562256,417.901520 1024.154785,417.901520 
	C1024.154785,381.595306 1024.154785,345.372467 1024.154785,308.814880 
	C1039.250244,308.814880 1054.306030,308.814880 1069.560547,308.814880 
	C1069.560547,313.490540 1069.560547,317.891174 1069.560547,322.774261 
	C1061.039307,322.774261 1052.792969,322.774261 1044.281616,322.774261 
	C1044.281616,333.324036 1044.281616,343.391571 1044.281616,353.845459 
	C1050.828613,353.845459 1057.266724,353.845459 1064.108154,353.845459 
	C1064.108154,358.751038 1064.108154,363.283661 1064.108154,368.305084 
	C1057.638916,368.305084 1051.212158,368.305084 1044.398560,368.305084 
	C1044.398560,380.325073 1044.398560,391.873688 1044.398560,404.152985 
	C1047.674072,404.152985 1051.095703,404.152985 1055.013916,404.152985 
z"/>
<path fill="#FFFDFD" opacity="1.000000" stroke="none" 
	d="
M550.995239,180.000000 
	C550.995239,162.893250 550.995239,146.286484 550.995239,129.433151 
	C566.543274,129.433151 581.596497,129.433151 596.911316,129.433151 
	C596.911316,134.144287 596.911316,138.583801 596.911316,143.654541 
	C588.540649,143.654541 580.156555,143.654541 571.482483,143.654541 
	C571.482483,154.336075 571.482483,164.391891 571.482483,174.975281 
	C578.206482,174.975281 584.776367,174.975281 591.584717,174.975281 
	C591.584717,179.758743 591.584717,184.024338 591.584717,188.904266 
	C585.063599,188.904266 578.511597,188.904266 571.571777,188.904266 
	C571.571777,201.202728 571.571777,212.895920 571.571777,225.106293 
	C580.085205,225.106293 588.494507,225.106293 597.200317,225.106293 
	C597.200317,229.877899 597.200317,234.139648 597.200317,238.789642 
	C581.946411,238.789642 566.754028,238.789642 550.995239,238.789642 
	C550.995239,219.356934 550.995239,199.928467 550.995239,180.000000 
z"/>
<path fill="#FFFDFE" opacity="1.000000" stroke="none" 
	d="
M818.827332,221.998779 
	C818.827332,190.886520 818.827332,160.274139 818.827332,129.411667 
	C834.343323,129.411667 849.280701,129.411667 864.611877,129.411667 
	C864.611877,133.980103 864.611877,138.543747 864.611877,143.674774 
	C856.360901,143.674774 847.958618,143.674774 839.286743,143.674774 
	C839.286743,154.302170 839.286743,164.375320 839.286743,174.840363 
	C845.812927,174.840363 852.251404,174.840363 859.097656,174.840363 
	C859.097656,179.742355 859.097656,184.261673 859.097656,189.209381 
	C852.455078,189.209381 846.009705,189.209381 839.290161,189.209381 
	C839.290161,201.216797 839.290161,212.808105 839.290161,224.955948 
	C847.620544,224.955948 856.015564,224.955948 864.785522,224.955948 
	C864.785522,229.870163 864.785522,234.238647 864.785522,238.895599 
	C849.630371,238.895599 834.551331,238.895599 818.827332,238.895599 
	C818.827332,233.369827 818.827332,227.934250 818.827332,221.998779 
z"/>
<path fill="#FEFBFC" opacity="1.000000" stroke="none" 
	d="
M967.177246,351.000122 
	C967.177246,373.463135 967.177246,395.426147 967.177246,417.782867 
	C960.555847,417.782867 954.150940,417.782867 947.100098,417.782867 
	C947.100098,386.654144 947.100098,355.308472 947.100098,323.443420 
	C940.715698,323.443420 934.961365,323.443420 929.026733,323.443420 
	C929.026733,318.297974 929.026733,313.678925 929.026733,308.770844 
	C947.638672,308.770844 966.047852,308.770844 984.732910,308.770844 
	C984.732910,313.528595 984.732910,318.121216 984.732910,323.439575 
	C979.092468,323.439575 973.399353,323.439575 967.177246,323.439575 
	C967.177246,332.934296 967.177246,341.717194 967.177246,351.000122 
z"/>
<path fill="#FEF7FA" opacity="1.000000" stroke="none" 
	d="
M877.057312,404.140869 
	C883.514282,404.140869 889.476929,404.140869 895.723389,404.140869 
	C895.723389,408.994232 895.723389,413.402893 895.723389,418.002441 
	C880.480225,418.002441 865.350464,418.002441 849.841553,418.002441 
	C849.841553,381.665619 849.841553,345.459595 849.841553,308.857544 
	C856.307922,308.857544 862.704895,308.857544 869.683838,308.857544 
	C869.683838,340.438080 869.683838,371.980316 869.683838,404.140869 
	C872.354004,404.140869 874.458496,404.140869 877.057312,404.140869 
z"/>
<path fill="#FEF8FB" opacity="1.000000" stroke="none" 
	d="
M990.813782,389.998993 
	C990.813782,362.716705 990.813782,335.934479 990.813782,308.811401 
	C997.386230,308.811401 1003.593079,308.811401 1010.167358,308.811401 
	C1010.167358,345.191528 1010.167358,381.394470 1010.167358,417.892426 
	C1003.912231,417.892426 997.664734,417.892426 990.813782,417.892426 
	C990.813782,408.702972 990.813782,399.600983 990.813782,389.998993 
z"/>
<path fill="#FEFBFC" opacity="1.000000" stroke="none" 
	d="
M923.177246,360.000122 
	C923.177246,379.469849 923.177246,398.439545 923.177246,417.792816 
	C916.551941,417.792816 910.171936,417.792816 903.469543,417.792816 
	C903.469543,381.542084 903.469543,345.333679 903.469543,308.803070 
	C909.987732,308.803070 916.387024,308.803070 923.177246,308.803070 
	C923.177246,325.899475 923.177246,342.699768 923.177246,360.000122 
z"/>
<path fill="#FFFEFE" opacity="1.000000" stroke="none" 
	d="
M500.001678,326.001648 
	C500.001678,356.898926 500.001678,387.296661 500.001678,417.930450 
	C493.251831,417.930450 486.985809,417.930450 480.357666,417.930450 
	C480.357666,381.643799 480.357666,345.326965 480.357666,308.788330 
	C486.859467,308.788330 493.270264,308.788330 500.001678,308.788330 
	C500.001678,314.553833 500.001678,320.027985 500.001678,326.001648 
z"/>
<path fill="#DD1568" opacity="1.000000" stroke="none" 
	d="
M295.819000,372.214111 
	C284.006317,374.751465 275.807251,370.766052 272.221710,359.803802 
	C270.186066,353.580109 269.027679,346.782898 268.995758,340.236542 
	C268.774445,294.908569 268.838898,249.577866 269.140045,204.250229 
	C269.180298,198.189224 270.582336,192.005615 272.216949,186.118454 
	C274.519836,177.824341 280.420288,174.072815 289.552307,174.000748 
	C298.668457,173.928818 304.746704,177.490097 306.902618,185.978073 
	C308.973206,194.130112 310.590027,202.644592 310.663483,211.015106 
	C311.033447,253.176910 311.014221,295.345215 310.668518,337.507416 
	C310.605438,345.199097 308.822968,352.974670 307.033752,360.521759 
	C305.717438,366.074188 301.805725,370.091248 295.819000,372.214111 
z"/>
<path fill="#DE186A" opacity="1.000000" stroke="none" 
	d="
M678.027588,332.325012 
	C678.083252,352.904572 678.299561,373.059570 678.026367,393.207916 
	C677.911194,401.702179 672.866333,405.571289 665.066589,404.423004 
	C660.778320,403.791687 658.002930,401.497162 657.077148,397.318573 
	C656.469360,394.575714 656.059021,391.728210 656.043701,388.924957 
	C655.951111,371.925812 655.992798,354.925964 656.005737,337.926331 
	C656.006836,336.428589 656.036255,334.921204 656.201721,333.434875 
	C657.046021,325.848480 660.062317,322.554779 666.432678,322.174438 
	C672.960754,321.784668 676.056641,324.389160 678.027588,332.325012 
z"/>
<path fill="#DE186A" opacity="1.000000" stroke="none" 
	d="
M506.553894,143.235291 
	C518.435913,145.000412 521.865723,150.248947 520.250000,163.575241 
	C519.032349,173.617935 513.406067,177.107971 500.169128,175.793854 
	C500.169128,165.140625 500.169128,154.450958 500.169128,143.189697 
	C502.248596,143.189697 504.184143,143.189697 506.553894,143.235291 
z"/>
<path fill="#DE1A6C" opacity="1.000000" stroke="none" 
	d="
M645.172607,191.000092 
	C645.117981,197.329346 645.126038,203.160004 644.996094,208.987564 
	C644.690796,222.676483 640.057739,226.457520 625.747070,224.556427 
	C625.747070,197.833603 625.747070,171.076813 625.747070,144.242828 
	C629.463135,144.242828 632.981628,143.820358 636.356018,144.337509 
	C642.038208,145.208298 644.718140,148.976257 644.957031,156.017426 
	C645.194153,163.007401 645.127319,170.008087 645.167725,177.004227 
	C645.193665,181.502701 645.172607,186.001465 645.172607,191.000092 
z"/>
<path fill="#DE186A" opacity="1.000000" stroke="none" 
	d="
M913.005005,186.000000 
	C912.948730,194.314331 913.023132,202.132278 912.805542,209.942123 
	C912.482910,221.522079 908.750610,225.044388 897.243225,224.997253 
	C896.097168,224.992554 894.951477,224.885330 893.486694,224.809097 
	C893.486694,197.995712 893.486694,171.309341 893.486694,143.643082 
	C897.576904,144.005585 901.659058,144.030701 905.592957,144.806946 
	C909.865906,145.650116 912.075745,148.961548 912.237122,153.124527 
	C912.655151,163.910065 912.769531,174.707382 913.005005,186.000000 
z"/>
<path fill="#DE1A6C" opacity="1.000000" stroke="none" 
	d="
M805.090881,364.083618 
	C806.546326,355.319519 807.945129,346.990479 809.343933,338.661407 
	C809.632385,338.611328 809.920776,338.561249 810.209229,338.511169 
	C812.442261,352.019226 814.675232,365.527252 816.978638,379.461395 
	C812.323975,379.461395 807.975769,379.461395 802.828369,379.461395 
	C803.568542,374.447296 804.301331,369.482971 805.090881,364.083618 
z"/>
</svg>