<svg version="1.1" id="Layer_1" xmlns="http://www.w3.org/2000/svg" xmlns:xlink="http://www.w3.org/1999/xlink" x="0px" y="0px"
	 width="100%" viewBox="0 0 1500 1500" enable-background="new 0 0 1500 1500" xml:space="preserve">
<path fill="#FD6925" opacity="1.000000" stroke="none" 
	d="
M1501.000000,510.000000 
	C1501.000000,838.972717 1500.991943,1167.445435 1501.093994,1495.918091 
	C1501.095337,1499.929688 1500.535400,1501.128784 1496.082764,1501.127563 
	C999.290771,1500.991943 502.498718,1500.993164 5.706736,1501.115601 
	C1.561407,1501.116699 0.894845,1500.171753 0.895724,1496.207520 
	C1.005856,999.415466 1.005467,502.623474 0.901257,5.831451 
	C0.900443,1.948294 1.439335,0.878405 5.667811,0.879492 
	C502.459808,1.007232 999.251831,1.007406 1496.043823,0.879935 
	C1500.391113,0.878819 1501.106445,1.927905 1501.103394,6.043090 
	C1500.982422,173.862000 1501.000000,341.681000 1501.000000,510.000000 
z"/>
<path fill="#FFFEFE" opacity="1.000000" stroke="none" 
	d="
M634.850830,627.872681 
	C673.800049,605.401062 712.455750,583.152405 751.014160,560.736328 
	C756.849670,557.343872 762.010376,557.399109 767.833862,560.772522 
	C827.882507,595.557678 887.964539,630.285583 948.165222,664.806396 
	C954.929382,668.685059 957.640320,673.564514 957.617920,681.302490 
	C957.427429,747.293030 957.552063,813.284485 957.408508,879.275208 
	C957.399231,883.522339 958.790894,885.745300 962.415649,887.827271 
	C1019.706055,920.733093 1076.877686,953.845886 1134.182007,986.727112 
	C1140.523438,990.365845 1143.317627,994.855835 1143.295288,1002.332214 
	C1143.087036,1071.988892 1143.108276,1141.646484 1143.269897,1211.303345 
	C1143.286255,1218.319458 1140.697876,1222.706909 1134.657349,1226.176880 
	C1074.626343,1260.661499 1014.659912,1295.259277 954.789612,1330.021973 
	C948.118835,1333.895264 942.453613,1334.032715 935.737976,1330.130493 
	C878.756836,1297.022339 821.619568,1264.182739 764.642517,1231.067627 
	C760.566772,1228.698486 757.733459,1229.037842 753.895813,1231.262817 
	C696.882385,1264.316650 639.753235,1297.171143 582.757019,1330.254517 
	C576.414490,1333.936035 570.981995,1334.024292 564.618530,1330.333252 
	C505.165497,1295.847656 445.668396,1261.436523 386.004028,1227.318481 
	C378.401611,1222.971191 375.308502,1217.753662 375.342896,1208.977417 
	C375.611084,1140.487793 375.582916,1071.996338 375.370026,1003.506226 
	C375.344727,995.362427 378.212921,990.365601 385.325562,986.294617 
	C442.232025,953.723816 498.941956,920.809753 555.793457,888.142334 
	C559.670349,885.914734 561.298523,883.603760 561.285461,878.913574 
	C561.101990,813.256348 561.247375,747.598083 561.050110,681.940857 
	C561.025818,673.860229 563.705688,668.661621 570.921265,664.648193 
	C592.296875,652.758911 613.347778,640.285950 634.850830,627.872681 
z"/>
<path fill="#FFFEFE" opacity="1.000000" stroke="none" 
	d="
M214.828583,300.295898 
	C214.828583,297.917480 214.828583,295.993713 214.828583,292.945007 
	C201.380219,307.946259 184.769409,309.545013 167.419144,307.580261 
	C147.397903,305.313080 134.039871,293.921570 126.041061,275.723206 
	C117.301407,255.839310 115.889412,234.858505 116.608109,213.569443 
	C117.019180,201.392532 118.591606,189.365402 121.995941,177.615036 
	C131.173935,145.936386 152.548264,128.513412 185.528336,126.203300 
	C199.599319,125.217682 213.537170,126.240242 226.822937,131.452454 
	C249.571243,140.376968 260.779816,158.787949 266.841095,181.146194 
	C269.770508,191.951965 271.004578,203.042786 271.003357,214.255066 
	C270.999237,252.250626 271.110657,290.246643 270.950989,328.241516 
	C270.882080,344.637939 268.402466,360.693115 263.066162,376.302155 
	C253.845322,403.273682 234.656387,417.223114 206.758286,419.863892 
	C194.449554,421.028992 182.126831,420.929413 169.955734,418.383270 
	C142.747726,412.691376 127.677094,396.942444 123.012108,369.435974 
	C121.729584,361.873749 120.995682,354.266174 120.944649,346.580505 
	C120.927086,343.935913 121.427216,342.738068 124.455368,342.766724 
	C139.452271,342.908539 154.451828,342.899811 169.448959,342.770844 
	C172.340088,342.746033 173.074463,343.701965 173.069199,346.479858 
	C173.055893,353.481842 173.713242,360.421631 175.802490,367.187531 
	C178.248062,375.107391 184.159576,377.835388 191.734863,378.392914 
	C200.111237,379.009369 205.827515,376.193604 209.175858,369.508820 
	C212.607071,362.658539 213.315704,355.169800 213.966415,347.703918 
	C215.328552,332.075439 214.708969,316.405029 214.828583,300.295898 
z"/>
<path fill="#FFFBF9" opacity="1.000000" stroke="none" 
	d="
M489.901489,306.469391 
	C493.381317,306.583099 496.380981,306.617950 499.368927,306.823242 
	C517.702820,308.082916 526.195374,315.238647 527.418091,333.399323 
	C528.736206,352.977417 529.133301,372.710175 526.945862,392.294220 
	C525.379150,406.321503 516.844727,414.358185 502.695709,415.892365 
	C492.076172,417.043884 481.388336,416.382599 470.731415,416.564697 
	C467.936096,416.612457 467.441071,415.292145 467.444092,412.904694 
	C467.487305,378.572968 467.493896,344.241150 467.436035,309.909454 
	C467.431671,307.313019 468.325073,306.381378 470.917389,306.433990 
	C477.081268,306.559143 483.249420,306.471191 489.901489,306.469391 
z"/>
<path fill="#FFFBF9" opacity="1.000000" stroke="none" 
	d="
M1022.379639,348.272339 
	C1020.948975,353.900360 1018.200623,358.219635 1013.459900,360.858521 
	C1010.961243,362.249451 1010.998474,363.630157 1011.704956,366.062866 
	C1016.107971,381.223633 1020.212891,396.471252 1024.657593,411.619324 
	C1025.838013,415.642181 1024.978638,416.983246 1020.781494,416.578979 
	C1015.840515,416.103058 1009.788269,418.451355 1006.187988,415.657471 
	C1002.610229,412.880920 1003.032715,406.555908 1001.742432,401.778076 
	C998.882324,391.187317 995.801147,380.640961 993.441101,369.937347 
	C992.352966,365.002563 989.184692,366.249207 986.271973,366.242004 
	C982.498413,366.232666 983.936096,369.283600 983.920593,371.061920 
	C983.801208,384.716858 983.752075,398.374573 983.926331,412.028320 
	C983.969971,415.446533 983.073608,416.874451 979.495789,416.587799 
	C976.186279,416.322662 972.805115,416.233063 969.516174,416.604218 
	C964.804565,417.135773 963.283691,415.675659 963.342957,410.691803 
	C963.622009,387.213501 963.466980,363.730072 963.467102,340.248474 
	C963.467102,330.589386 963.611938,320.927002 963.392883,311.272888 
	C963.311462,307.687439 964.127197,306.208862 968.049194,306.392059 
	C979.499878,306.926849 991.049438,305.448853 1002.410828,307.739624 
	C1016.637085,310.608032 1023.171936,318.453156 1023.840088,333.024323 
	C1024.069946,338.035614 1023.699890,343.001617 1022.379639,348.272339 
z"/>
<path fill="#FFFCFA" opacity="1.000000" stroke="none" 
	d="
M722.181091,306.473999 
	C731.645752,306.595001 740.636414,306.201477 749.618042,306.970001 
	C765.886780,308.362091 774.147644,316.269226 775.158813,332.563507 
	C775.850769,343.714264 775.410156,354.806061 764.054688,361.523987 
	C761.519836,363.023621 763.096680,365.077240 763.579163,366.820038 
	C767.704651,381.720490 771.791504,396.633911 776.176025,411.458832 
	C777.314697,415.308929 777.081543,416.932373 772.550964,416.592010 
	C767.583191,416.218750 761.497498,418.077545 757.886719,415.805206 
	C754.191406,413.479675 754.697693,406.785034 753.372559,402.010193 
	C750.438660,391.439087 747.506592,380.851837 745.141724,370.145721 
	C744.106628,365.459808 741.186890,366.141937 738.102234,366.208405 
	C734.446106,366.287109 735.588501,369.142303 735.575989,371.011963 
	C735.485107,384.669647 735.433716,398.329254 735.591125,411.985718 
	C735.629883,415.345093 734.827271,416.861816 731.181641,416.588654 
	C727.372009,416.303192 723.503967,416.278137 719.699097,416.593597 
	C715.790344,416.917755 715.053955,415.300934 715.072388,411.713318 
	C715.213318,384.230896 715.149719,356.747406 715.149597,329.264252 
	C715.149597,323.767639 715.110901,318.270660 715.159546,312.774475 
	C715.218811,306.082611 714.097778,306.522919 722.181091,306.473999 
z"/>
<path fill="#FFFDFC" opacity="1.000000" stroke="none" 
	d="
M488.894470,144.331955 
	C489.536926,147.145966 490.468994,149.567429 490.539734,152.013779 
	C491.126068,172.291153 492.214905,192.631790 490.087982,212.824982 
	C488.493805,227.959900 479.794556,235.754944 464.744263,236.788666 
	C454.471832,237.494217 444.121674,237.026215 433.808624,237.213150 
	C431.273804,237.259109 430.792419,236.130661 430.795258,233.915512 
	C430.839020,199.467529 430.824554,165.019455 430.828247,130.571411 
	C430.828430,128.894852 430.651367,127.112587 433.215851,127.166298 
	C445.665192,127.427063 458.172882,126.265793 470.529297,128.752991 
	C479.360107,130.530548 485.585785,135.418182 488.894470,144.331955 
z"/>
<path fill="#FFFDFC" opacity="1.000000" stroke="none" 
	d="
M1329.628174,388.501404 
	C1327.905273,381.996552 1326.062256,375.931488 1324.819458,369.745850 
	C1323.918213,365.260681 1320.833496,366.289398 1317.979980,366.173065 
	C1314.288696,366.022552 1315.213013,368.746246 1315.205444,370.701599 
	C1315.152222,384.362762 1315.071655,398.025574 1315.249146,411.684631 
	C1315.294678,415.188385 1314.678955,416.997833 1310.674316,416.568817 
	C1305.582031,416.023315 1298.736206,418.702606 1295.819702,415.449463 
	C1293.294922,412.633026 1295.013428,405.933350 1295.008545,400.949982 
	C1294.979248,371.128204 1295.056274,341.306152 1294.915527,311.485046 
	C1294.897827,307.741364 1295.641479,306.208374 1299.757812,306.395386 
	C1309.400635,306.833405 1319.068115,306.182800 1328.721924,306.935760 
	C1346.119507,308.292725 1354.683350,317.098450 1355.157104,334.411407 
	C1355.280273,338.915009 1355.083862,343.410675 1353.917603,347.796722 
	C1352.695557,352.392334 1351.035767,357.227509 1346.742310,359.375854 
	C1341.726440,361.885651 1342.695801,364.926758 1343.858887,368.932678 
	C1348.077148,383.461426 1351.967407,398.085693 1356.224731,412.602600 
	C1357.170044,415.826172 1356.630981,416.742188 1353.306396,416.560211 
	C1348.009033,416.270172 1341.635986,418.036621 1337.691162,415.659180 
	C1333.877686,413.360840 1334.453613,406.355560 1333.010864,401.445953 
	C1331.792725,397.300507 1330.837036,393.077972 1329.628174,388.501404 
z"/>
<path fill="#FFFCFA" opacity="1.000000" stroke="none" 
	d="
M1387.073364,219.033493 
	C1380.960205,204.310394 1374.972778,189.949142 1368.985229,175.587891 
	C1368.689331,175.623734 1368.393433,175.659576 1368.097534,175.695419 
	C1368.015137,177.229355 1367.862793,178.763245 1367.861328,180.297256 
	C1367.844116,197.787170 1367.761108,215.277924 1367.924805,232.766312 
	C1367.957397,236.254898 1366.940674,237.259079 1363.450684,237.266617 
	C1350.473633,237.294632 1350.473877,237.420731 1350.473877,224.338394 
	C1350.473877,193.855957 1350.557739,163.373032 1350.380859,132.891617 
	C1350.355225,128.464615 1351.413696,127.226662 1356.070312,126.917892 
	C1362.628174,126.483047 1365.627075,128.755463 1368.049072,134.797394 
	C1374.966187,152.053543 1382.651245,169.001862 1390.812134,186.078720 
	C1390.924683,184.755707 1391.133179,183.432816 1391.134888,182.109665 
	C1391.157227,165.286041 1391.232910,148.461624 1391.080688,131.639359 
	C1391.049805,128.236206 1391.911499,127.063416 1395.502686,127.061111 
	C1408.010864,127.053085 1408.010620,126.911575 1408.010620,139.387024 
	C1408.010620,170.369171 1407.935913,201.351746 1408.104004,232.332977 
	C1408.125366,236.277939 1407.072510,237.393936 1403.151245,237.278290 
	C1394.658081,237.027832 1394.650024,237.241776 1391.421997,229.525681 
	C1390.009888,226.150742 1388.606445,222.772232 1387.073364,219.033493 
z"/>
<path fill="#FFFBF9" opacity="1.000000" stroke="none" 
	d="
M913.721436,211.382401 
	C908.663635,199.252594 903.751465,187.476196 898.539551,174.981461 
	C897.144165,177.233215 897.557068,179.030655 897.553833,180.683365 
	C897.519531,198.013184 897.457642,215.343689 897.596191,232.672470 
	C897.622925,236.016541 896.842773,237.275604 893.209534,237.279022 
	C880.467041,237.291046 880.467041,237.435501 880.467102,224.595230 
	C880.467224,193.934662 880.552429,163.273575 880.370422,132.614090 
	C880.344788,128.298172 881.424133,127.239670 885.843384,126.923813 
	C892.360901,126.457970 895.453003,128.621536 897.867615,134.740906 
	C904.213379,150.823242 911.374939,166.584381 918.272461,182.447006 
	C918.827332,183.722977 918.953674,185.346313 920.985840,186.447845 
	C920.985840,184.530518 920.985840,182.966309 920.985901,181.402100 
	C920.985962,164.738739 921.053040,148.074875 920.925781,131.412491 
	C920.902222,128.324448 921.509888,127.079124 924.978210,127.054176 
	C937.855774,126.961548 937.854858,126.822662 937.854797,139.613571 
	C937.854736,170.440781 937.768982,201.268494 937.953796,232.094589 
	C937.979309,236.349243 936.687378,237.412643 932.624817,237.280563 
	C924.400085,237.013138 924.389221,237.232666 921.282654,229.719254 
	C918.805176,223.727097 916.338440,217.730484 913.721436,211.382401 
z"/>
<path fill="#FFFBF9" opacity="1.000000" stroke="none" 
	d="
M434.697205,356.221680 
	C436.105316,359.438599 437.358948,362.307861 438.732941,365.452606 
	C440.485962,364.127228 439.766693,362.540375 439.771454,361.281342 
	C439.834351,344.628937 439.951813,327.974213 439.714600,311.324951 
	C439.656616,307.255737 440.989838,306.347290 444.790955,306.385895 
	C456.529266,306.505035 456.530792,306.359161 456.530762,318.097015 
	C456.530701,349.070953 456.448486,380.045319 456.625885,411.018250 
	C456.650391,415.296265 455.642609,416.459961 451.179565,416.750305 
	C444.983917,417.153351 442.229248,414.996155 440.020111,409.271179 
	C433.380890,392.065399 426.035950,375.131805 418.951996,358.098022 
	C418.397369,356.764313 417.731842,355.476715 416.186646,354.231476 
	C416.186646,355.605194 416.186676,356.978882 416.186676,358.352570 
	C416.186462,376.337433 416.113525,394.322815 416.252991,412.306610 
	C416.278046,415.533508 415.380951,416.562164 412.078888,416.607666 
	C399.145081,416.785706 399.146606,416.899872 399.146637,404.119263 
	C399.146637,373.311859 399.221008,342.504089 399.057373,311.697571 
	C399.035675,307.616547 400.033142,306.240631 404.276428,306.366425 
	C413.161011,306.629883 413.178192,306.388306 416.759644,314.673279 
	C422.695007,328.403534 428.615784,342.140076 434.697205,356.221680 
z"/>
<path fill="#FFFEFD" opacity="1.000000" stroke="none" 
	d="
M736.831055,146.396790 
	C738.302368,153.409088 738.269165,160.027634 737.016663,166.644440 
	C735.827576,172.926392 733.324280,178.500992 727.462036,181.707520 
	C724.894653,183.111816 725.080933,184.578278 725.764954,186.941940 
	C730.154114,202.110168 734.299011,217.349335 738.726685,232.506042 
	C739.792786,236.155426 739.363403,237.625916 735.173523,237.246552 
	C731.373230,236.902481 727.496338,236.925552 723.692139,237.247467 
	C720.292908,237.535110 719.180725,236.092926 718.414368,233.007904 
	C714.967346,219.130844 711.270325,205.315765 707.643677,191.483521 
	C706.571777,187.395355 703.440857,185.841965 699.447266,187.239426 
	C697.070496,188.071091 698.062805,190.021500 698.053833,191.461044 
	C697.969727,204.953690 697.851746,218.449860 698.097473,231.938538 
	C698.169983,235.916382 697.409180,237.779480 693.024658,237.229523 
	C688.131409,236.615768 681.734558,239.289825 678.646423,236.130081 
	C675.806885,233.224747 677.869507,226.932327 677.859009,222.138809 
	C677.793518,192.320724 677.905334,162.501953 677.735474,132.684692 
	C677.711670,128.503052 678.462585,126.829544 683.117676,127.047775 
	C694.731934,127.592255 706.434875,126.369942 717.949341,128.856766 
	C727.516968,130.923126 734.173706,136.229309 736.831055,146.396790 
z"/>
<path fill="#FFFDFC" opacity="1.000000" stroke="none" 
	d="
M1021.509766,132.438904 
	C1034.713257,123.905273 1048.268066,123.884735 1061.689087,130.272308 
	C1069.691406,134.080948 1073.210327,141.966156 1073.968018,150.326889 
	C1075.878296,171.403732 1076.142334,192.607224 1073.959229,213.637421 
	C1072.315186,229.474976 1063.313599,236.988632 1047.488037,238.393219 
	C1042.987061,238.792725 1038.479126,238.573975 1034.047241,237.772919 
	C1022.094299,235.612427 1014.785339,228.015625 1013.220642,216.457901 
	C1010.130981,193.635803 1010.482910,170.649673 1013.092102,147.766861 
	C1013.762207,141.890305 1016.770264,136.761292 1021.509766,132.438904 
z"/>
<path fill="#FFFCFA" opacity="1.000000" stroke="none" 
	d="
M385.159088,181.946564 
	C383.912415,179.477539 383.697540,176.890930 381.183624,174.434723 
	C381.183624,176.805832 381.183655,178.374283 381.183624,179.942734 
	C381.183319,197.601517 381.123322,215.260712 381.239410,232.918732 
	C381.259521,235.982025 380.658508,237.245956 377.191925,237.274963 
	C364.148468,237.384094 364.149628,237.522293 364.149628,224.415344 
	C364.149628,193.928940 364.226776,163.442139 364.062256,132.956619 
	C364.038910,128.635330 364.798950,126.755058 369.690063,127.038437 
	C380.075104,127.640144 377.228882,125.486107 381.381531,134.939240 
	C388.857544,151.957870 396.194794,169.037476 403.753021,186.467606 
	C405.431366,185.030731 404.773041,183.467834 404.777435,182.209671 
	C404.835846,165.550629 404.902344,148.890549 404.749176,132.232727 
	C404.715820,128.603821 405.295380,126.962143 409.552490,127.035103 
	C421.522522,127.240242 421.526245,127.026039 421.526215,139.024765 
	C421.526123,170.010941 421.446198,200.997559 421.621094,231.982758 
	C421.644379,236.113403 420.586548,237.423706 416.393036,237.280548 
	C408.134216,236.998627 408.138184,237.226028 405.024261,229.729660 
	C398.455688,213.916595 391.873383,198.109253 385.159088,181.946564 
z"/>
<path fill="#FFFDFC" opacity="1.000000" stroke="none" 
	d="
M614.006042,409.848877 
	C614.915161,415.268402 613.107178,416.853699 607.930054,416.653137 
	C596.834900,416.223358 596.822876,416.532990 596.822876,405.309631 
	C596.822937,373.993378 596.898621,342.676758 596.729553,311.361420 
	C596.707886,307.344330 597.919861,305.959747 601.774719,306.449402 
	C603.414062,306.657623 605.119385,306.638580 606.763733,306.450989 
	C609.714417,306.114319 611.128418,307.363892 612.288391,310.104523 
	C619.480042,327.095367 626.879333,343.998413 634.226013,360.923492 
	C634.853455,362.368958 635.600708,363.762482 637.156006,364.996155 
	C637.156006,359.418549 637.156067,353.840973 637.156067,348.263367 
	C637.156189,335.770172 637.252380,323.275757 637.089844,310.784668 
	C637.048584,307.614227 637.858643,306.469391 641.207458,306.407288 
	C654.008179,306.170044 654.006042,306.053925 654.006042,318.937378 
	C654.006042,349.753876 653.920776,380.570923 654.106445,411.386292 
	C654.131653,415.563873 652.986145,416.456909 648.889343,416.704315 
	C642.887146,417.066772 639.886658,415.357605 637.627014,409.393921 
	C631.210510,392.459534 623.908936,375.860382 616.943665,359.134338 
	C616.325745,357.650543 615.618591,356.203979 614.006042,354.854370 
	C614.006042,373.025970 614.006042,391.197540 614.006042,409.848877 
z"/>
<path fill="#FFFEFD" opacity="1.000000" stroke="none" 
	d="
M1339.722656,141.435333 
	C1342.201416,147.573425 1343.190063,153.599869 1343.180542,159.823395 
	C1343.157471,174.812027 1343.193359,189.800781 1343.152344,204.789337 
	C1343.145508,207.281143 1343.074341,209.804016 1342.689331,212.258698 
	C1338.932373,236.217224 1311.157593,247.545837 1291.256348,233.206421 
	C1283.923584,227.923050 1280.998901,219.938019 1280.472412,211.532562 
	C1279.233887,191.759232 1278.707520,171.866516 1280.587036,152.157364 
	C1282.470337,132.410706 1294.820068,124.299965 1317.457764,126.391281 
	C1327.356445,127.305756 1335.292847,131.530228 1339.722656,141.435333 
z"/>
<path fill="#FFFDFC" opacity="1.000000" stroke="none" 
	d="
M979.443115,209.626617 
	C974.516235,197.820526 969.777283,186.350433 965.038330,174.880341 
	C964.694275,174.910843 964.350159,174.941345 964.006104,174.971848 
	C964.006104,176.507935 964.006104,178.044006 964.006104,179.580078 
	C964.005981,197.397873 963.931763,215.216278 964.074097,233.032928 
	C964.099731,236.240616 963.263550,237.242722 959.945068,237.261230 
	C946.993286,237.333374 946.994019,237.456818 946.994019,224.437866 
	C946.994019,193.631393 947.068726,162.824493 946.901733,132.018936 
	C946.880249,128.060089 948.044983,127.324646 951.861450,126.971642 
	C958.673218,126.341583 961.986450,128.674194 964.518372,135.196350 
	C970.588623,150.833466 977.651672,166.085861 984.358704,181.474030 
	C984.977966,182.894760 985.186646,184.631424 986.800293,185.642593 
	C987.978760,183.850464 987.450073,182.001404 987.455200,180.271118 
	C987.503357,164.118683 987.586182,147.964905 987.407227,131.814301 
	C987.366211,128.112701 988.397644,127.014931 992.176880,127.058182 
	C1004.175232,127.195480 1004.177185,127.028297 1004.177124,138.952118 
	C1004.177063,169.925125 1004.068542,200.898911 1004.296143,231.870255 
	C1004.329590,236.418274 1002.917969,237.012207 998.756165,237.388626 
	C992.427917,237.961029 989.590210,235.595337 987.731079,229.798996 
	C985.556274,223.018433 982.375549,216.560501 979.443115,209.626617 
z"/>
<path fill="#FFFCFB" opacity="1.000000" stroke="none" 
	d="
M1272.162109,306.478943 
	C1285.008301,306.478516 1285.008423,306.478516 1285.008423,318.850189 
	C1285.008423,339.496796 1285.034912,360.143494 1284.994263,380.790009 
	C1284.979126,388.480316 1284.277466,396.068756 1281.190918,403.264740 
	C1278.617798,409.263977 1274.342163,413.471252 1268.181763,415.554993 
	C1258.904175,418.693176 1249.489258,418.711365 1240.223511,415.667175 
	C1229.694946,412.208038 1225.682617,403.617401 1224.087891,393.584198 
	C1223.359741,389.002380 1223.060059,384.309906 1223.039062,379.665497 
	C1222.936035,356.854767 1223.068726,334.042786 1222.911987,311.232666 
	C1222.887451,307.657654 1223.571899,306.036987 1227.503784,306.407074 
	C1231.134766,306.748871 1234.838501,306.688965 1238.481812,306.421021 
	C1242.046631,306.158875 1242.936646,307.542358 1242.917725,310.969971 
	C1242.784302,335.112457 1242.856812,359.256042 1242.837524,383.399261 
	C1242.834473,387.243835 1243.009399,391.059662 1244.088501,394.773224 
	C1245.509277,399.662201 1248.984741,402.357239 1253.901733,402.450256 
	C1258.863770,402.544128 1262.355835,399.995575 1263.901733,395.080750 
	C1265.013062,391.547607 1265.170654,387.901886 1265.166504,384.222168 
	C1265.139404,360.411987 1265.130371,336.601715 1265.167114,312.791565 
	C1265.177490,306.096985 1264.086670,306.526825 1272.162109,306.478943 
z"/>
<path fill="#FFFBF9" opacity="1.000000" stroke="none" 
	d="
M1066.425293,402.091003 
	C1071.042969,400.792480 1072.934692,397.573029 1073.765259,393.636383 
	C1074.485962,390.220062 1074.851074,386.753021 1074.842773,383.225586 
	C1074.786377,359.404877 1074.902710,335.583344 1074.726196,311.763824 
	C1074.696655,307.776825 1075.499878,305.929382 1079.859985,306.410126 
	C1084.462402,306.917572 1090.481567,304.538177 1093.398682,307.283142 
	C1096.591431,310.287445 1094.474854,316.416840 1094.475586,321.164612 
	C1094.478760,343.147217 1094.296997,365.129883 1094.147583,387.112305 
	C1094.135132,388.938232 1093.996338,390.783447 1093.700439,392.584290 
	C1089.848267,416.029022 1061.786987,426.761871 1042.848999,411.961090 
	C1035.709595,406.381378 1033.561890,398.180756 1033.109131,389.766418 
	C1031.676514,363.142548 1032.782715,336.481628 1032.437744,309.838684 
	C1032.403076,307.159363 1033.474609,306.312866 1035.986084,306.450836 
	C1041.120117,306.732849 1047.568848,304.454254 1051.038452,307.319061 
	C1054.411133,310.103851 1052.092529,316.692261 1052.126831,321.590851 
	C1052.269165,341.912506 1052.148682,362.235901 1052.224243,382.558258 
	C1052.236572,385.870697 1052.529053,389.218201 1053.075684,392.485291 
	C1054.342651,400.056305 1058.145264,402.803223 1066.425293,402.091003 
z"/>
<path fill="#FFFDFC" opacity="1.000000" stroke="none" 
	d="
M497.821167,186.999908 
	C497.821381,168.175873 497.908691,149.851074 497.746216,131.528503 
	C497.714874,127.996101 498.794861,126.823799 502.267059,127.095284 
	C505.744019,127.367142 509.275909,127.370239 512.752319,127.094658 
	C516.250244,126.817360 517.293030,128.042221 517.253174,131.548126 
	C517.078979,146.871689 517.052124,162.199738 517.219910,177.523438 
	C517.347412,189.168625 516.362244,200.847595 517.983154,212.455460 
	C518.858704,218.725388 521.697998,222.260925 526.241089,223.038071 
	C532.743469,224.150375 537.293091,221.171875 538.838562,214.671509 
	C539.923889,210.106339 539.990906,205.436020 539.991455,200.770859 
	C539.993958,177.782547 540.079163,154.793564 539.905334,131.806564 
	C539.877258,128.090271 540.797424,126.748131 544.600952,127.081657 
	C548.403137,127.415070 552.263306,127.286484 556.086609,127.111626 
	C558.733887,126.990547 559.573059,128.038742 559.541504,130.579910 
	C559.208130,157.390396 560.374146,184.221725 558.927185,211.010651 
	C557.934326,229.391586 548.026794,238.370316 529.573975,238.471863 
	C525.933899,238.491882 522.203552,238.319183 518.664185,237.549026 
	C505.738037,234.736267 499.006042,225.780258 498.081451,209.979126 
	C497.644165,202.506561 497.886627,194.994232 497.821167,186.999908 
z"/>
<path fill="#FFFDFC" opacity="1.000000" stroke="none" 
	d="
M1143.005371,325.416321 
	C1140.246704,320.315277 1136.055664,319.685394 1131.272827,320.575562 
	C1126.395508,321.483276 1124.460815,324.927124 1123.806763,329.369171 
	C1123.468750,331.664734 1123.212524,333.996460 1123.205444,336.312775 
	C1123.155151,352.804993 1123.140015,369.297607 1123.216553,385.789612 
	C1123.229492,388.600555 1123.526978,391.449188 1124.056885,394.210602 
	C1125.178101,400.055206 1128.980957,403.039459 1134.534180,402.748322 
	C1140.047241,402.459290 1143.477173,399.103912 1143.909180,393.028992 
	C1144.239502,388.385468 1144.312012,383.696960 1144.081543,379.049164 
	C1143.913696,375.663330 1145.151978,374.736023 1148.359619,374.931610 
	C1152.508911,375.184601 1156.686523,375.056366 1160.849487,374.970825 
	C1162.872925,374.929260 1163.867554,375.486969 1163.879395,377.751831 
	C1163.913086,384.255951 1164.001343,390.777008 1162.511597,397.138489 
	C1159.162109,411.441406 1150.388672,418.820709 1130.802734,417.622070 
	C1114.148071,416.602844 1105.170898,408.686981 1103.590210,391.915649 
	C1101.685791,371.709839 1101.671631,351.250458 1103.591187,331.045563 
	C1105.304199,313.012756 1115.322021,303.926544 1137.651001,305.422638 
	C1155.206421,306.598938 1162.608521,315.250549 1163.821289,333.849121 
	C1164.647461,346.519989 1164.647461,346.519989 1152.168579,346.518951 
	C1151.668823,346.518890 1151.169067,346.519348 1150.669312,346.518829 
	C1144.158325,346.512421 1144.233032,346.511169 1144.129883,340.181427 
	C1144.051514,335.377686 1144.705688,330.509918 1143.005371,325.416321 
z"/>
<path fill="#FFFCFB" opacity="1.000000" stroke="none" 
	d="
M839.274780,388.506958 
	C841.015442,397.078735 842.546387,405.260895 844.384399,413.373505 
	C844.983704,416.018402 844.191772,416.719818 841.802673,416.519379 
	C841.637329,416.505524 841.469543,416.522278 841.302979,416.519714 
	C836.477966,416.445038 830.618835,418.026825 827.112488,415.838623 
	C823.447815,413.551544 824.632080,407.053223 823.731628,402.394623 
	C821.532715,391.017975 821.570496,391.319580 809.774414,390.869080 
	C804.424438,390.664795 802.064636,391.991669 801.708435,397.581055 
	C801.382507,402.694366 799.754639,407.712067 799.151306,412.825104 
	C798.785583,415.924408 797.402832,416.697632 794.599060,416.561554 
	C791.107727,416.392120 787.577759,416.264343 784.108643,416.589630 
	C780.011719,416.973846 779.333130,415.426056 780.122009,411.724518 
	C783.520935,395.778107 786.722168,379.789490 789.985352,363.814178 
	C793.614746,346.045685 797.328491,328.293274 800.766785,310.487762 
	C801.369812,307.365082 802.495239,306.263000 805.609375,306.422943 
	C809.930725,306.644867 814.278320,306.620453 818.602600,306.428925 
	C821.543823,306.298584 822.932190,307.058990 823.563660,310.285797 
	C828.644043,336.245422 833.948486,362.161163 839.274780,388.506958 
z"/>
<path fill="#FFFCFB" opacity="1.000000" stroke="none" 
	d="
M371.933716,398.227875 
	C371.905426,392.112640 369.124146,390.625702 363.565491,390.859528 
	C351.864960,391.351776 351.852722,391.009003 349.912445,402.681580 
	C349.776184,403.501068 349.590485,404.313660 349.397522,405.122192 
	C348.523376,408.784576 349.594788,414.357300 346.636200,415.746582 
	C341.828918,418.004059 335.845795,416.698303 330.408600,416.346008 
	C327.099579,416.131622 328.977570,413.074371 329.271332,411.544403 
	C331.747955,398.645721 334.454712,385.791260 337.089447,372.922913 
	C341.326111,352.230896 345.645966,331.555176 349.706635,310.828705 
	C350.337128,307.610535 351.317230,306.110992 354.760132,306.436340 
	C360.340118,306.963623 367.519897,304.123444 371.111877,307.610748 
	C374.383911,310.787506 373.948700,317.832153 375.044128,323.193054 
	C380.936920,352.031860 386.791321,380.878510 392.673706,409.719452 
	C394.061523,416.523987 394.087585,416.518677 387.462280,416.522949 
	C374.872498,416.531036 374.876801,416.530365 372.934692,404.063629 
	C372.653198,402.256653 372.307800,400.459595 371.933716,398.227875 
z"/>
<path fill="#FFFDFC" opacity="1.000000" stroke="none" 
	d="
M1196.020874,208.927643 
	C1197.677612,217.173721 1199.161255,225.025803 1200.946167,232.808807 
	C1201.764038,236.374969 1200.833862,237.583038 1197.158569,237.229904 
	C1192.537964,236.785950 1186.838379,238.971146 1183.525513,236.387375 
	C1180.387085,233.939697 1181.387573,228.010773 1180.507080,223.627838 
	C1178.141235,211.853043 1178.182861,212.165283 1166.326050,211.697861 
	C1161.061279,211.490311 1158.883789,212.890915 1158.504028,218.223618 
	C1158.151611,223.175369 1156.595215,228.032166 1156.068359,232.983887 
	C1155.695923,236.484558 1154.154541,237.448303 1150.901978,237.230911 
	C1147.417969,236.998047 1143.900391,237.052628 1140.408447,237.216156 
	C1137.369263,237.358475 1136.013672,237.017578 1136.810547,233.194366 
	C1143.906738,199.155624 1150.830322,165.080322 1157.608765,130.976837 
	C1158.257446,127.713364 1159.604858,126.967049 1162.558716,127.105591 
	C1166.715820,127.300568 1170.895142,127.295921 1175.052979,127.108223 
	C1178.156860,126.968102 1179.630371,127.642395 1180.326904,131.213715 
	C1185.358887,157.013229 1190.716431,182.749268 1196.020874,208.927643 
z"/>
<path fill="#FFFCFB" opacity="1.000000" stroke="none" 
	d="
M892.928833,414.071716 
	C870.314087,425.178314 848.387146,411.955078 847.526245,387.128387 
	C847.447571,384.859772 848.081238,383.743347 850.309753,383.333099 
	C854.068604,382.641083 857.811096,381.850159 861.540649,381.012512 
	C863.975098,380.465820 865.127258,380.970886 865.256653,383.820892 
	C865.445068,387.969543 866.163635,392.098389 868.090149,395.882477 
	C870.594299,400.801422 875.263428,403.210541 880.006653,401.785248 
	C885.043945,400.271606 886.206970,396.218781 886.138428,391.560364 
	C886.050903,385.605896 883.866821,380.459473 879.521179,376.448364 
	C873.044250,370.470001 866.430786,364.634796 859.759766,358.872650 
	C848.835266,349.436493 845.316162,337.584686 848.619934,323.802460 
	C851.706299,310.926819 864.326599,303.628601 879.461426,305.281036 
	C894.051819,306.874054 901.521729,315.091949 903.347290,332.417847 
	C903.580933,334.634979 902.670715,335.478027 900.747131,335.777161 
	C900.089355,335.879456 899.425476,335.945160 898.770508,336.062164 
	C895.014648,336.733002 890.765015,338.817688 887.639404,337.713928 
	C884.221741,336.507080 886.177734,331.265961 884.951111,327.927399 
	C882.958191,322.503326 879.826233,320.030640 874.601746,320.713165 
	C869.436707,321.387939 866.779846,324.662567 866.514404,330.376221 
	C866.234680,336.399445 869.037964,340.944916 873.274963,344.757874 
	C878.717102,349.655457 884.342651,354.349304 889.782410,359.249451 
	C900.297363,368.721497 906.989563,379.859985 905.237183,394.746155 
	C904.255005,403.090027 900.288635,409.417297 892.928833,414.071716 
z"/>
<path fill="#FFFCFB" opacity="1.000000" stroke="none" 
	d="
M617.719788,228.643341 
	C608.451477,239.435684 596.823364,240.239365 584.592834,237.000717 
	C573.040771,233.941742 567.987976,224.968552 565.989990,213.935822 
	C564.335327,204.798935 564.425110,204.772034 573.596008,203.023346 
	C576.358337,202.496613 579.667908,200.890656 581.766113,201.859543 
	C584.223083,202.994049 582.659851,206.956726 583.406433,209.615341 
	C584.306946,212.822479 584.885193,216.114639 586.986694,218.840347 
	C589.702820,222.363220 593.267151,223.733765 597.565369,222.629562 
	C601.713440,221.563934 603.395325,218.281433 603.709534,214.408463 
	C604.235901,207.920090 602.156616,202.140900 597.434753,197.679504 
	C591.025208,191.623520 584.423828,185.758575 577.715271,180.033798 
	C566.760315,170.685425 563.026123,158.998245 566.021423,145.086029 
	C567.502258,138.207672 571.379150,132.879303 577.703552,129.708420 
	C586.794800,125.150360 596.299622,124.642975 605.782959,128.243393 
	C614.575928,131.581726 621.583557,143.832428 621.050110,153.807968 
	C620.958984,155.511520 620.355835,156.191971 618.836304,156.429810 
	C617.852600,156.583801 616.882202,156.820984 615.902527,157.003403 
	C612.310303,157.672394 608.167786,159.748474 605.269043,158.623596 
	C601.992004,157.351913 603.657043,152.209457 602.505920,148.888245 
	C600.583557,143.341690 597.246216,140.724396 592.327637,141.500351 
	C586.774597,142.376419 584.105164,145.638214 584.003113,151.535492 
	C583.899231,157.541931 586.895508,161.986191 591.117126,165.797668 
	C597.789307,171.821564 604.774902,177.525742 611.139771,183.856033 
	C620.834473,193.498077 625.090454,205.134094 622.256836,218.894485 
	C621.537354,222.388519 619.979919,225.478165 617.719788,228.643341 
z"/>
<path fill="#FFFCFB" opacity="1.000000" stroke="none" 
	d="
M1112.716797,185.561829 
	C1116.022705,166.962112 1119.269043,148.790527 1122.418335,130.602142 
	C1122.857910,128.063507 1123.813843,126.900650 1126.595093,127.092613 
	C1130.241333,127.344299 1133.931030,127.347801 1137.577759,127.099922 
	C1141.114624,126.859512 1141.338135,128.495056 1140.760986,131.307495 
	C1133.743774,165.508072 1126.770020,199.717590 1119.829468,233.933807 
	C1119.364990,236.223480 1118.475586,237.639160 1115.886719,237.181564 
	C1115.725342,237.153061 1115.554077,237.182755 1115.387695,237.178650 
	C1110.248169,237.051834 1104.004272,238.660858 1100.286621,236.297073 
	C1096.730957,234.036270 1097.509033,227.220200 1096.513794,222.390701 
	C1090.306152,192.268387 1084.277222,162.109192 1078.034180,131.994324 
	C1077.187378,127.909279 1078.317993,127.002380 1082.322754,127.059860 
	C1095.102173,127.243271 1095.198364,127.067215 1097.599365,139.562317 
	C1101.175903,158.176315 1104.598999,176.819809 1108.106079,195.447205 
	C1108.410400,197.063416 1108.854370,198.653320 1109.889648,200.313309 
	C1110.802002,195.537079 1111.714233,190.760864 1112.716797,185.561829 
z"/>
<path fill="#FFFCFA" opacity="1.000000" stroke="none" 
	d="
M1408.562988,416.501892 
	C1395.281128,416.519531 1382.458984,416.362701 1369.645020,416.619049 
	C1365.593872,416.700134 1364.722046,415.328400 1364.737549,411.526062 
	C1364.874390,378.064087 1364.878662,344.601013 1364.731079,311.139099 
	C1364.714478,307.377350 1365.761108,306.327332 1369.480103,306.392181 
	C1381.962280,306.609894 1394.452026,306.574341 1406.935791,306.408997 
	C1410.230103,306.365356 1411.104736,307.416473 1411.092896,310.659576 
	C1411.055786,320.849854 1411.197266,320.850372 1400.965332,320.850433 
	C1397.136230,320.850433 1393.293457,321.051910 1389.482300,320.790283 
	C1386.142700,320.561005 1384.782227,321.409851 1384.924805,325.088989 
	C1385.214600,332.569366 1385.177246,340.074219 1384.935913,347.558075 
	C1384.827393,350.925171 1385.580933,352.367523 1389.249756,352.063232 
	C1393.217896,351.734131 1397.243652,352.154144 1401.227173,351.935883 
	C1404.295166,351.767731 1405.592896,352.482727 1405.614868,355.952545 
	C1405.681763,366.527130 1405.841431,366.526123 1395.237915,366.526184 
	C1385.010742,366.526245 1385.010498,366.526245 1385.010742,376.562866 
	C1385.010864,383.888000 1385.130615,391.216064 1384.952271,398.536835 
	C1384.883179,401.373932 1385.764038,402.290863 1388.605469,402.205139 
	C1394.759644,402.019501 1400.930420,402.326202 1407.080322,402.080353 
	C1410.445557,401.945831 1411.526001,403.144104 1411.227417,406.364777 
	C1410.997925,408.841034 1411.152344,411.355194 1411.179321,413.852051 
	C1411.195679,415.363251 1410.822754,416.489594 1408.562988,416.501892 
z"/>
<path fill="#FFFDFC" opacity="1.000000" stroke="none" 
	d="
M775.894958,237.176270 
	C771.910339,237.176559 768.402466,237.007263 764.919312,237.227661 
	C761.957458,237.415085 760.778259,236.597443 760.921082,233.389740 
	C761.180115,227.572678 760.625671,221.707748 761.067322,215.912827 
	C762.125061,202.033844 759.401855,188.943817 754.645081,175.951004 
	C749.278992,161.293762 744.896973,146.278915 739.809143,131.515335 
	C738.489624,127.686478 739.494324,127.100281 743.108704,127.087799 
	C757.414307,127.038414 757.406982,126.942062 761.640869,140.572403 
	C764.449951,149.615875 767.279236,158.653091 770.121887,167.686081 
	C770.197754,167.927200 770.532715,168.086807 771.278381,168.775055 
	C772.538330,164.781769 773.749451,161.092926 774.865723,157.375565 
	C777.541809,148.463806 780.269104,139.565277 782.761292,130.601776 
	C783.456970,128.099426 784.474243,126.954926 787.181946,127.112274 
	C791.984680,127.391365 798.911438,125.532707 801.077637,127.986511 
	C803.735535,130.997314 799.338989,136.719604 797.918457,141.217773 
	C792.764282,157.539368 787.403625,173.796829 781.983765,190.032730 
	C780.700256,193.877686 780.080017,197.694077 780.131897,201.746750 
	C780.266174,212.236496 780.084534,222.730408 780.234619,233.219727 
	C780.276794,236.166321 779.574158,237.705780 775.894958,237.176270 
z"/>
<path fill="#FFF7F3" opacity="1.000000" stroke="none" 
	d="
M942.557373,410.719116 
	C943.142334,415.121307 941.876221,417.100128 937.476929,416.623047 
	C934.349854,416.283966 931.128845,416.294006 927.999207,416.621429 
	C923.685425,417.072723 922.293457,415.696228 922.333740,411.158417 
	C922.559753,385.683014 922.442322,360.204529 922.442261,334.727112 
	C922.442261,321.635773 922.437134,321.396851 909.204956,321.685822 
	C904.521973,321.788086 903.762268,320.148193 903.880859,316.007782 
	C904.154846,306.448120 903.955627,306.442352 913.673889,306.442413 
	C927.661499,306.442505 941.650085,306.535522 955.635925,306.377258 
	C959.110107,306.337921 960.688782,306.965912 960.657837,310.971252 
	C960.575989,321.552490 960.772949,321.553986 950.206055,321.557709 
	C949.206909,321.558075 948.189941,321.681305 947.211853,321.538361 
	C943.395264,320.980286 942.456299,322.695831 942.485718,326.331757 
	C942.642151,345.646698 942.558228,364.963593 942.557678,384.279816 
	C942.557495,392.938812 942.557556,401.597839 942.557373,410.719116 
z"/>
<path fill="#FFFCFB" opacity="1.000000" stroke="none" 
	d="
M664.990723,345.000000 
	C664.990723,333.345947 665.180542,322.186951 664.888062,311.040558 
	C664.785339,307.122833 666.114868,306.344635 669.689270,306.403198 
	C681.672485,306.599487 693.662292,306.576508 705.646545,306.414337 
	C708.955933,306.369568 710.304443,307.096161 710.274292,310.768036 
	C710.193970,320.521423 710.375488,320.522125 700.624695,320.523346 
	C696.629211,320.523865 692.631348,320.613739 688.639160,320.500519 
	C686.094238,320.428375 685.105408,321.369690 685.142883,323.987183 
	C685.259583,332.142914 685.280640,340.303192 685.130737,348.457855 
	C685.079346,351.250397 685.922852,352.328308 688.799072,352.200104 
	C693.118835,352.007599 697.458313,352.274872 701.780396,352.110321 
	C704.408630,352.010254 705.122986,353.013062 705.240051,355.561554 
	C705.743896,366.526733 705.827515,366.522858 694.829529,366.522949 
	C685.181580,366.523041 685.181580,366.523071 685.181458,376.281067 
	C685.181335,388.101013 685.052307,399.923248 685.259216,411.739563 
	C685.321960,415.319214 684.557434,416.991943 680.632935,416.571869 
	C675.548340,416.027588 668.709106,418.720551 665.804749,415.436707 
	C663.287170,412.590240 665.014648,405.918488 665.005005,400.937195 
	C664.969116,382.458191 664.990723,363.979065 664.990723,345.000000 
z"/>
<path fill="#FFFBF9" opacity="1.000000" stroke="none" 
	d="
M640.000488,127.145248 
	C650.992615,127.145538 661.486511,127.250549 671.976135,127.082970 
	C675.167603,127.031982 676.257263,127.888107 676.273926,131.251282 
	C676.328003,142.184113 676.473755,142.149109 665.378296,142.200058 
	C657.964783,142.234100 658.547058,141.151627 658.540833,149.260925 
	C658.519714,176.907242 658.468262,204.553894 658.607422,232.199524 
	C658.626465,235.981125 657.790344,237.668152 653.679932,237.262665 
	C650.051270,236.904694 646.334534,236.921204 642.702148,237.259674 
	C638.774292,237.625641 638.053040,235.999527 638.070496,232.420639 
	C638.206299,204.608429 638.172485,176.795212 638.127808,148.982422 
	C638.115234,141.152664 639.093750,142.301666 631.132568,142.190643 
	C629.800537,142.172073 628.467896,142.188156 627.135559,142.187988 
	C619.812195,142.187073 619.812195,142.187027 619.812012,134.760132 
	C619.811829,127.145782 619.811829,127.145683 627.509277,127.145279 
	C631.506409,127.145065 635.503479,127.145248 640.000488,127.145248 
z"/>
<path fill="#FFFCFA" opacity="1.000000" stroke="none" 
	d="
M1201.999023,306.473969 
	C1207.494873,306.476746 1212.493164,306.567719 1217.486206,306.445953 
	C1220.094116,306.382385 1220.809937,307.412354 1220.913330,309.963684 
	C1221.381470,321.524353 1221.464722,321.520996 1210.066528,321.526245 
	C1203.011719,321.529510 1203.010986,321.529510 1203.010986,328.745117 
	C1203.010620,356.390289 1202.921753,384.036072 1203.108887,411.679962 
	C1203.136108,415.708984 1201.936646,416.917480 1198.088623,416.588440 
	C1194.616699,416.291504 1191.072388,416.252472 1187.609131,416.596008 
	C1183.464844,417.007080 1182.724121,415.212189 1182.742065,411.481995 
	C1182.878418,383.171356 1182.746216,354.859344 1182.898071,326.548828 
	C1182.918823,322.679077 1181.923828,320.943115 1177.914551,321.498779 
	C1176.607422,321.679901 1175.246460,321.616608 1173.922974,321.508148 
	C1170.809204,321.253021 1166.335571,323.011292 1164.879150,320.662781 
	C1162.789429,317.293243 1164.140259,312.581177 1164.258545,308.457642 
	C1164.341309,305.576965 1166.929199,306.532440 1168.525146,306.520020 
	C1179.515869,306.434540 1190.507812,306.474396 1201.999023,306.473969 
z"/>
<path fill="#FFFEFE" opacity="1.000000" stroke="none" 
	d="
M1212.000122,233.826172 
	C1211.998413,204.523941 1211.935059,175.707626 1212.078125,146.892334 
	C1212.096069,143.288010 1211.366455,141.493622 1207.464600,142.147415 
	C1206.492432,142.310303 1205.469849,142.171478 1204.470459,142.171417 
	C1192.632812,142.170578 1192.687134,142.175507 1193.785522,130.068710 
	C1193.973755,127.994568 1194.569336,127.132614 1196.728638,127.139389 
	C1213.551636,127.192230 1230.409302,126.556717 1247.179321,127.501076 
	C1253.017334,127.829819 1248.948120,134.486969 1249.917603,138.126358 
	C1250.482300,140.245758 1250.316040,142.474197 1246.861084,142.219604 
	C1243.547852,141.975433 1240.180664,142.407883 1236.876709,142.108521 
	C1233.157715,141.771545 1232.053467,143.017227 1232.084717,146.808243 
	C1232.263550,168.460403 1232.171509,190.114807 1232.171021,211.768448 
	C1232.170776,219.097366 1232.082153,226.427856 1232.214600,233.754364 
	C1232.260864,236.313644 1231.510010,237.320999 1228.834839,237.217178 
	C1224.177979,237.036423 1219.507324,237.090759 1214.845947,237.197769 
	C1212.695068,237.247162 1211.734497,236.474518 1212.000122,233.826172 
z"/>
<path fill="#FFF7F3" opacity="1.000000" stroke="none" 
	d="
M334.442566,184.999756 
	C334.442749,167.028839 334.547089,149.556854 334.362000,132.087906 
	C334.321106,128.227478 335.307465,126.593399 339.349579,127.086258 
	C344.226654,127.680923 350.558075,124.998459 353.678009,128.234055 
	C356.574829,131.238235 354.509460,137.450500 354.521027,142.241699 
	C354.593384,172.191620 354.469360,202.142380 354.658142,232.091293 
	C354.684570,236.290619 353.554108,237.722321 349.399689,237.272354 
	C346.274963,236.933899 343.057770,236.948105 339.929199,237.268585 
	C335.717712,237.700012 334.220398,236.530731 334.318115,231.919800 
	C334.645905,216.452515 334.442535,200.973984 334.442566,184.999756 
z"/>
<path fill="#FFFBF9" opacity="1.000000" stroke="none" 
	d="
M585.188965,356.000946 
	C585.188843,374.973907 585.084595,393.447876 585.275696,411.918854 
	C585.314453,415.663025 584.296936,416.965546 580.541016,416.599457 
	C577.243896,416.278046 573.862122,416.257904 570.569214,416.600220 
	C566.206360,417.053741 565.340027,415.159515 565.385620,411.183350 
	C565.578552,394.376892 565.467102,377.566895 565.467102,360.758209 
	C565.467102,344.448792 565.579529,328.138031 565.386597,311.830872 
	C565.339844,307.873566 566.173035,305.898560 570.553345,306.422638 
	C575.271606,306.987152 581.438110,304.402161 584.401672,307.525269 
	C587.114136,310.383698 585.121460,316.419983 585.158691,321.051636 
	C585.250977,332.534088 585.188965,344.017731 585.188965,356.000946 
z"/>
<path fill="#FFFEFE" opacity="1.000000" stroke="none" 
	d="
M1272.001587,181.000000 
	C1272.001587,198.306992 1271.882568,215.115433 1272.090210,231.919861 
	C1272.138550,235.839188 1271.493530,237.706070 1267.049072,237.255615 
	C1262.284424,236.772690 1255.845093,238.790222 1253.071777,236.362900 
	C1249.872192,233.562469 1252.062012,226.988174 1252.046265,222.067383 
	C1251.950439,192.114639 1252.090332,162.160858 1251.894897,132.209076 
	C1251.867188,127.942719 1253.121826,126.703232 1257.197998,127.089729 
	C1260.826294,127.433769 1264.526123,127.353989 1268.169922,127.104637 
	C1271.306152,126.890030 1272.084961,128.082779 1272.061890,131.077927 
	C1271.934692,147.551117 1272.001343,164.025818 1272.001587,181.000000 
z"/>
<path fill="#FFFDFC" opacity="1.000000" stroke="none" 
	d="
M864.877197,237.178772 
	C860.112976,236.940857 854.574768,238.962784 851.880432,236.371857 
	C849.153381,233.749496 851.042297,228.173813 851.032043,223.903503 
	C850.958496,193.278091 851.066040,162.652023 850.901978,132.027328 
	C850.880859,128.091568 851.913147,126.676926 855.872681,127.089081 
	C859.001160,127.414734 862.220215,127.426636 865.346008,127.088364 
	C869.643860,126.623253 870.994934,127.943245 870.960266,132.494049 
	C870.736206,161.952820 870.845642,191.414139 870.845642,220.874619 
	C870.845703,224.536377 870.514526,228.236038 870.928589,231.850357 
	C871.455078,236.446396 869.598755,237.892609 864.877197,237.178772 
z"/>
<path fill="#FFFBF9" opacity="1.000000" stroke="none" 
	d="
M818.262939,239.236572 
	C817.472717,247.385437 813.549805,252.594391 806.119385,255.051956 
	C804.487061,255.591843 802.563538,256.200745 802.352600,253.703644 
	C802.192139,251.803253 799.219727,249.418762 802.967102,247.855637 
	C804.843689,247.072845 806.341675,245.733444 807.547241,244.118698 
	C808.861328,242.358612 810.179321,240.211014 809.280457,238.187347 
	C808.428223,236.268661 805.957825,237.105499 804.285706,237.266144 
	C800.763184,237.604568 799.577148,236.331757 799.934509,232.838257 
	C800.386047,228.422760 798.144836,222.646774 800.791687,219.883575 
	C803.467712,217.089844 809.291504,219.460419 813.685059,218.934341 
	C817.709412,218.452469 818.867859,220.034714 818.599792,223.884857 
	C818.254639,228.841507 818.396484,233.832062 818.262939,239.236572 
z"/>
<path fill="#FD6926" opacity="1.000000" stroke="none" 
	d="
M520.635620,1090.321777 
	C533.190857,1097.591309 545.399109,1104.730713 557.706726,1111.694702 
	C560.146545,1113.075195 561.234314,1114.551514 561.229736,1117.496704 
	C561.137024,1177.139771 561.158508,1236.782837 561.150452,1296.426025 
	C561.150330,1297.087280 561.062073,1297.748535 561.014771,1298.411865 
	C559.436401,1299.185669 558.479370,1297.942749 557.430298,1297.337891 
	C506.116882,1267.756470 454.825562,1238.136597 403.505432,1208.566772 
	C401.343170,1207.320801 400.089142,1206.108643 400.094116,1203.250854 
	C400.198120,1143.441162 400.173553,1083.631470 400.182037,1023.821716 
	C400.182129,1023.174622 400.285797,1022.527466 400.419861,1020.958984 
	C440.670959,1044.179443 480.497253,1067.154785 520.635620,1090.321777 
z"/>
<path fill="#FD6926" opacity="1.000000" stroke="none" 
	d="
M948.973022,1090.037842 
	C946.660156,1091.670776 944.869080,1092.181763 942.363647,1090.728516 
	C890.279541,1060.518188 838.138550,1030.406006 786.012756,1000.267517 
	C785.730530,1000.104431 785.504028,999.845032 784.827332,999.270264 
	C787.121460,997.843628 789.248535,996.435242 791.453735,995.162109 
	C841.293030,966.388306 891.159241,937.661194 940.943848,908.793274 
	C944.113770,906.955200 946.321289,907.042969 949.473572,908.871826 
	C1000.114136,938.252502 1050.841553,967.483337 1101.547241,996.751709 
	C1102.821411,997.487122 1104.072632,998.262451 1105.947144,999.386597 
	C1053.399414,1029.743164 1001.351746,1059.810913 948.973022,1090.037842 
z"/>
<path fill="#FD6925" opacity="1.000000" stroke="none" 
	d="
M1118.491699,1124.000488 
	C1118.491577,1150.318970 1118.474121,1176.137573 1118.516235,1201.956055 
	C1118.520630,1204.712646 1118.371704,1206.880981 1115.441040,1208.564575 
	C1063.659058,1238.312988 1011.950134,1268.188354 960.221008,1298.028687 
	C959.671570,1298.345703 959.065002,1298.563599 958.441467,1298.847656 
	C956.944885,1297.347534 957.540222,1295.605835 957.539307,1294.069092 
	C957.503296,1235.602661 957.545044,1177.136108 957.422302,1118.669922 
	C957.414551,1114.996826 958.647156,1113.051880 961.754395,1111.265381 
	C1012.229797,1082.246094 1062.638794,1053.110840 1113.066040,1024.007812 
	C1118.452881,1020.898804 1118.485718,1020.915649 1118.487305,1027.055908 
	C1118.495728,1059.204102 1118.491455,1091.352173 1118.491699,1124.000488 
z"/>
<path fill="#FD6A26" opacity="1.000000" stroke="none" 
	d="
M813.812500,767.806335 
	C852.157166,745.651428 890.182617,723.676086 928.212769,701.708862 
	C932.783264,699.068726 932.825623,699.089050 932.826416,704.477356 
	C932.834229,758.115601 932.815918,811.753906 932.866882,865.392090 
	C932.870117,868.794861 933.162903,870.920105 928.623779,868.282104 
	C882.023376,841.198914 835.318115,814.296082 788.654907,787.320923 
	C787.402466,786.597046 785.836121,786.206848 785.067749,784.370728 
	C794.538269,778.912903 804.016541,773.450623 813.812500,767.806335 
z"/>
<path fill="#FD6926" opacity="1.000000" stroke="none" 
	d="
M727.125366,789.108154 
	C680.160400,816.220886 633.524048,843.158325 586.745483,870.177979 
	C585.618347,868.484436 586.022888,866.972778 586.022278,865.577087 
	C585.997925,811.934387 585.999878,758.291748 586.004028,704.649048 
	C586.004456,699.141907 586.028748,699.128113 590.771973,701.865112 
	C636.882935,728.472961 682.991943,755.084412 729.097473,781.701843 
	C730.631714,782.587646 732.123596,783.546753 733.750305,784.542053 
	C731.984863,786.876648 729.440491,787.506348 727.125366,789.108154 
z"/>
<path fill="#FD6926" opacity="1.000000" stroke="none" 
	d="
M639.819946,1159.166382 
	C671.259033,1177.313110 702.375183,1195.288818 734.518005,1213.857422 
	C684.925171,1242.492188 635.954285,1270.767822 587.006226,1299.030273 
	C585.319458,1297.712158 586.040649,1296.099976 586.039551,1294.754517 
	C585.995117,1240.941895 585.998901,1187.129272 586.005920,1133.316650 
	C586.006592,1128.173584 586.045227,1128.155518 590.642883,1130.805664 
	C606.931763,1140.194946 623.212891,1149.597656 639.819946,1159.166382 
z"/>
<path fill="#FD6926" opacity="1.000000" stroke="none" 
	d="
M628.881958,1124.139038 
	C618.777954,1118.307129 608.999268,1112.643311 598.533691,1106.581543 
	C648.109436,1077.953003 697.122192,1049.649536 746.655396,1021.045593 
	C746.655396,1078.182739 746.655396,1134.715088 746.655396,1192.133911 
	C707.341858,1169.430176 668.274536,1146.868530 628.881958,1124.139038 
z"/>
<path fill="#FD6926" opacity="1.000000" stroke="none" 
	d="
M628.057800,875.032898 
	C667.643433,852.184265 706.904907,829.505676 746.718201,806.508362 
	C746.718201,863.776917 746.718201,920.252930 746.718201,977.633057 
	C697.308472,949.117798 648.413940,920.899841 598.581543,892.140686 
	C608.685547,886.270142 618.209595,880.736511 628.057800,875.032898 
z"/>
<path fill="#FD6926" opacity="1.000000" stroke="none" 
	d="
M915.783569,894.713745 
	C867.939026,922.335510 820.411560,949.750610 772.270142,977.519836 
	C772.270142,920.375793 772.270142,863.899658 772.270142,807.355957 
	C773.887451,806.863464 774.961914,808.203369 776.174744,808.902588 
	C822.729919,835.743408 869.253967,862.638550 915.817688,889.464600 
	C918.846619,891.209656 920.904419,892.541199 915.783569,894.713745 
z"/>
<path fill="#FD6A26" opacity="1.000000" stroke="none" 
	d="
M208.539520,174.579086 
	C213.520660,183.801224 214.604980,193.559692 214.770157,203.399994 
	C215.010361,217.710541 214.832031,232.028091 214.831909,246.342667 
	C214.831802,256.540833 207.361679,264.826111 197.117630,265.990540 
	C185.146759,267.351227 176.869720,262.322205 174.912323,249.721344 
	C171.325851,226.633316 171.020889,203.340012 176.409500,180.361526 
	C178.037369,173.419907 182.451736,168.429993 189.882614,167.272446 
	C197.237671,166.126694 203.826675,167.609177 208.539520,174.579086 
z"/>
<path fill="#FD6926" opacity="1.000000" stroke="none" 
	d="
M501.973297,322.685974 
	C505.826416,325.052277 506.972534,328.502502 506.985321,332.288452 
	C507.050537,351.593811 507.204346,370.903046 506.889771,390.203766 
	C506.740875,399.338196 498.508667,404.595337 489.547729,402.152100 
	C487.621490,401.626862 487.873871,400.369324 487.872864,399.116180 
	C487.852722,374.148254 487.896484,349.180145 487.801819,324.212585 
	C487.791229,321.419861 488.915771,320.894257 491.349487,320.967865 
	C494.853363,321.073822 498.338074,321.068817 501.973297,322.685974 
z"/>
<path fill="#FD6C29" opacity="1.000000" stroke="none" 
	d="
M1001.047852,323.933716 
	C1005.826599,331.205109 1005.795959,338.666962 1003.036438,346.124756 
	C1000.979370,351.684143 990.139526,355.544556 984.983826,353.027649 
	C983.563965,352.334473 983.872253,351.133087 983.868164,350.057037 
	C983.834656,341.258789 983.875000,332.460236 983.830078,323.662079 
	C983.820312,321.737152 984.189636,320.458466 986.517273,320.517029 
	C991.483154,320.641998 996.538452,320.252716 1001.047852,323.933716 
z"/>
<path fill="#FD6E2C" opacity="1.000000" stroke="none" 
	d="
M754.333252,347.027435 
	C750.457214,352.130219 742.453796,354.762878 737.149536,353.144196 
	C735.306152,352.581665 735.516418,351.276550 735.512207,350.010773 
	C735.482788,341.178192 735.505798,332.345428 735.491211,323.512726 
	C735.488464,321.863892 735.709045,320.543518 737.837646,320.505646 
	C748.617004,320.313965 756.138306,321.426300 756.175537,335.431427 
	C756.185791,339.272095 756.282654,343.111908 754.333252,347.027435 
z"/>
<path fill="#FD6926" opacity="1.000000" stroke="none" 
	d="
M450.844452,208.993347 
	C450.844543,188.004593 450.977722,167.512589 450.736420,147.025009 
	C450.685944,142.738388 451.974213,141.800781 456.029510,141.907364 
	C466.577118,142.184570 470.147949,144.678619 470.315460,154.803009 
	C470.623871,173.446823 470.488220,192.107742 470.050812,210.750107 
	C469.827728,220.256943 461.723785,225.472473 452.520111,223.013687 
	C450.560516,222.490204 450.887146,221.221756 450.868103,219.986557 
	C450.814240,216.488968 450.846252,212.990051 450.844452,208.993347 
z"/>
<path fill="#FD6E2C" opacity="1.000000" stroke="none" 
	d="
M1322.492920,320.552521 
	C1333.971069,320.951752 1337.416016,327.376831 1335.637939,342.112823 
	C1334.599487,350.719238 1326.086670,355.379089 1317.082520,353.177094 
	C1315.279663,352.736176 1315.164795,351.687653 1315.164917,350.304718 
	C1315.165527,341.333191 1314.994019,332.357178 1315.229004,323.391815 
	C1315.368164,318.078766 1319.759155,321.443024 1322.492920,320.552521 
z"/>
<path fill="#FD6C29" opacity="1.000000" stroke="none" 
	d="
M707.260376,141.610626 
	C714.858826,143.048035 717.142212,145.194336 718.314941,152.203506 
	C718.750793,154.808350 718.957275,157.525024 718.752930,160.150604 
	C717.939331,170.602661 710.437317,176.081619 700.048889,174.204163 
	C698.209045,173.871658 697.993042,172.985519 697.995178,171.531845 
	C698.008789,162.367752 698.043091,153.203262 697.968567,144.039749 
	C697.951111,141.897232 698.695801,140.956055 700.868164,141.156921 
	C702.854980,141.340652 704.851135,141.423630 707.260376,141.610626 
z"/>
<path fill="#FD6E2C" opacity="1.000000" stroke="none" 
	d="
M1032.156982,173.000031 
	C1032.166260,166.172028 1031.968506,159.835175 1032.237305,153.518204 
	C1032.571167,145.672165 1035.431519,142.037186 1041.316650,141.168793 
	C1048.378052,140.126862 1052.972656,143.450256 1054.010132,150.521561 
	C1054.370728,152.979843 1054.494019,155.492020 1054.500488,157.980148 
	C1054.542236,174.133530 1054.559448,190.287216 1054.488281,206.440384 
	C1054.475220,209.421661 1054.313599,212.461349 1053.710571,215.368225 
	C1052.567383,220.877899 1048.998901,223.502747 1043.342651,223.495377 
	C1037.603394,223.487900 1034.209839,220.934814 1033.000610,215.384384 
	C1032.473999,212.967026 1032.211182,210.447418 1032.193481,207.971634 
	C1032.111328,196.481583 1032.156982,184.990631 1032.156982,173.000031 
z"/>
<path fill="#FD6E2C" opacity="1.000000" stroke="none" 
	d="
M1300.473389,171.000671 
	C1300.670410,163.850113 1299.959595,157.171600 1300.898560,150.547775 
	C1301.831299,143.968124 1305.205933,141.031250 1311.539429,141.011780 
	C1317.607178,140.993134 1321.007690,143.821930 1322.113281,150.052200 
	C1322.546997,152.496765 1322.805664,155.005966 1322.814819,157.486923 
	C1322.875122,173.974304 1322.880737,190.462143 1322.810791,206.949432 
	C1322.799683,209.594666 1322.511108,212.273727 1322.020386,214.874847 
	C1320.917236,220.723846 1317.460815,223.484833 1311.588257,223.504852 
	C1305.769165,223.524689 1302.195923,220.700989 1301.083008,214.921722 
	C1300.645752,212.650574 1300.509888,210.292542 1300.499390,207.972885 
	C1300.444336,195.815628 1300.473389,183.657959 1300.473389,171.000671 
z"/>
<path fill="#FD7131" opacity="1.000000" stroke="none" 
	d="
M806.709167,377.775513 
	C804.641724,377.055847 805.453064,375.813629 805.620911,374.766174 
	C807.664246,362.017731 809.726685,349.272339 812.752014,336.503540 
	C814.840454,349.385406 816.927185,362.267609 819.019287,375.148895 
	C819.329407,377.058197 818.581482,377.905853 816.606262,377.858215 
	C813.452576,377.782196 810.295776,377.831116 806.709167,377.775513 
z"/>
<path fill="#FD7131" opacity="1.000000" stroke="none" 
	d="
M368.055389,375.919678 
	C363.956909,379.485352 359.366547,377.408295 354.984924,377.505280 
	C354.243652,377.521698 354.266296,376.550079 354.375671,375.880371 
	C356.527954,362.700378 358.681824,349.520630 361.743744,336.408875 
	C363.842224,349.429230 365.940704,362.449554 368.055389,375.919678 
z"/>
<path fill="#FD7131" opacity="1.000000" stroke="none" 
	d="
M1173.129028,179.739685 
	C1174.007812,185.076920 1174.837524,189.982498 1175.669189,194.887741 
	C1175.724609,195.214386 1175.807739,195.536606 1175.856934,195.864044 
	C1176.390015,199.406143 1173.546143,198.861221 1172.006226,198.422104 
	C1168.756714,197.495483 1162.270996,201.121017 1162.592163,196.350616 
	C1163.458496,183.474548 1166.389648,170.737396 1169.601318,157.984634 
	C1170.761108,165.092407 1171.920776,172.200165 1173.129028,179.739685 
z"/>
</svg>