<svg version="1.1" id="Layer_1" xmlns="http://www.w3.org/2000/svg" xmlns:xlink="http://www.w3.org/1999/xlink" x="0px" y="0px"
	 width="100%" viewBox="0 0 1500 1500" enable-background="new 0 0 1500 1500" xml:space="preserve">
<path fill="#E5243B" opacity="1.000000" stroke="none" 
	d="
M870.000000,1501.000000 
	C581.500061,1501.000000 293.500092,1500.991455 5.500187,1501.093140 
	C1.751351,1501.094482 0.906391,1500.249512 0.907128,1496.500122 
	C1.004923,999.500244 1.004961,502.500336 0.907225,5.500441 
	C0.906488,1.752432 1.749494,0.906335 5.499594,0.907073 
	C502.499481,1.004949 999.499390,1.004934 1496.499268,0.907280 
	C1500.246582,0.906544 1501.093628,1.748497 1501.092896,5.499325 
	C1500.994995,502.499207 1500.994995,999.499146 1501.092651,1496.499023 
	C1501.093384,1500.245605 1500.252686,1501.095581 1496.500977,1501.093628 
	C1287.833984,1500.988159 1079.166992,1501.000000 870.000000,1501.000000 
z"/>
<path fill="#FFFEFE" opacity="1.000000" stroke="none" 
	d="
M577.850342,901.777405 
	C581.468628,888.557434 584.997437,875.734253 588.520752,862.909607 
	C588.829407,861.786133 589.131165,860.659424 589.385742,859.522949 
	C590.153320,856.096558 590.523743,852.403503 586.417908,851.149597 
	C582.034912,849.811096 580.787048,853.374390 579.788147,856.734131 
	C571.210999,885.578918 562.610779,914.416870 554.051453,943.266968 
	C553.148743,946.309753 552.182556,949.307495 550.553223,952.048584 
	C544.410522,962.383057 532.625244,963.902710 523.907288,955.491394 
	C523.218628,954.827026 522.518738,954.174316 521.904968,953.592896 
	C510.930511,973.446838 500.125610,993.080566 489.228912,1012.663208 
	C485.082825,1020.114197 484.884491,1028.114868 486.842773,1035.917480 
	C491.739655,1055.428467 497.138855,1074.816040 502.570648,1094.187622 
	C503.713928,1098.265015 502.817688,1099.484497 498.699036,1099.057983 
	C495.895874,1098.767578 493.009277,1099.257935 490.212280,1098.939575 
	C486.520020,1098.519653 485.890533,1100.082397 485.926514,1103.424805 
	C486.097015,1119.255737 486.017517,1135.089478 485.997070,1150.922241 
	C485.984192,1160.878174 479.218628,1168.044678 469.843842,1168.098999 
	C460.379425,1168.153809 453.329315,1161.246704 453.211761,1151.236328 
	C453.025879,1135.405762 453.002411,1119.568726 453.267120,1103.740479 
	C453.335785,1099.632935 451.968262,1098.975708 448.247650,1098.846313 
	C444.153076,1098.703857 443.736603,1100.332031 443.770782,1103.755005 
	C443.928833,1119.586182 443.970398,1135.421143 443.799927,1151.252075 
	C443.654144,1164.790405 429.925110,1172.614868 418.704742,1165.652222 
	C413.302460,1162.300049 410.962982,1157.209351 410.981995,1150.885620 
	C411.029663,1135.052979 410.897369,1119.218994 411.076996,1103.388184 
	C411.115540,1099.989380 410.392517,1098.545654 406.751282,1098.937744 
	C403.785797,1099.257080 400.736969,1098.775757 397.763885,1099.057983 
	C393.756653,1099.438232 393.550598,1097.937622 394.509613,1094.528809 
	C399.329163,1077.398071 403.672455,1060.130615 408.657776,1043.049805 
	C412.501068,1029.881592 411.592041,1017.936401 404.239349,1005.855103 
	C394.064789,989.137329 385.114777,971.674194 374.886871,953.166748 
	C374.207428,954.627869 374.012878,955.543152 373.468811,956.139282 
	C368.063354,962.061096 361.421936,963.747314 354.540222,961.028687 
	C348.017090,958.451721 344.510651,952.848267 344.499390,944.760864 
	C344.471954,925.094910 344.490234,905.428955 344.490112,885.763000 
	C344.490021,873.930115 344.506073,862.097168 344.474335,850.264404 
	C344.468994,848.271118 344.326141,846.271423 344.127319,844.286743 
	C343.689484,839.916504 341.243073,837.730408 336.828766,837.816345 
	C332.376678,837.903015 331.457489,841.127991 331.051788,844.586121 
	C330.781219,846.892395 330.847931,849.244141 330.847717,851.575500 
	C330.839386,948.905212 330.833954,1046.234985 330.850250,1143.564697 
	C330.851959,1153.754639 326.336243,1161.301514 317.211212,1165.540161 
	C308.252716,1169.701294 299.574371,1168.307983 292.037628,1161.889282 
	C286.239258,1156.951172 283.948761,1150.405151 283.958649,1142.785522 
	C284.030792,1087.287598 283.997650,1031.789551 283.997192,976.291565 
	C283.997101,968.386353 282.321625,965.621521 277.493896,965.549988 
	C272.773895,965.480042 271.002777,968.387390 271.002716,976.211487 
	C271.002411,1031.376099 271.016449,1086.540771 270.992523,1141.705444 
	C270.986633,1155.294800 264.048248,1164.694092 252.378677,1167.142334 
	C238.204086,1170.116211 224.974304,1160.086548 224.047684,1145.637451 
	C223.941208,1143.977295 223.999023,1142.305664 223.998993,1140.639404 
	C223.997253,1043.476318 224.000015,946.313232 223.980545,849.150146 
	C223.980118,846.996338 224.001358,844.780273 223.528198,842.703613 
	C222.853821,839.743774 221.251907,837.625305 217.651474,837.792664 
	C214.209778,837.952576 211.849655,839.435486 211.067535,842.761536 
	C210.579086,844.838623 210.533539,847.053223 210.531403,849.206299 
	C210.500183,880.538513 210.443939,911.870911 210.560745,943.202698 
	C210.586777,950.182617 208.807831,956.024475 202.618332,959.869690 
	C201.500580,960.563965 201.185562,961.394592 200.950516,962.650818 
	C188.680954,1028.222534 176.350250,1093.782715 164.032730,1159.345459 
	C162.728378,1166.288086 158.635254,1169.560913 152.789139,1168.281982 
	C147.632523,1167.153809 145.363403,1162.606689 146.587936,1156.102295 
	C158.776596,1091.357422 170.930801,1026.606079 183.198639,961.876343 
	C183.616211,959.672974 183.511429,958.255493 181.873749,956.610901 
	C178.927933,953.652649 177.811707,949.874695 177.815063,945.681885 
	C177.846375,906.516663 177.537857,867.348450 177.932495,828.187195 
	C178.235657,798.103394 203.275421,774.033813 233.380447,774.003845 
	C262.712677,773.974609 292.044983,773.973083 321.377197,774.004211 
	C352.165405,774.036926 376.993225,798.863403 377.000458,829.585571 
	C377.009155,866.414551 377.002533,903.243469 377.002533,939.904053 
	C377.754456,940.822937 378.210083,940.244080 378.744324,939.899719 
	C386.323730,935.013977 392.982635,936.322388 397.940704,943.987366 
	C401.824799,949.992004 405.324005,956.244324 409.072906,962.338196 
	C411.078064,965.597534 413.254730,968.751099 415.344879,971.958313 
	C419.388306,978.163025 424.804169,981.228516 432.509827,980.935547 
	C443.493561,980.517944 454.510559,980.617249 465.502533,980.906738 
	C472.382996,981.087891 477.475586,978.404541 481.070099,972.818726 
	C486.742584,964.003784 492.279755,955.099976 497.766907,946.167908 
	C503.843719,936.275940 509.360870,934.667419 519.176025,940.093872 
	C530.455383,903.329041 541.340027,866.427734 553.205444,829.844543 
	C558.270874,814.226868 568.102905,801.957642 585.187866,797.679077 
	C587.572021,797.081970 590.136719,797.028870 592.618347,797.024841 
	C619.617310,796.981140 646.617737,797.162048 673.614563,796.919128 
	C684.934814,796.817322 694.016052,801.151306 701.489258,809.182312 
	C707.676697,815.831604 712.197205,823.528687 714.874634,832.304138 
	C725.062378,865.694946 735.326538,899.062500 745.592041,932.429565 
	C746.876160,936.603760 747.664673,940.800537 747.237854,945.190918 
	C746.425415,953.546631 742.352173,958.358215 734.387939,960.267029 
	C726.999634,962.037842 720.929443,959.411438 716.708679,952.323853 
	C712.559998,945.357300 711.317688,937.335693 709.018860,929.721313 
	C701.811096,905.846863 694.871277,881.891479 687.714844,858.001221 
	C686.662598,854.488220 685.896667,849.424561 680.527710,851.226379 
	C675.680786,852.852905 677.057922,857.390503 678.071228,861.103516 
	C683.762634,881.958374 689.512207,902.797363 695.258545,923.637207 
	C704.364014,956.659729 713.420044,989.696228 722.672302,1022.677673 
	C723.874634,1026.963623 722.548157,1027.651978 718.645081,1027.580200 
	C707.649231,1027.378052 696.642151,1027.700317 685.650208,1027.411499 
	C681.585266,1027.304810 680.746521,1028.660400 680.759827,1032.467896 
	C680.892944,1070.632812 680.870850,1108.798218 680.820496,1146.963501 
	C680.806702,1157.411499 673.898193,1165.901245 664.153381,1167.804321 
	C654.392761,1169.710327 644.925049,1164.692505 640.911682,1155.481201 
	C639.416138,1152.048584 639.143799,1148.428223 639.145935,1144.733887 
	C639.167908,1107.568604 639.174622,1070.403320 639.114075,1033.238159 
	C639.111084,1031.395142 640.209412,1028.456299 638.059082,1027.902344 
	C635.105469,1027.141479 631.701660,1027.286377 628.686646,1027.942749 
	C627.060852,1028.296875 627.872925,1030.906616 627.871277,1032.487549 
	C627.831970,1070.486206 627.882324,1108.484863 627.820312,1146.483398 
	C627.794739,1162.127930 613.391479,1172.274536 599.313782,1166.722534 
	C591.005798,1163.446045 586.171082,1155.779907 586.166382,1145.695679 
	C586.148926,1108.363647 586.058289,1071.031128 586.280640,1033.700439 
	C586.310120,1028.748901 585.250549,1027.163574 580.079041,1027.375488 
	C569.264282,1027.818848 558.416992,1027.400635 547.586731,1027.571655 
	C544.145508,1027.625854 543.258484,1026.744995 544.213257,1023.316467 
	C555.454895,982.952209 566.593628,942.559204 577.850342,901.777405 
z"/>
<path fill="#FFFDFE" opacity="1.000000" stroke="none" 
	d="
M1147.828247,1071.000000 
	C1147.828247,997.174072 1147.833740,923.848145 1147.803467,850.522217 
	C1147.802490,848.039734 1147.608154,845.529419 1147.202148,843.082092 
	C1146.699463,840.050720 1145.246216,837.793884 1141.668213,837.798401 
	C1138.061035,837.802917 1135.513916,839.275208 1134.686768,842.900513 
	C1134.285767,844.658325 1134.193726,846.517517 1134.192139,848.330994 
	C1134.164062,880.327759 1134.203979,912.324585 1134.152832,944.321289 
	C1134.136230,954.728027 1127.844971,961.836853 1118.631592,962.163879 
	C1108.359985,962.528320 1101.521729,955.559448 1101.504639,944.479980 
	C1101.458252,914.483093 1101.459961,884.485962 1101.504150,854.489075 
	C1101.519165,844.329468 1101.104004,834.118469 1101.951416,824.020447 
	C1104.309692,795.916870 1128.536621,774.045532 1156.767456,774.005859 
	C1186.264526,773.964355 1215.761475,773.969055 1245.258545,774.004150 
	C1275.638306,774.040222 1300.663330,798.792419 1300.800049,829.281555 
	C1300.972656,867.776855 1300.873047,906.273621 1300.821045,944.769653 
	C1300.807129,955.113159 1293.932251,962.209106 1284.272461,962.166931 
	C1274.687012,962.125061 1268.022949,954.979370 1268.010620,944.518982 
	C1267.972656,912.355591 1268.000244,880.192139 1267.988525,848.028748 
	C1267.987793,845.880066 1268.179321,843.727478 1267.153442,841.663330 
	C1265.585815,838.508484 1262.979980,837.564087 1259.722412,837.853943 
	C1256.678833,838.124756 1255.453857,840.322754 1255.020752,842.896667 
	C1254.609375,845.342102 1254.531494,847.865784 1254.530884,850.355042 
	C1254.508545,947.678528 1254.515137,1045.002075 1254.507202,1142.325562 
	C1254.506104,1155.025635 1247.770508,1164.420410 1236.882935,1167.014282 
	C1221.578979,1170.660645 1207.848022,1159.859253 1207.839722,1144.054810 
	C1207.810547,1088.560425 1207.832397,1033.066040 1207.812012,977.571594 
	C1207.811157,975.415649 1207.673462,973.248169 1207.423828,971.106506 
	C1206.983032,967.325562 1204.633057,965.524719 1200.957275,965.596252 
	C1197.255859,965.668274 1195.068115,967.657959 1194.711060,971.398010 
	C1194.537476,973.216858 1194.519653,975.055603 1194.519287,976.885315 
	C1194.510010,1032.213013 1194.525391,1087.540771 1194.501221,1142.868530 
	C1194.495483,1155.981812 1187.001587,1165.260376 1174.872681,1167.375854 
	C1160.864990,1169.818848 1147.934448,1159.243164 1147.863159,1144.993042 
	C1147.740601,1120.495972 1147.828613,1095.997681 1147.828247,1071.000000 
z"/>
<path fill="#FFFEFE" opacity="1.000000" stroke="none" 
	d="
M789.838928,993.713623 
	C802.013489,949.396912 814.096130,905.476990 826.150024,861.549255 
	C827.204651,857.705933 828.939758,852.921814 823.824097,851.252625 
	C818.169434,849.407593 817.703979,854.826477 816.603638,858.502686 
	C808.118225,886.852722 799.681885,915.217529 791.268921,943.589111 
	C790.221680,947.120911 789.034912,950.558472 786.876221,953.588440 
	C782.320007,959.983765 776.495789,962.091980 769.014160,960.045593 
	C761.920288,958.105347 757.567688,952.759155 757.023315,945.219971 
	C756.732422,941.192322 757.289856,937.266541 758.480164,933.396240 
	C769.080017,898.929932 779.220764,864.314209 790.418457,830.043640 
	C795.506958,814.470459 805.240112,802.134705 822.289795,797.662170 
	C824.911438,796.974487 827.565308,796.996460 830.230957,796.996582 
	C857.060059,796.997559 883.890991,797.180908 910.717468,796.916077 
	C923.249573,796.792358 932.863525,802.005737 940.627930,811.278137 
	C945.903625,817.578491 949.824341,824.599426 952.245483,832.583130 
	C962.277588,865.664185 972.554810,898.670776 982.720520,931.711365 
	C984.044495,936.014343 985.216125,940.372009 984.752869,944.945129 
	C983.856201,953.796692 979.151062,958.936218 970.530090,960.581665 
	C963.473022,961.928650 956.833496,958.469543 953.217407,950.822998 
	C948.935608,941.768433 947.017822,931.880493 944.117249,922.347717 
	C937.537354,900.723267 931.265625,879.005188 924.838928,857.333923 
	C924.416199,855.908386 923.819031,854.520203 923.168213,853.180115 
	C922.253479,851.296265 920.600464,850.608154 918.602478,850.899963 
	C916.578979,851.195435 915.381592,852.457825 914.915100,854.453796 
	C914.281311,857.165649 915.002319,859.702515 915.716736,862.290771 
	C930.447205,915.658813 945.119263,969.043030 959.913269,1022.393433 
	C960.999268,1026.309937 960.833496,1027.804688 956.043640,1027.634155 
	C945.059326,1027.243042 934.047424,1027.683105 923.055420,1027.420532 
	C919.042908,1027.324707 918.073853,1028.622681 918.088135,1032.499878 
	C918.226440,1069.993408 918.195862,1107.487671 918.156189,1144.981812 
	C918.143677,1156.837524 912.838074,1164.473145 902.855347,1167.356079 
	C890.998352,1170.780518 878.620239,1162.854980 876.902771,1150.665527 
	C876.579163,1148.368896 876.507507,1146.021240 876.506042,1143.697021 
	C876.482239,1106.536255 876.503052,1069.375488 876.439270,1032.214844 
	C876.436523,1030.620972 877.513916,1028.039307 874.809326,1027.713257 
	C871.738831,1027.343140 868.377014,1026.669067 865.552979,1028.161377 
	C864.215820,1028.868042 865.026611,1031.274292 865.025330,1032.901123 
	C864.996094,1070.395264 864.691345,1107.893311 865.175537,1145.381226 
	C865.340027,1158.122314 856.157349,1168.075562 844.532532,1168.128052 
	C832.185364,1168.183716 823.526978,1158.900757 823.507935,1145.282959 
	C823.455688,1107.955566 823.423096,1070.627808 823.578430,1033.301025 
	C823.596619,1028.928101 822.723206,1027.216675 817.908081,1027.389160 
	C807.090393,1027.776978 796.247314,1027.395386 785.418640,1027.573730 
	C781.733459,1027.634399 780.341248,1027.169800 781.669373,1022.934631 
	C784.653503,1013.418091 787.083679,1003.727905 789.838928,993.713623 
z"/>
<path fill="#FFFCFD" opacity="1.000000" stroke="none" 
	d="
M988.302002,1058.413574 
	C986.814758,1063.070801 985.537292,1067.375610 984.101746,1071.626953 
	C982.118103,1077.501709 976.979797,1080.411377 971.271057,1079.024292 
	C965.317627,1077.577759 961.826904,1072.323608 963.326904,1066.065308 
	C964.483215,1061.240601 966.260498,1056.533569 968.101501,1051.909546 
	C975.355835,1033.688477 982.005493,1015.220276 990.229858,997.393066 
	C990.787354,996.184753 991.434814,995.016113 991.954041,993.792236 
	C998.341919,978.735474 1009.100830,971.511902 1026.008423,972.801636 
	C1038.762451,973.774597 1051.650269,972.962158 1064.478271,973.016785 
	C1067.636230,973.030212 1070.799927,973.239990 1073.948608,973.506592 
	C1085.477051,974.482910 1092.853516,980.890259 1097.042847,991.368774 
	C1105.745117,1013.135315 1114.468628,1034.893555 1123.105591,1056.686035 
	C1126.172607,1064.424805 1121.261963,1072.674316 1113.002075,1073.817261 
	C1108.826050,1074.395020 1105.726685,1073.292236 1103.924683,1068.855103 
	C1097.416504,1052.829468 1092.138306,1036.360718 1086.058472,1020.183533 
	C1085.431641,1018.515625 1084.815674,1016.843506 1083.976929,1014.587769 
	C1081.845215,1016.938660 1082.552979,1019.157715 1082.550903,1021.113037 
	C1082.505981,1063.941406 1082.529053,1106.769775 1082.507080,1149.598145 
	C1082.501953,1159.578735 1077.005371,1166.635132 1068.362671,1167.946777 
	C1057.552856,1169.587280 1048.580811,1161.976440 1048.512085,1150.858032 
	C1048.406982,1133.860596 1048.536011,1116.861816 1048.443359,1099.864258 
	C1048.422363,1096.027466 1049.311890,1090.811768 1043.372314,1090.892700 
	C1037.386475,1090.974243 1038.574341,1096.228760 1038.554443,1100.030884 
	C1038.465942,1116.861816 1038.610962,1133.694336 1038.472534,1150.524536 
	C1038.400391,1159.288818 1033.078613,1166.016602 1025.344482,1167.780884 
	C1017.978333,1169.461304 1010.220398,1166.074951 1006.554932,1159.525513 
	C1004.360535,1155.604492 1004.156006,1151.278442 1004.155884,1146.927490 
	C1004.154419,1105.098999 1004.154907,1063.270508 1004.154846,1021.441956 
	C1004.154846,1019.452026 1004.154846,1017.462097 1004.154846,1015.363464 
	C1000.987915,1015.351929 1001.129761,1017.803894 1000.583130,1019.520691 
	C996.498474,1032.347656 992.480347,1045.195923 988.302002,1058.413574 
z"/>
<path fill="#FFFCFC" opacity="1.000000" stroke="none" 
	d="
M130.201660,140.257141 
	C132.402573,138.707443 134.676910,137.684891 136.149536,135.972778 
	C141.343964,129.933609 147.890945,128.935501 155.395538,129.366791 
	C164.030807,129.863098 172.725266,129.712875 181.376587,129.384323 
	C185.672943,129.221161 186.990982,130.284241 186.962341,134.829285 
	C186.748199,168.816666 186.845901,202.806015 186.845901,236.794739 
	C186.845901,294.775513 186.800980,352.756409 186.936188,410.736877 
	C186.946350,415.096985 186.132416,416.753571 181.311981,416.642395 
	C166.491440,416.300629 151.653809,416.320740 136.832092,416.635864 
	C132.277557,416.732727 131.380478,415.310669 131.388260,411.030212 
	C131.519470,338.887695 131.482071,266.744904 131.482010,194.602158 
	C131.482010,193.435883 131.393539,192.261658 131.497894,191.104828 
	C131.795868,187.801407 131.177322,186.790161 127.486969,188.233185 
	C115.286385,193.003891 102.914948,197.337616 90.005112,202.059998 
	C90.005112,188.627457 90.022392,175.710251 89.990768,162.793152 
	C89.984314,160.158401 92.238182,160.192627 93.760925,159.535080 
	C106.307838,154.116989 118.335922,147.728622 130.201660,140.257141 
z"/>
<path fill="#FFFEFE" opacity="1.000000" stroke="none" 
	d="
M315.791077,733.630737 
	C306.297333,751.843445 289.242950,760.843567 270.444824,757.836182 
	C253.314636,755.095642 239.020676,741.003235 236.105087,723.980713 
	C233.045090,706.114868 241.193130,688.600891 256.623260,679.877625 
	C271.787415,671.304749 291.111450,672.966492 304.269531,683.974854 
	C318.107117,695.551758 323.014069,714.310913 316.679077,731.428589 
	C316.448517,732.051575 316.185028,732.662415 315.791077,733.630737 
z"/>
<path fill="#FFFEFE" opacity="1.000000" stroke="none" 
	d="
M1159.164551,718.760742 
	C1159.155151,699.138611 1168.812134,684.105835 1185.467163,677.355530 
	C1201.020142,671.052002 1219.197876,674.870300 1231.101562,686.941284 
	C1243.785400,699.803223 1246.692627,719.632019 1238.278687,735.889832 
	C1230.057251,751.775513 1212.525635,760.554382 1194.379150,757.872314 
	C1177.056641,755.311951 1162.811646,741.200745 1159.846191,723.654602 
	C1159.596802,722.178772 1159.393433,720.695190 1159.164551,718.760742 
z"/>
<path fill="#FFFEFE" opacity="1.000000" stroke="none" 
	d="
M836.379639,718.451233 
	C849.293579,698.031494 874.473938,692.435059 893.405762,705.514038 
	C911.984314,718.348938 916.187195,744.406006 902.580933,762.397522 
	C890.242981,778.711731 867.194763,782.967102 849.824768,772.137817 
	C831.741638,760.863953 826.040771,738.563538 836.379639,718.451233 
z"/>
<path fill="#FFFEFE" opacity="1.000000" stroke="none" 
	d="
M603.519897,764.456177 
	C592.307861,750.252625 590.615173,735.225586 598.613647,719.432129 
	C605.503845,705.827148 621.012268,697.332703 635.631592,698.623291 
	C653.085327,700.164062 665.174744,709.045654 671.102112,725.553101 
	C677.485535,743.330811 670.058167,762.917908 653.734009,772.640381 
	C637.494324,782.312683 617.015747,779.068970 603.519897,764.456177 
z"/>
<path fill="#FEFBFB" opacity="1.000000" stroke="none" 
	d="
M437.849945,350.004608 
	C437.491302,364.638611 438.889008,378.830811 437.151886,392.906555 
	C434.833740,411.690857 423.710205,420.710876 404.757935,419.839417 
	C385.955109,418.974823 376.183136,410.046143 374.956451,391.234344 
	C373.765320,372.967560 373.872406,354.610718 374.856323,336.340546 
	C376.150238,312.314606 390.592468,306.001526 409.909515,307.362335 
	C428.461639,308.669250 437.345551,319.339661 437.837067,339.516418 
	C437.918121,342.844299 437.849426,346.175812 437.849945,350.004608 
z"/>
<path fill="#FFFCFC" opacity="1.000000" stroke="none" 
	d="
M439.175232,165.023102 
	C439.119995,179.834137 439.090088,194.149887 438.992828,208.465164 
	C438.956360,213.832901 437.886536,219.026672 435.955688,224.040604 
	C434.806946,227.023438 433.268433,229.831879 431.013062,232.056870 
	C420.918060,242.015671 408.561188,241.687531 395.993835,239.131287 
	C384.792236,236.852814 379.559052,228.676071 377.058075,218.287170 
	C376.121002,214.394653 375.798340,210.420944 375.808228,206.406570 
	C375.845032,191.423462 375.801208,176.440140 375.843140,161.457062 
	C375.850586,158.800018 375.900909,156.109161 376.308350,153.492599 
	C379.285919,134.369110 390.647797,125.882042 413.846558,128.483871 
	C429.751282,130.267639 437.819183,140.189468 438.927368,157.543991 
	C439.075745,159.867630 439.094818,162.199554 439.175232,165.023102 
z"/>
<path fill="#FFFDFD" opacity="1.000000" stroke="none" 
	d="
M620.352783,310.514343 
	C630.107910,313.401733 635.738098,319.538574 637.380188,329.197571 
	C638.709106,337.014557 638.560974,344.776367 636.055054,352.381226 
	C634.712463,356.455383 632.555969,360.210480 628.711548,362.116638 
	C625.079651,363.917328 625.417847,366.171448 626.299133,369.237640 
	C630.929688,385.348022 635.453674,401.489014 640.169434,418.166656 
	C633.851746,418.166656 628.043152,418.084137 622.238770,418.204437 
	C619.663208,418.257782 619.401672,416.616882 618.919983,414.751587 
	C615.303162,400.744110 611.531921,386.775879 608.014587,372.743805 
	C607.158997,369.330505 605.805298,367.823730 602.009338,368.038635 
	C598.913879,368.213928 598.084167,369.121063 598.113647,372.118439 
	C598.249756,385.949707 598.024109,399.785706 598.269470,413.613953 
	C598.337341,417.437927 597.215027,418.528259 593.523987,418.242035 
	C588.571167,417.858032 582.052551,419.826935 579.025574,417.345886 
	C575.849365,414.742523 578.055908,407.979218 578.040894,403.046722 
	C577.950256,373.215240 578.075684,343.382874 577.903748,313.552094 
	C577.879883,309.406250 578.944214,308.168121 583.157898,308.392151 
	C595.432556,309.044739 607.828552,307.325073 620.352783,310.514343 
z"/>
<path fill="#FFFCFD" opacity="1.000000" stroke="none" 
	d="
M364.005829,191.000000 
	C364.005798,205.829453 363.891205,220.160492 364.086823,234.487259 
	C364.135376,238.042511 363.476868,239.399734 359.532043,239.284027 
	C350.689789,239.024628 350.671448,239.268646 347.211731,230.941406 
	C340.452118,214.671616 333.710632,198.394302 326.948669,182.125488 
	C326.279266,180.515045 325.519745,178.942078 323.844971,177.459457 
	C323.844971,179.012756 323.845001,180.566071 323.845001,182.119385 
	C323.844910,199.614655 323.720520,217.111496 323.941254,234.603973 
	C323.990082,238.472717 322.791534,239.297516 319.145874,239.263641 
	C306.826202,239.149170 306.824860,239.293213 306.824860,226.801300 
	C306.824890,195.976303 306.901581,165.150879 306.732758,134.326813 
	C306.710419,130.243225 307.686768,128.898499 311.923370,129.050598 
	C320.583679,129.361511 320.569336,129.127289 323.984070,137.055969 
	C330.756134,152.779922 337.552124,168.493607 344.352570,184.205322 
	C344.924988,185.527832 345.605408,186.803619 346.837128,189.339371 
	C346.994141,186.672775 347.143280,185.306671 347.144592,183.940414 
	C347.160736,167.278259 347.248413,150.615158 347.080139,133.954697 
	C347.044464,130.425156 347.680511,129.010056 351.657990,129.048798 
	C364.004028,129.169022 364.005829,128.984543 364.005829,141.513412 
	C364.005829,157.842270 364.005829,174.171143 364.005829,191.000000 
z"/>
<path fill="#FFFBFC" opacity="1.000000" stroke="none" 
	d="
M306.821777,399.999207 
	C306.821808,371.007904 306.947357,342.515259 306.698944,314.025879 
	C306.657257,309.244507 308.168579,308.221466 312.565491,308.389008 
	C322.544952,308.769287 332.576965,308.182770 342.524628,308.883545 
	C355.853638,309.822510 363.121307,316.649048 365.600159,329.689545 
	C366.880768,336.426422 367.017639,343.267761 365.365234,350.008820 
	C362.577026,361.383606 354.616547,368.067474 342.663025,369.020447 
	C338.684479,369.337585 334.674988,369.589081 330.694153,369.451416 
	C327.599396,369.344421 326.751129,370.409210 326.785645,373.432495 
	C326.933929,386.426910 326.678497,399.427490 326.943237,412.418213 
	C327.031921,416.769440 326.180389,418.812988 321.327606,418.262451 
	C316.740479,417.742126 310.529114,419.685577 307.845764,417.334320 
	C304.717651,414.593323 307.181885,408.257446 306.832397,403.497345 
	C306.759369,402.502991 306.821777,401.498657 306.821777,399.999207 
z"/>
<path fill="#FEFBFB" opacity="1.000000" stroke="none" 
	d="
M479.148071,380.524109 
	C483.212494,358.250031 487.277283,336.351593 490.981140,314.392273 
	C491.756653,309.794373 493.237885,307.632233 498.170624,308.398865 
	C500.934326,308.828400 503.833923,308.659515 506.645813,308.432343 
	C510.086639,308.154419 510.486206,309.707367 509.893494,312.592407 
	C502.870941,346.775879 495.889893,380.967926 488.972992,415.172913 
	C488.526459,417.381104 487.644684,418.467010 485.360840,418.179718 
	C485.197021,418.159119 485.028168,418.180969 484.861694,418.178711 
	C479.708130,418.108673 473.509613,419.779053 469.689880,417.486328 
	C465.733978,415.111969 466.724091,408.206207 465.701630,403.268921 
	C459.466705,373.161743 453.395874,343.020630 447.217133,312.901733 
	C446.611420,309.949158 446.717499,308.433685 450.573792,308.377319 
	C464.594452,308.172455 464.473389,308.039978 467.008392,321.895020 
	C470.567841,341.349091 474.324371,360.767151 478.003723,380.199249 
	C478.063995,380.517609 478.214661,380.818848 478.323151,381.128082 
	C478.555481,381.044739 478.787781,380.961426 479.148071,380.524109 
z"/>
<path fill="#FFFDFD" opacity="1.000000" stroke="none" 
	d="
M481.087036,932.965881 
	C476.872803,950.711609 463.639496,960.945190 446.427826,960.135193 
	C431.309052,959.423706 418.031952,947.510376 415.947815,932.670044 
	C414.045868,919.126465 418.310608,907.886475 429.568695,900.020752 
	C440.607910,892.307983 452.658264,891.675232 464.442017,898.109619 
	C476.469727,904.677246 481.967438,915.368958 481.496216,929.078003 
	C481.456360,930.238037 481.269196,931.392883 481.087036,932.965881 
z"/>
<path fill="#FFFDFD" opacity="1.000000" stroke="none" 
	d="
M1015.040649,910.137695 
	C1026.531860,893.332458 1046.634033,889.060242 1062.306885,899.801025 
	C1077.267212,910.053467 1081.119507,930.632935 1070.910400,945.762390 
	C1061.087036,960.320251 1041.611938,964.538818 1026.281372,955.429565 
	C1010.980286,946.337891 1006.077087,927.012939 1015.040649,910.137695 
z"/>
<path fill="#FFFBFC" opacity="1.000000" stroke="none" 
	d="
M520.992310,382.000000 
	C520.992371,358.680634 521.096741,335.860291 520.891357,313.042786 
	C520.856384,309.164124 522.034241,308.340271 525.652161,308.400330 
	C538.141052,308.607666 550.636597,308.566498 563.127197,308.418793 
	C566.140747,308.383179 567.077209,309.191498 567.092957,312.319763 
	C567.145935,322.848175 567.285278,322.847046 556.833374,322.847626 
	C552.502686,322.847870 548.169678,322.935272 543.842285,322.815674 
	C541.691223,322.756256 540.945190,323.490540 540.970215,325.672150 
	C541.067749,334.165833 541.108948,342.663116 540.952209,351.155029 
	C540.902344,353.859741 542.185364,354.066284 544.294739,354.021881 
	C548.956421,353.923706 553.624146,354.082825 558.284424,353.954773 
	C560.551636,353.892548 561.421448,354.507507 561.583557,356.974548 
	C562.342407,368.526031 562.429199,368.520355 550.735352,368.520355 
	C541.007690,368.520355 541.007629,368.520325 541.007690,378.001648 
	C541.007690,385.330505 541.147766,392.663300 540.942200,399.986389 
	C540.854187,403.121735 541.580017,404.387848 545.003296,404.231476 
	C551.153381,403.950531 557.328796,404.272980 563.486816,404.099701 
	C566.266968,404.021484 567.177246,404.848969 567.251343,407.728577 
	C567.520203,418.180603 567.635498,418.177643 557.434387,418.177643 
	C547.107361,418.177643 536.768555,417.887299 526.458496,418.305817 
	C521.641785,418.501343 520.765808,416.811951 520.896667,412.478882 
	C521.198181,402.494080 520.992310,392.493927 520.992310,382.000000 
z"/>
<path fill="#FEFAFA" opacity="1.000000" stroke="none" 
	d="
M713.711914,344.480194 
	C710.086426,333.546112 706.642151,322.970459 703.077026,312.435699 
	C702.164917,309.740448 701.933655,308.088531 705.714844,308.421692 
	C710.653442,308.856812 716.826721,306.533203 720.242920,309.286926 
	C723.394226,311.827087 723.700989,317.948059 725.161194,322.523529 
	C728.074829,331.653076 730.920349,340.804321 734.717163,349.937439 
	C738.407288,337.656250 742.270020,325.422607 745.678284,313.063690 
	C746.651062,309.536438 747.958008,307.992126 751.699219,308.405029 
	C754.659607,308.731750 757.697144,308.641846 760.678284,308.428009 
	C764.522766,308.152252 765.941223,308.692413 764.401855,313.209717 
	C757.868042,332.383911 751.810730,351.719971 745.439758,370.950623 
	C744.110840,374.961700 743.430725,378.937897 743.486145,383.161621 
	C743.619385,393.314514 743.346497,403.475281 743.621765,413.622467 
	C743.726685,417.490631 742.444519,418.645294 738.800293,418.218811 
	C734.073364,417.665619 727.918701,420.284027 724.935669,417.118225 
	C722.226318,414.242798 723.799927,408.170563 724.245056,403.610382 
	C726.169495,383.894562 721.714050,365.353760 714.624451,347.221039 
	C714.322571,346.448853 714.105042,345.643646 713.711914,344.480194 
z"/>
<path fill="#FFFBFC" opacity="1.000000" stroke="none" 
	d="
M683.177795,344.000427 
	C683.177795,367.318298 683.080261,390.137085 683.270142,412.953491 
	C683.303223,416.930786 682.581848,418.738922 678.195251,418.258698 
	C674.574463,417.862366 670.851746,417.916840 667.218140,418.250214 
	C663.522583,418.589233 662.903503,417.086334 662.918762,413.738953 
	C663.047363,385.425262 662.867676,357.109619 663.117249,328.797546 
	C663.157776,324.202637 661.750122,322.847626 657.551636,323.502625 
	C656.738708,323.629456 655.883789,323.580658 655.057068,323.510101 
	C651.777893,323.230286 647.067383,325.067749 645.534607,322.700562 
	C643.412781,319.423370 644.984741,314.625519 644.861023,310.481995 
	C644.802490,308.520569 646.226379,308.495544 647.605713,308.494995 
	C664.427673,308.488068 681.249695,308.479218 698.071594,308.505463 
	C699.143677,308.507141 700.791138,308.145111 700.856628,309.776703 
	C701.023132,313.927795 701.025146,318.095154 700.847778,322.245514 
	C700.778381,323.871063 699.119629,323.476196 698.047974,323.492828 
	C694.218140,323.552368 690.383240,323.625793 686.557312,323.491669 
	C683.940247,323.399902 683.070862,324.444183 683.136902,327.012695 
	C683.278198,332.505371 683.178711,338.004242 683.177795,344.000427 
z"/>
<path fill="#E5253C" opacity="1.000000" stroke="none" 
	d="
M417.152527,371.000061 
	C417.104767,378.820618 417.342773,386.157196 416.933868,393.457520 
	C416.466797,401.795441 411.435455,405.673767 403.728088,404.374237 
	C399.702209,403.695435 397.018066,401.547119 396.075958,397.555420 
	C395.545135,395.306488 395.064453,392.978851 395.054230,390.684448 
	C394.972595,372.379578 395.006226,354.074219 395.016876,335.768982 
	C395.017456,334.773010 395.061584,333.767700 395.199158,332.782623 
	C396.245911,325.287231 399.785004,321.979706 406.495117,322.184021 
	C413.088898,322.384796 416.780975,326.004669 416.971771,333.562073 
	C417.282410,345.868439 417.117035,358.186768 417.152527,371.000061 
z"/>
<path fill="#E5273D" opacity="1.000000" stroke="none" 
	d="
M414.630127,145.269684 
	C418.087982,148.799515 418.445465,152.982239 418.460785,157.163345 
	C418.526764,175.162872 418.577820,193.163361 418.456757,211.162308 
	C418.384033,221.977829 413.879608,226.481583 405.145966,225.230667 
	C400.757080,224.602051 398.193695,222.113907 397.221985,218.049530 
	C396.569794,215.321533 396.228790,212.455719 396.214050,209.649124 
	C396.124847,192.649796 396.163116,175.649796 396.180969,158.650024 
	C396.182526,157.156006 396.234436,155.646286 396.448608,154.170792 
	C397.984741,143.586945 404.637787,140.195969 414.630127,145.269684 
z"/>
<path fill="#E62A40" opacity="1.000000" stroke="none" 
	d="
M615.916992,350.800537 
	C611.373352,355.553253 605.802246,355.198395 600.297119,355.159210 
	C598.010559,355.142914 598.158875,353.574951 598.158752,352.052551 
	C598.158081,343.234833 598.228455,334.416229 598.113525,325.600006 
	C598.081421,323.137177 599.093872,322.593475 601.339600,322.438385 
	C614.188782,321.551056 619.047058,326.085663 619.017822,339.108459 
	C619.008789,343.155457 618.602173,347.076050 615.916992,350.800537 
z"/>
<path fill="#E5263C" opacity="1.000000" stroke="none" 
	d="
M326.843872,336.007111 
	C326.843903,333.017914 327.158447,330.478119 326.776855,328.047638 
	C326.038330,323.343414 328.199432,322.640442 332.312805,322.757080 
	C344.223175,323.094940 346.568329,325.062592 347.348602,336.794678 
	C347.501648,339.095734 347.314240,341.434265 347.116669,343.741150 
	C346.443329,351.603180 343.201202,354.684418 335.411987,354.991150 
	C326.844025,355.328522 326.843994,355.328522 326.843872,346.965607 
	C326.843842,343.479034 326.843872,339.992493 326.843872,336.007111 
z"/>
</svg>